<?xml version="1.0" encoding="utf-8"?>
<!-- Generator: Adobe Illustrator 19.0.0, SVG Export Plug-In . SVG Version: 6.00 Build 0)  -->
<svg version="1.1" id="Layer_1" xmlns="http://www.w3.org/2000/svg" xmlns:xlink="http://www.w3.org/1999/xlink" x="0px" y="0px"
	 viewBox="0 0 1000 1000" style="enable-background:new 0 0 1000 1000;" xml:space="preserve">
<style type="text/css">
	.st0{fill:#FFFFFF;}
</style>
<path id="XMLID_1_" class="st0" d="M639.1,128.9h-2.8c-0.1-0.5-0.3-0.9-0.3-1.4s0.2-0.9,0.3-1.4h2.8c-0.2,0.4-0.3,0.9-0.3,1.4
	C638.8,128,638.9,128.4,639.1,128.9z M642.8,128.9h-3.7c0.6,1.5,2,2.6,3.7,2.6c2.2,0,4-1.8,4-4c0-2.2-1.8-4-4-4
	c-1.7,0-3.2,1.1-3.7,2.6h3.7V128.9z M614.6,113l-28.3-30.4h-17.6c-0.9-3.4-3.8-5.9-7.5-5.9c-4.3,0-7.8,3.5-7.8,7.8
	c0,4.3,3.5,7.8,7.8,7.8c3.6,0,6.6-2.5,7.5-5.9h15.9l26.1,28v11.5h3.9V113z M169.9,503.3c0,0,0.1,0,0.1,0c2.7,9.4,9.6,26.7,25.7,35.4
	c6.2,3.4,13.2,5.1,20.8,5.1c9.1,0,19.2-2.4,30.2-7.2c3.1,9.4,7.3,18,12.9,25.4c6.6,8.8,14.4,15.4,22.7,20.5c2,1.8,4.2,3.2,6.5,3.8
	l0-0.1c14.4,7.3,29.7,10.5,42.2,11.7l0.3-2.8c-14.1-1.3-31.6-5.1-47.4-14.8c-4.2-3.9-7.5-10.4-8.4-17.6c-0.8-6.1-0.9-21.5,15.4-30.7
	c11.6-6.5,16-19,12.7-36.2c-1.6-8.3-4.5-15.6-6.5-19.9c0.5-0.7,0.9-1.5,0.9-2.4c0-2.2-1.8-4-4-4s-4,1.8-4,4c0,2.2,1.8,4,4,4
	c0.2,0,0.4-0.1,0.7-0.1c4.8,10.7,15.6,40.5-5.2,52.2c-12.4,7-18.7,19.5-16.8,33.5c0.6,4.5,2,8.7,4,12.3c-5.4-4.2-10.5-9.1-14.9-15
	c-17.7-23.6-22.6-58.3-14.8-102.8c2.1-0.1,3.7-1.8,3.7-4c0-2.2-1.8-4-4-4c-2.2,0-4,1.8-4,4c0,1.3,0.6,2.4,1.6,3.1
	c-5.3,30.4-4.8,56.2,1.6,77.3c-19.5,8.6-35.9,9.4-48.9,2.4c-15.2-8.2-21.8-25.2-24.4-34c0.8-0.7,1.2-1.7,1.2-2.9c0-2.2-1.8-4-4-4
	s-4,1.8-4,4C165.9,501.5,167.7,503.3,169.9,503.3z M328.8,402l-1.3-2.5c-9.4,4.9-33.2,6.6-33.3,6.6c-23.3,0-42.1-3.8-56.5-10
	c0.3,0,0.7,0.1,1,0.1c8.7,0,16-2.4,21.6-7.2c8.1-6.9,10.6-16.8,11.4-22.5c1.7-0.5,3-1.9,3-3.8c0-2.2-1.8-4-4-4c-2.2,0-4,1.8-4,4
	c0,1.6,0.9,2.9,2.2,3.5c-0.8,5.3-3.1,14.5-10.4,20.7c-6.7,5.7-16,7.7-27.9,5.8c-17.7-9.4-27.4-22.5-29.3-35.6
	c-2.9-19.3,11.4-36.7,36.3-44.2c48.4-14.7,56.9-35.2,58-45.3c1.6-0.5,2.7-2,2.7-3.7c0-2.2-1.8-4-4-4s-4,1.8-4,4c0,1.6,1,3,2.4,3.7
	c-1.2,9.2-9.6,28.6-55.9,42.7c-26.3,8-41.3,26.6-38.2,47.3c3.8,25.5,34.9,51.3,95.8,51.3C295.3,408.9,318.9,407.2,328.8,402z
	 M361.2,799c-0.7,0-1.4,0.3-2,0.6c-28.7-16.5-45-13.3-59.3-10.3c-12.3,2.6-22.9,4.8-39.3-6.4c-2.4-1.6-4.4-3.7-6.1-6l0-0.5
	c-0.1,0-0.2,0-0.3,0c-18.6-26.2,5.4-88.9,14.5-110.2c0.4,0.1,0.8,0.3,1.2,0.3c2.2,0,4-1.8,4-4c0-1.5-0.9-2.8-2.1-3.5
	c0,0,0.1-0.1,0.1-0.1l-2.5-1.2c-0.1,0.1-0.3,0.6-0.5,1c-1.7,0.5-3,1.9-3,3.8c0,0.7,0.2,1.3,0.5,1.8c-8.9,20.5-33.3,83.1-15.6,111.9
	c-15.3-0.3-28-5-37.8-14.5c-17.4-16.7-21.4-43.3-22.3-53.6c1.4-0.6,2.3-2,2.3-3.6c0-2.2-1.8-4-4-4s-4,1.8-4,4c0,1.8,1.2,3.3,2.9,3.8
	c0.9,10.7,4.8,37.9,23.2,55.5c10.7,10.3,24.6,15.5,41.2,15.5c0.1,0,0.3,0,0.4,0c1.8,2.3,3.8,4.3,6.3,6c17.4,11.8,29.1,9.4,41.5,6.8
	c13.7-2.9,29.4-5.9,57,9.8c-0.1,0.4-0.2,0.8-0.2,1.2c0,2.2,1.8,4,4,4s4-1.8,4-4C365.2,800.7,363.4,799,361.2,799z M277.2,739.7
	c-7.1-10.5-4.2-21.9-4.2-22l-2.7-0.7c-0.1,0.5-3.2,12.7,4.6,24.2c6.9,10.1,19.8,16.5,38.4,18.8c49.2,6.1,64.3,12.5,77.4,47.1
	c-0.9,0.7-1.6,1.8-1.6,3.1c0,2.2,1.8,4,4,4s4-1.8,4-4c0-2.1-1.7-3.8-3.7-4c-13.6-35.9-29.9-42.9-79.8-49.1
	C295.8,755,283.6,749.1,277.2,739.7z M467.2,838.1c3.1,2.5,26.4,23.1,21.1,60.3c-3.1,21.6-11.4,36.5-24.7,44.2
	c-7,4.1-15.3,6.1-24.8,6.1c-11,0-23.7-2.7-37.9-8.2c-29.9-11.5-40.8-23.9-50.4-34.8c-8.4-9.5-16.2-18.5-35.6-25.8
	c-5.7-2.2-11.5-4.2-17.1-6.2c-35.8-12.6-69.7-24.6-79.4-70.7c-47.4-23.4-59-78.4-67.9-120.9c-1.7-8-3.3-15.6-5-22.6
	c-11.4-46.2-32.3-178.9,12.3-207.4c-1.7-21.2,3.1-35.9,14-43.7c0.9-0.7,1.9-1.2,2.9-1.8c-2.5-9.4-15.7-64.1,5.5-98.3
	c8.5-13.8,21.6-22.4,39-25.6c5.1-0.9,9.9-2.2,14.4-3.8c-10.1-4.1-15.7-11.9-16.2-23.5c-2.1-46.7,80.2-145.7,102-154.2
	c8.1-3.2,14.8-3.1,19.9,0.1c4.7,2.9,6.9,7.8,8.1,11.5c0.7-2,1.3-4,2.1-6.1c15.2-43.2,73.7-69,112.1-61.6c20.5,3.9,31.8,16.9,31,35.7
	c-0.6,15.3-4.2,24.2-9.7,29.7c4.6,4.6,21.5,24.5,2.7,50.9c1.6,7.4,14.7,71.4-2.5,100.3l-0.3-0.2l0.4,0.7c0,0-11.5,9.1,8.3,76.8
	c12.5,42.8,8.6,68.8,3.1,83.1c-4.8,12.4-11.3,18.3-14.2,20.4c12.5,14,17.1,33.9,13.2,57.5c-2.9,18-9.5,31.6-9.8,32.1
	c-0.2,0.4-13.9,25.3,7.5,77.3c30.6,74-6.3,100.8-11.8,104.3c-2.2,2.8-2.9,7.5-3,13.8c-0.1,7.5,1.2,15,3.9,22.1
	c6.3,16.3,18.4,53.6,5.2,75.2C481.7,831.3,475.3,835.7,467.2,838.1z M478.7,442.8l-0.5-0.8L478.7,442.8L478.7,442.8z M483.3,823.2
	c16.1-26.3-8.4-79.9-8.6-80.5l0,0c-1.9,6-7.6,25.7-3.1,35.7c5.7,12.6,3.1,24,3,24.5l-2.7-0.7c0-0.1,2.5-10.9-2.8-22.7
	c-4.9-10.8,0.8-30.8,2.8-37.3c-21.4-2.6-49-10.9-67.4-35.4c-18.2-24.4-23.2-59.9-15.2-105.4c-0.9-0.7-1.6-1.8-1.6-3.1
	c0-2.2,1.8-4,4-4s4,1.8,4,4c0,2.1-1.7,3.8-3.7,4c-7.8,44.5-2.9,79.2,14.8,102.8c4.9,6.6,10.6,11.9,16.6,16.3
	c-3.3-4.9-5.8-11-6.6-16.9c-1.8-14,4.4-26.5,16.8-33.5c20.8-11.7,9.9-41.5,5.2-52.2c-0.2,0-0.4,0.1-0.7,0.1c-2.2,0-4-1.8-4-4
	c0-2.2,1.8-4,4-4c2.2,0,4,1.8,4,4c0,0.9-0.4,1.8-0.9,2.4c1.9,4.2,4.9,11.6,6.5,19.9c3.3,17.1-1.1,29.6-12.7,36.2
	c-16.4,9.2-16.2,24.5-15.4,30.7c1.3,10.2,8.7,21.9,15.3,23.6l-0.1,0.5c13.4,6.9,27.6,10.1,39.5,11.3c-0.8-6.5-2.4-22.8,2.9-28.6
	l0.4,0.3l-0.2-0.4c0.4-0.2,42.5-24,11-100.4c-7-16.9-10.3-30.9-11.7-42.3c-16.2-0.2-29.7-5.3-40.2-15.4
	c-18.3-17.6-22.3-44.8-23.2-55.5c-1.6-0.5-2.9-2-2.9-3.8c0-2.2,1.8-4,4-4c2.2,0,4,1.8,4,4c0,1.6-1,3-2.3,3.6
	c0.9,10.3,4.9,36.9,22.3,53.6c9.9,9.5,22.7,14.2,38,14.5c-2.1-22.9,4.1-34.2,4.5-34.9c0.2-0.4,26-54.2-3.5-86.4l1.2-1.1
	c-7.4,3.9-22.1,5.8-29.7,6.5l0,0c0,0,0,0-0.1,0c-2.7,0.3-4.5,0.4-4.7,0.4c-17.3,0-32.1-2.1-44.7-5.7l0.2,1.3
	c-22.4,3.9-37.6,15.9-41.8,32.7c-4.3,17.2,4.1,36.1,22.2,51.2c0.4-0.2,0.9-0.3,1.4-0.3c2.2,0,4,1.8,4,4c0,2.2-1.8,4-4,4
	c-2.2,0-4-1.8-4-4c0-0.7,0.2-1.3,0.5-1.9c-18.7-15.7-27.3-35.6-22.8-53.7c4.3-17.2,19.3-29.5,41.3-34.1
	c-29.8-9.3-45.5-27.1-48.2-44.8c-3.1-20.8,11.9-39.3,38.2-47.3c46.4-14.1,54.7-33.5,55.9-42.7c-1.4-0.6-2.4-2-2.4-3.7
	c0-2.2,1.8-4,4-4c2.2,0,4,1.8,4,4c0,1.8-1.1,3.2-2.7,3.7c-1.1,10-9.6,30.5-58,45.3c-24.9,7.6-39.1,24.9-36.3,44.2
	c3.6,24.3,33.8,48.9,93,48.9l0,0c-5.6-4-10-11.9-11.2-20.8c-1.8-14,4.4-26.5,16.8-33.5c20.8-11.7,9.9-41.5,5.2-52.2
	c-0.2,0-0.4,0.1-0.7,0.1c-2.2,0-4-1.8-4-4c0-2.2,1.8-4,4-4c2.2,0,4,1.8,4,4c0,0.9-0.4,1.8-0.9,2.4c1.9,4.2,4.9,11.6,6.5,19.9
	c3.3,17.1-1.1,29.6-12.7,36.2c-16.4,9.2-16.2,24.5-15.4,30.7c1.3,10,7.1,18.7,13.5,20.7c7.5-0.8,21.5-2.6,28.2-6.1l0,0
	c0.4-0.3,8.7-5.5,14.2-20c5.2-13.8,8.9-39-3.3-80.6c-19.1-65.1-9.9-78-7.2-80.3c16.8-29.5,1.9-97.6,1.7-98.3l-0.1-0.6l0.4-0.5
	c18.5-25.5,1.6-44.2-2.2-47.9c-7.1,5.5-16.9,6.5-27.8,7.6c-15.7,1.6-35.2,3.5-54.7,19.2c-13.2,10.7-20.4,22.9-21.3,36.3
	c-1.5,23.5,16.8,43,17,43.2l-0.3,0.3c0.4-0.1,0.8-0.3,1.3-0.3c2.2,0,4,1.8,4,4c0,2.2-1.8,4-4,4s-4-1.8-4-4c0-0.9,0.3-1.6,0.8-2.2
	c-1.4-1.5-19.2-20.9-17.6-45.1c0.9-14.2,8.4-27.1,22.3-38.3c20.2-16.3,40.2-18.2,56.2-19.8c21.5-2.1,35.7-3.5,37.1-36.4
	c0.7-17.4-9.5-29.1-28.7-32.8c-37.3-7.2-94.2,17.9-108.9,59.8c-22.8,64.7-20.3,100.4-7.7,143.5c5.1,17.4-1.6,34.8-10.2,51.8
	c10.5,1.1,19-0.8,25.1-6.1c7.3-6.2,9.6-15.4,10.4-20.7c-1.3-0.7-2.2-2-2.2-3.5c0-2.2,1.8-4,4-4s4,1.8,4,4c0,1.9-1.3,3.4-3,3.8
	c-0.8,5.7-3.3,15.7-11.4,22.5c-5.6,4.8-12.8,7.2-21.6,7.2c-2.1,0-4.4-0.3-6.7-0.5c-1.5,2.8-2.9,5.7-4.4,8.5
	c-10.6,20-20.5,38.9-12.2,54.8c1.9,0.3,3.4,1.9,3.4,3.9c0,2.2-1.8,4-4,4c-2.2,0-4-1.8-4-4c0-1.4,0.8-2.6,1.8-3.3
	c-1.9-3.9-3-7.9-3.2-12.1c-6.2-15.6-14.8-25-25.6-27.9c-13.5-3.6-27.1,3.8-32.8,7.6c0.2,0.5,0.3,1,0.3,1.6c0,2.2-1.8,4-4,4
	c-2.2,0-4-1.8-4-4s1.8-4,4-4c0.6,0,1.2,0.2,1.7,0.4c5.6-3.8,20.3-12.3,35.5-8.2c10.4,2.8,18.9,10.9,25.2,24.2
	c1.5-12.1,8.3-25,15.4-38.4c10.6-20.1,21.6-40.8,15.8-60.9c-12-41.1-14.9-75.5,4-134c-0.2-1.3-1.4-10.3-7.9-14.3
	c-4.3-2.7-10.2-2.6-17.4,0.2c-21.4,8.4-102.2,105.7-100.2,151.5c0.5,11.5,6.1,18.7,16.8,22.1c12.2-5,21.8-12.4,28.4-22.5
	c12.9-19.8,11.5-44.2,10-54.8c-0.3,0.1-0.6,0.2-0.9,0.2c-2.2,0-4-1.8-4-4c0-2.2,1.8-4,4-4s4,1.8,4,4c0,0.7-0.2,1.3-0.5,1.8
	c1.6,10,4,36.5-10.3,58.3c-10,15.3-26.2,25.1-48.1,29.1c-16.5,3-29,11.2-37.1,24.3c-20,32.3-8,85.2-5.4,95.5
	c18.9-8.4,45,1.1,51.8,3.9c0.4-0.1,0.7-0.2,1.1-0.2c2.2,0,4,1.8,4,4s-1.8,4-4,4s-4-1.8-4-4c0-0.6,0.2-1.2,0.4-1.7
	c-9-3.4-36.7-12.4-53.2-0.6c-9.9,7-14.2,20.5-12.9,39.9c1-0.5,1.9-1,2.9-1.4c15.6-6.2,28.6-6.3,38.6-0.4
	c10.4,6.2,14.9,17.3,16.8,24.4c2.2,0,4,1.8,4,4c0,2.2-1.8,4-4,4c-2.2,0-4-1.8-4-4c0-1.2,0.6-2.3,1.4-3c-1.8-6.6-6-17.2-15.6-23
	c-9.2-5.5-21.4-5.3-36.1,0.6c-50.1,19.9-27.9,159.7-16.2,207.1c1.7,7,3.3,14.7,5,22.7c11.5,55,25.9,123.5,107.6,129.7
	c3.7,0.3,7.1,0.6,10.6,1l0,0l0,0c81.9,7.8,97,29.1,112.8,51.7l2.3,3.3c9.5,13.4,27.6,16.8,37.6,17.7c13.2,1.2,26.6-1,33.6-5
	c0-0.1-0.1-0.3-0.1-0.4c0-2.2,1.8-4,4-4s4,1.8,4,4c0,2.2-1.8,4-4,4c-1,0-2-0.4-2.7-1.1c-6.2,3.5-16.4,5.6-27.5,5.6
	c-2.5,0-5-0.1-7.5-0.3c-10.5-0.9-29.5-4.6-39.6-18.8l-2.3-3.3c-14.7-21.1-28.9-41.1-100.7-49.4c17.3,7.3,52.7,24.3,65,46.8
	c21.5,39.2,52.2,55.9,93.6,51.2c0.7-0.6,1.6-1,2.6-1c2.2,0,4,1.8,4,4c0,2.2-1.8,4-4,4c-2.2,0-4-1.8-4-4c0,0,0-0.1,0-0.1
	c-4,0.4-8,0.8-11.9,0.8c-35.9,0-63.1-17.6-82.8-53.6c-15.3-27.8-69.4-47.9-73-49.2c-3.4-0.3-6.6-0.6-10.2-0.9
	c-15.1-1.1-27.9-4.5-38.9-9.4c10,42.8,42.6,54.4,77.1,66.5c5.7,2,11.4,4,17.2,6.2c20,7.6,28.1,16.8,36.7,26.6
	c9.8,11.2,20,22.8,49.3,34.1c25.7,9.9,46,10.7,60.3,2.3c12.5-7.3,20.4-21.6,23.3-42.2c5.4-37.9-20.1-57.8-20.4-58l1.3-1.7
	c-3.6,1-7.5,1.7-11.9,1.9c-0.9,0-1.8,0.1-2.6,0.1c-24.7,0-28-15.8-32.5-37.4c-5.7-27.7-13.6-65.4-68-99.3c-0.7,0.8-1.7,1.2-2.9,1.2
	c-2.2,0-4-1.8-4-4c0-2.2,1.8-4,4-4s4,1.8,4,4c0,0.1,0,0.1,0,0.1c55.8,34.5,63.8,73,69.7,101.3c4.7,22.6,7.5,36.2,32.2,35.2
	C468.1,836.9,477.9,832.1,483.3,823.2z M471.2,802.2c-2.2,0-4,1.8-4,4c0,2.2,1.8,4,4,4c2.2,0,4-1.8,4-4
	C475.2,804,473.4,802.2,471.2,802.2z M304.8,672.6c15-44.9,20.4-51.1,21.8-51.9c0.1,0.2,0.1,0.4,0.2,0.6l2.8-0.3
	c-0.1-1.4-0.9-3-2.5-3.2c-1.9-0.1-6.4-0.5-23.3,49.2c-8.6-40.3-49.3-69.9-95.4-68.2c-14,0.5-24.8-3.1-31.8-10.7
	c-8.1-8.8-9.4-20.9-9.5-27.2c1.6-0.5,2.7-2,2.7-3.7c0-2.2-1.8-4-4-4c-2.2,0-4,1.8-4,4c0,1.7,1,3.1,2.5,3.7c0,6.7,1.4,19.5,10.3,29.1
	c7.6,8.3,19,12.1,34,11.6c9.4-0.3,18.7,0.8,27.5,3.1c-20.4,5.1-34.2,17-38.3,33.4c-4.5,18.1,4.1,38,22.8,53.7
	c-0.3,0.6-0.5,1.2-0.5,1.9c0,2.2,1.8,4,4,4c2.2,0,4-1.8,4-4c0-2.2-1.8-4-4-4c-0.5,0-0.9,0.1-1.4,0.3c-18.1-15.1-26.5-34-22.2-51.2
	c4.1-16.7,19.2-28.5,41.2-32.5c31.4,10.2,56.1,35.8,60.5,66.4c5.1,36,22.6,62.3,48.2,73.1c-0.1,0.3-0.2,0.6-0.2,0.9c0,2.2,1.8,4,4,4
	c2.2,0,4-1.8,4-4c0-2.2-1.8-4-4-4c-0.8,0-1.6,0.3-2.2,0.8C326.9,733.2,309.9,707.7,304.8,672.6z M415.9,263.6c2.2,0,4-1.8,4-4
	c0-0.5-0.1-0.9-0.3-1.4c25.8-16.9,18.3-38.7,11-59.9c-0.9-2.5-1.8-5.1-2.6-7.6c-3.5-10.8,0.2-22.7,9.6-31.2
	c7.5-6.7,20-11.6,33.7-6.8c0,0.2-0.1,0.4-0.1,0.6c0,2.2,1.8,4,4,4c2.2,0,4-1.8,4-4s-1.8-4-4-4c-0.9,0-1.7,0.4-2.4,0.9
	c-12.8-4.6-26.8-2-37,7.2c-10.3,9.2-14.3,22.3-10.4,34.1c0.8,2.6,1.7,5.1,2.6,7.7c7.3,21.2,14.2,41.2-10.2,56.9
	c-0.6-0.3-1.2-0.5-1.9-0.5c-2.2,0-4,1.8-4,4C411.9,261.8,413.6,263.6,415.9,263.6z M642.8,120.7c3.7,0,6.8,3,6.8,6.8s-3,6.8-6.8,6.8
	c-3.2,0-5.8-2.3-6.5-5.4h-3.9c0.7,5.2,5,9.3,10.4,9.3c5.9,0,10.7-4.8,10.7-10.7s-4.8-10.7-10.7-10.7c-5.4,0-9.7,4.1-10.4,9.3h3.9
	C637,123,639.6,120.7,642.8,120.7z M593.4,708.5c0,4-3,7.1-6.8,7.6l-1.8,43.1H553l-9.8,10.6l0.8-0.6l11.3,15.2
	c1-0.5,2.2-0.8,3.4-0.8c4.3,0,7.8,3.5,7.8,7.8c0,4.3-3.5,7.8-7.8,7.8c-4.3,0-7.8-3.5-7.8-7.8c0-1.7,0.6-3.1,1.5-4.4l-11.2-15.1
	l-6.5,7v41.3h11.7c0.9-4.9,5.1-8.7,10.3-8.7c5.9,0,10.7,4.8,10.7,10.7c0,5.9-4.8,10.7-10.7,10.7c-5.2,0-9.3-3.8-10.3-8.7h-15.6
	v-46.8l17.2-18.5l-7.4-17.6V674c-4.7-1.1-8.3-5.1-8.3-10.2c0-5.9,4.8-10.7,10.7-10.7c5.9,0,10.7,4.8,10.7,10.7c0,5.3-4,9.6-9.1,10.4
	v66.8l6.4,14.8l0.5-0.5H581l1.6-39.5c-2.9-1.2-4.9-4-4.9-7.3c0-4.3,3.5-7.8,7.8-7.8C589.8,700.6,593.4,704.1,593.4,708.5z
	 M542.9,670.5c3.7,0,6.8-3,6.8-6.8c0-3.7-3-6.8-6.8-6.8s-6.8,3-6.8,6.8C536.1,667.5,539.1,670.5,542.9,670.5z M549.9,822.2
	c0,3.7,3,6.8,6.8,6.8s6.8-3,6.8-6.8c0-3.7-3-6.8-6.8-6.8S549.9,818.5,549.9,822.2z M717.8,646.1v45.4l-39.3,42.3v56.7L630,842.6
	c0.9,1.6,1.6,3.3,1.6,5.2c0,5.9-4.8,10.7-10.7,10.7c-5.9,0-10.7-4.8-10.7-10.7c0-5.9,4.8-10.7,10.7-10.7c2.5,0,4.7,1,6.5,2.5
	l47.1-50.6V738l-38.3,41.2c0.8,1.2,1.3,2.6,1.3,4.1c0,4.3-3.5,7.8-7.8,7.8c-4.3,0-7.8-3.5-7.8-7.8c0-4.3,3.5-7.8,7.8-7.8
	c1.3,0,2.6,0.4,3.7,1l80.5-86.5v-42.7h-31.8c-0.9,3.4-3.8,5.9-7.5,5.9c-4.3,0-7.8-3.5-7.8-7.8s3.5-7.8,7.8-7.8
	c3.6,0,6.6,2.5,7.5,5.9H715l18.2-19.5H607.5v106.3l2.5,2.3l13.5-16.7c-1-1.3-1.6-2.8-1.6-4.6c0-4.3,3.5-7.8,7.8-7.8
	c4.3,0,7.8,3.5,7.8,7.8c0,4.3-3.5,7.8-7.8,7.8c-1.2,0-2.2-0.3-3.2-0.7L610.4,738l-6.9-6.2v-108v-3.9h3.9h129.3l53.4-57.4v-69.3
	c-3.4-0.9-5.9-3.8-5.9-7.5c0-4.3,3.5-7.8,7.8-7.8c4.3,0,7.8,3.5,7.8,7.8c0,3.6-2.5,6.6-5.9,7.5v70.9L717.8,646.1z M627.6,847.8
	c0-3.7-3-6.8-6.8-6.8c-3.7,0-6.8,3-6.8,6.8c0,3.7,3,6.8,6.8,6.8C624.6,854.5,627.6,851.5,627.6,847.8z M541.9,902.2c0,2.2,1.8,4,4,4
	s4-1.8,4-4c0-2.2-1.8-4-4-4S541.9,900,541.9,902.2z M840.4,505c0,5.2-3.8,9.3-8.7,10.3v61l-28.1,30.2l22,23.6l-10.4,11.2
	c1.3,1.8,2.2,3.8,2.2,6.2c0,5.9-4.8,10.7-10.7,10.7c-5.9,0-10.7-4.8-10.7-10.7c0-5.9,4.8-10.7,10.7-10.7c2.1,0,3.9,0.8,5.6,1.8
	l7.9-8.5l-19.3-20.7l-45.6,49c0.8,1.2,1.3,2.6,1.3,4.1c0,4.3-3.5,7.8-7.8,7.8c-4.3,0-7.8-3.5-7.8-7.8c0-4.3,3.5-7.8,7.8-7.8
	c1.3,0,2.6,0.4,3.7,1l75.3-80.9v-59.4c-4.9-0.9-8.7-5.1-8.7-10.3c0-5.9,4.8-10.7,10.7-10.7C835.6,494.3,840.4,499.1,840.4,505z
	 M812.4,644.1l-2,2.1c0.1,0.4,0.2,0.8,0.2,1.2c0,2.2-1.8,4-4,4s-4-1.8-4-4c0-2.2,1.8-4,4-4c0.3,0,0.6,0.1,0.9,0.2l2-2.2
	c-0.9-0.4-1.9-0.7-2.9-0.7c-3.7,0-6.8,3-6.8,6.8s3,6.8,6.8,6.8c3.7,0,6.8-3,6.8-6.8C813.4,646.2,813,645.1,812.4,644.1z M836.5,505
	c0-3.7-3-6.8-6.8-6.8c-3.7,0-6.8,3-6.8,6.8c0,3,2,5.5,4.8,6.4v-2.9c-1.2-0.7-2-1.9-2-3.4c0-2.2,1.8-4,4-4c2.2,0,4,1.8,4,4
	c0,1.5-0.8,2.7-2,3.4v2.9C834.4,510.5,836.5,508,836.5,505z M863.4,480.9v158.1l-28.5,30.7V761l-60.3,64.8h-18.8l-64.1,68.9h-28.6
	l-51.6,55.5h-67.6l-36.2-38.9v-27.9l31.9-34.2h-9.2l-27.9-30v-57.9l26.4-26.4l-14.1-14.3v-498h0.2V176l12-10.3l-12-11.9V128l16-16
	l-10.1-10.9V70.3l24.5-26.4h65.8l66.5,71.5v27.3h35.7l63.1,69.8v77.8l34.7,0l24.4,26.2v134.3L863.4,480.9z M859.5,482.4l-26.8-28.8
	l-51.2-2l-14.3,15.3l-16.8,19.4h-77.3v-0.5h-0.4v-30.5H542.9h-2.7h-1.3V406v-1.5V402h165.3l38.6-41.7h8.9c1-3.1,3.9-5.5,7.4-5.5
	c4.3,0,7.8,3.5,7.8,7.8c0,4.3-3.5,7.8-7.8,7.8c-3.8,0-6.8-2.7-7.5-6.3h-7L706,406H542.9v45.5l193.4,0.1l29.9-34h31.7
	c1-4.9,5.1-8.7,10.3-8.7c5.9,0,10.7,4.8,10.7,10.7s-4.8,10.7-10.7,10.7c-5.2,0-9.3-3.8-10.3-8.7h-29.9l-29.8,33.9h-61.5v27h72
	l15.7-18.1l15.5-16.7l51.7,2V318.1l-22.2-23.9l-47.5,0l-42.5-45.6v-30.9c-4.9-0.9-8.7-5.1-8.7-10.3c0-5.9,4.8-10.7,10.7-10.7
	c5.9,0,10.7,4.8,10.7,10.7c0,5.2-3.8,9.3-8.7,10.3v29.4l40.3,43.3l8.9,0V214l-60.9-67.3h-34v85.2l-29.7,32l67.5,72.5l-16,12.3h-92
	v0.1h-3.9v-0.1v-3.9V234l7.3-9.9v-31.4c-4.9-0.9-8.7-5.1-8.7-10.3c0-5.9,4.8-10.7,10.7-10.7c5.9,0,10.7,4.8,10.7,10.7
	c0,5.2-3.8,9.3-8.7,10.3v32.7l-7.3,9.9v109.4h90.7l11.5-8.8l-67-72l31.2-33.5V116.9l-64.3-69.1h-62.4l-22.3,24v27.7l24.1,26h41.6
	l0.9,0.6h-1.4v2.8h5.8l53.1,34v54.4c3.4,0.9,5.9,3.8,5.9,7.5c0,4.3-3.5,7.8-7.8,7.8c-4.3,0-7.8-3.5-7.8-7.8c0-3.6,2.5-6.6,5.9-7.5
	V165l-55.5-35.6h-42.1l-13.6-14.6l-14.8,14.8v22.6l11.1,10.9L544,151h29.4l25.5,27.4v37.7h-0.6v0.7h-11.6v20.8H583l-16.6,7.2v110.2
	h-2.6h-1.4h-22.4v-1.3V351V198.6l10.4-11.5c-1.6-1.9-2.7-4.2-2.7-6.9c0-5.9,4.8-10.7,10.7-10.7c5.9,0,10.7,4.8,10.7,10.7
	s-4.8,10.7-10.7,10.7c-1.8,0-3.4-0.6-4.9-1.3l-9.6,10.6V351h18.5V242.2l20.3-8.8v-16.6h-14l-2.5,2.7c0.9,1.3,1.6,2.8,1.6,4.5
	c0,4.3-3.5,7.8-7.8,7.8c-4.3,0-7.8-3.5-7.8-7.8c0-4.3,3.5-7.8,7.8-7.8c1.2,0,2.3,0.3,3.3,0.8l3.8-4h27.9v-32.9l-23.3-25h-26
	l-26.9,22.6l-0.5,45h0.2v496.5l15.6,15.9l-27.9,27.9v54.7l25.7,27.6h34.3l17.6-19v-44.4l72.7-78.2c-1.3-1.8-2.2-3.8-2.2-6.2
	c0-5.9,4.8-10.7,10.7-10.7c5.9,0,10.7,4.8,10.7,10.7c0,5.9-4.8,10.7-10.7,10.7c-2.1,0-3.9-0.8-5.6-1.8l-71.7,77.1v44.4L568,849
	h-25.1l1,1l-32.4,34.8v24.8l34,36.5h64.2l48-51.6h-36.6l-32.3,34.7h-23.3c-0.9,3.4-3.8,5.9-7.5,5.9c-4.3,0-7.8-3.5-7.8-7.8
	c0-4.3,3.5-7.8,7.8-7.8c3.6,0,6.6,2.5,7.5,5.9h21.6l19.8-21.3h-50.7c-0.9,4.9-5.1,8.7-10.3,8.7c-5.9,0-10.7-4.8-10.7-10.7
	c0-5.9,4.8-10.7,10.7-10.7c5.2,0,9.3,3.8,10.3,8.7h53.9v0.4l9.3-10h42h0.9H690l60.5-65h-64.8l-43.5,46.7h-64.7
	c-0.9,3.4-3.8,5.9-7.5,5.9c-4.3,0-7.8-3.5-7.8-7.8c0-4.3,3.5-7.8,7.8-7.8c3.6,0,6.6,2.5,7.5,5.9h63l43.5-46.7h89l58-62.4v-88.6h-50
	l-33.9,36.5l37.5,40.3l-31.2,33.5c1.3,1.8,2.2,3.8,2.2,6.2c0,5.9-4.8,10.7-10.7,10.7c-5.9,0-10.7-4.8-10.7-10.7
	c0-5.9,4.8-10.7,10.7-10.7c2.1,0,3.9,0.8,5.6,1.8l28.7-30.9l-34.8-37.4l-27.9,30c0.1,0.4,0.2,0.8,0.2,1.2c0,2.2-1.8,4-4,4
	s-4-1.8-4-4c0-2.2,1.8-4,4-4c0.3,0,0.6,0.1,0.9,0.2l65.7-70.6h52.8l27.4-29.5V482.4z M750.7,784l-2,2.1c0.1,0.4,0.2,0.8,0.2,1.2
	c0,2.2-1.8,4-4,4c-2.2,0-4-1.8-4-4c0-2.2,1.8-4,4-4c0.3,0,0.6,0.1,0.9,0.2l2-2.2c-0.9-0.4-1.9-0.7-2.9-0.7c-3.7,0-6.8,3-6.8,6.8
	c0,3.7,3,6.8,6.8,6.8c3.7,0,6.8-3,6.8-6.8C751.7,786.1,751.3,785,750.7,784z M546,895.4c-3.7,0-6.8,3-6.8,6.8c0,3.7,3,6.8,6.8,6.8
	c3.7,0,6.8-3,6.8-6.8C552.7,898.5,549.7,895.4,546,895.4z M659.4,700.7l2-2.1c-0.1-0.4-0.2-0.8-0.2-1.2c0-2.2,1.8-4,4-4s4,1.8,4,4
	s-1.8,4-4,4c-0.3,0-0.6-0.1-0.9-0.2l-2,2.2c0.9,0.4,1.9,0.7,2.9,0.7c3.7,0,6.8-3,6.8-6.8c0-3.7-3-6.8-6.8-6.8c-3.7,0-6.8,3-6.8,6.8
	C658.4,698.6,658.8,699.7,659.4,700.7z M553.2,184.1l1.6-1.7c-0.1-0.4-0.2-0.8-0.2-1.2c0-2.2,1.8-4,4-4c2.2,0,4,1.8,4,4
	c0,2.2-1.8,4-4,4c-0.3,0-0.6-0.1-0.8-0.2l-1.4,1.5c0.7,0.2,1.4,0.4,2.2,0.4c3.7,0,6.8-3,6.8-6.8s-3-6.8-6.8-6.8
	c-3.7,0-6.8,3-6.8,6.8C551.7,181.6,552.3,183,553.2,184.1z M614.6,185.7v2.9c2.8-0.9,4.8-3.3,4.8-6.4c0-3.7-3-6.8-6.8-6.8
	c-3.7,0-6.8,3-6.8,6.8c0,3,2,5.5,4.8,6.4v-2.9c-1.2-0.7-2-1.9-2-3.4c0-2.2,1.8-4,4-4c2.2,0,4,1.8,4,4
	C616.7,183.8,615.8,185.1,614.6,185.7z M723.4,213.7c2.8-0.9,4.8-3.3,4.8-6.4c0-3.7-3-6.8-6.8-6.8c-3.7,0-6.8,3-6.8,6.8
	c0,3,2,5.5,4.8,6.4v-2.9c-1.2-0.7-2-1.9-2-3.4c0-2.2,1.8-4,4-4s4,1.8,4,4c0,1.5-0.8,2.7-2,3.4V213.7z M801.8,421.4
	c0.9,2.8,3.3,4.8,6.4,4.8c3.7,0,6.8-3,6.8-6.8s-3-6.8-6.8-6.8c-3,0-5.5,2-6.4,4.8h2.9c0.7-1.2,1.9-2,3.4-2c2.2,0,4,1.8,4,4
	c0,2.2-1.8,4-4,4c-1.5,0-2.7-0.8-3.4-2H801.8z M556.6,826.2c2.2,0,4-1.8,4-4c0-2.2-1.8-4-4-4s-4,1.8-4,4
	C552.6,824.4,554.4,826.2,556.6,826.2z M620.8,843.8c-2.2,0-4,1.8-4,4c0,2.2,1.8,4,4,4s4-1.8,4-4C624.8,845.6,623,843.8,620.8,843.8
	z M793.6,380.1h-41.9l-42,46.6H575.6c-0.3-4.1-3.6-7.3-7.7-7.3c-4.3,0-7.8,3.5-7.8,7.8c0,4.3,3.5,7.8,7.8,7.8c3.1,0,5.7-1.8,7-4.5
	h136.5l42-46.6h39.8c0.5,3.9,3.7,7,7.7,7c4.3,0,7.8-3.5,7.8-7.8c0-4.3-3.5-7.8-7.8-7.8C797.6,375.3,794.8,377.3,793.6,380.1z
	 M632.1,127.5c0-0.5,0.2-0.9,0.3-1.4h-17.8v1.4h-3.9v-1.4h-19.4l4.4,2.8h36.7C632.3,128.4,632.1,128,632.1,127.5z M585.1,372.8
	c0-4.3,3.5-7.8,7.8-7.8c3.6,0,6.6,2.5,7.5,5.9h99.8l39.6-46.8l-35.1-37.7c-1.1,0.6-2.3,1-3.7,1c-4.3,0-7.8-3.5-7.8-7.8
	c0-4.3,3.5-7.8,7.8-7.8c4.3,0,7.8,3.5,7.8,7.8c0,1.5-0.6,2.9-1.3,4.1l35.7,38.4H776c1-4.9,5.1-8.7,10.3-8.7
	c5.9,0,10.7,4.8,10.7,10.7s-4.8,10.7-10.7,10.7c-5.2,0-9.3-3.8-10.3-8.7h-32.6L702,374.7H600.4c-0.9,3.4-3.8,5.9-7.5,5.9
	C588.7,380.6,585.1,377.1,585.1,372.8z M779.9,322h2.9c0.7-1.2,1.9-2,3.4-2c2.2,0,4,1.8,4,4s-1.8,4-4,4c-1.5,0-2.7-0.8-3.4-2h-2.9
	c0.9,2.8,3.3,4.8,6.4,4.8c3.7,0,6.8-3,6.8-6.8s-3-6.8-6.8-6.8C783.2,317.2,780.7,319.3,779.9,322z M717.9,540.3
	c0.8,3.5,3.8,6.1,7.5,6.1c4.3,0,7.8-3.5,7.8-7.8c0-4.3-3.5-7.8-7.8-7.8c-3.6,0-6.4,2.4-7.4,5.6H581v0.6v3.3v28.2h0.9h3h144.5
	c0.9,3.4,3.8,5.9,7.5,5.9c4.3,0,7.8-3.5,7.8-7.8c0-4.3-3.5-7.8-7.8-7.8c-3.6,0-6.6,2.5-7.5,5.9H584.9v-24.2H717.9z M553.1,549
	c0,2.2,1.8,4,4,4c2.2,0,4-1.8,4-4c0-2.2-1.8-4-4-4C554.9,545,553.1,546.8,553.1,549z M546.9,663.8c0-2.2-1.8-4-4-4s-4,1.8-4,4
	s1.8,4,4,4S546.9,666,546.9,663.8z M533,594.4c0-4.3,3.5-7.8,7.8-7.8c3.8,0,6.9,2.8,7.6,6.4h193.1l29.2-35l0.1-45H559v25.8
	c4.9,0.9,8.7,5.1,8.7,10.3c0,5.9-4.8,10.7-10.7,10.7c-5.9,0-10.7-4.8-10.7-10.7c0-5.2,3.8-9.3,8.7-10.3V509h0.7h3.2h215.5v2l0.3,0
	l-0.1,48.4l-31.3,37.5H548.2c-1,3.1-3.9,5.4-7.3,5.4C536.6,602.2,533,598.7,533,594.4z M557.1,542.3c-3.7,0-6.8,3-6.8,6.8
	s3,6.8,6.8,6.8c3.7,0,6.8-3,6.8-6.8S560.8,542.3,557.1,542.3z"/>
</svg>
