<?xml version="1.0" encoding="UTF-8"?>
<svg width="1339px" height="1329px" viewBox="0 0 1339 1329" version="1.1" xmlns="http://www.w3.org/2000/svg" xmlns:xlink="http://www.w3.org/1999/xlink">
    <!-- Generator: Sketch 55.2 (78181) - https://sketchapp.com -->
    <title>Group 38@2x</title>
    <desc>Created with Sketch.</desc>
    <defs>
        <path d="M908.133695,1476.19269 C870.233766,1476.04241 835.842833,1469.04698 799.054519,1461.53909 C758.571087,1453.15397 712.581908,1443.87336 654.852533,1442.24518 C542.389557,1434.26711 443.043214,1351.71851 379.322291,1283.8235 C296.007387,1194.84359 237.30641,1093.32672 210.020577,1027.95538 C159.983054,907.633055 170.67068,844.703989 185.325683,757.840712 C191.155297,723.73039 197.713613,685.223989 201.195188,638.251064 C202.490658,619.771248 205.8103,600.558752 211.073146,581.427665 C261.353569,398.501906 476.644463,233.160467 606.353381,178.942151 C661.613266,155.903438 705.193681,147.640436 745.079983,147.192687 L752.020151,147.192687 C789.200918,147.606903 823.518679,154.591807 861.641906,162.33474 C900.910835,170.31281 945.361644,179.349196 1000.66201,182.035689 C1112.80112,187.571493 1212.39037,270.364326 1276.11129,338.910605 C1359.02136,427.890513 1417.8033,530.140069 1445.33204,596.244081 C1471.5464,659.335644 1480.52398,707.121401 1481.11939,750.505245 L1481.11939,759.927853 C1480.66346,793.588323 1475.42227,825.017807 1469.70306,859.520406 C1463.71151,895.258905 1456.99126,935.963346 1454.40032,986.111217 C1452.78099,1003.28849 1449.54231,1020.87281 1444.60333,1038.45713 C1393.43228,1224.80206 1178.38428,1391.28322 1049.24213,1445.33872 C994.481205,1468.18754 950.54731,1476.03396 910.618178,1476.19269 L908.133301,1476.19269 M208.889852,642.256414 C205.327185,689.227917 198.76864,728.058779 193.100762,762.249474 C178.364278,848.45887 167.838218,910.897593 217.472639,1030.15799 C283.381968,1188.41207 469.126441,1428.80522 658.757459,1441.99306 C716.893698,1443.62119 763.046422,1453.06433 803.693207,1461.4492 C882.314778,1477.48626 944.499501,1490.02285 1051.46046,1445.41213 C1184.97949,1389.64874 1396.06747,1218.04401 1444.73026,1041.06645 C1449.50747,1023.8897 1452.74626,1006.55013 1454.28468,989.536192 C1456.79474,939.389839 1463.67716,898.605224 1469.66892,862.623587 C1483.19086,781.705608 1493.95983,717.720164 1445.62092,601.634612 C1391.53317,471.628563 1212.59015,199.89394 1004.3361,189.799545 C948.790895,187.113133 904.095625,177.995614 864.744355,170.017785 C784.50339,153.655095 721.023152,140.711475 611.633098,186.380475 C482.729349,240.271524 268.564514,404.631081 218.687184,586.330205" id="path-1"></path>
        <linearGradient x1="107.575973%" y1="4.34979218%" x2="-0.0407062796%" y2="100%" id="linearGradient-3">
            <stop stop-color="#4A72FF" stop-opacity="0.314084353" offset="0%"></stop>
            <stop stop-color="#303DFF" offset="100%"></stop>
        </linearGradient>
        <path d="M907.861228,1476.5356 C869.993233,1476.38527 835.631278,1469.38702 798.873963,1461.8761 C758.424641,1453.48761 712.474213,1444.20325 654.793481,1442.57442 C542.425267,1434.59313 443.162633,1352.01126 379.495402,1284.08889 C296.250699,1195.07312 237.599183,1093.51533 210.336341,1028.11765 C160.34098,907.746835 171.019601,844.792408 185.662255,757.894124 C191.486957,723.770055 198.039747,685.248135 201.518389,638.25628 C202.812767,619.769016 206.129611,600.548777 211.388023,581.409979 C261.62608,398.4105 476.735569,233.002426 606.335194,178.762259 C661.548517,155.714261 705.092212,147.447929 744.944905,147 L751.879226,147 C789.028663,147.414382 823.317508,154.402101 861.408613,162.148155 C900.644454,170.12944 945.057809,179.169468 1000.31158,181.857044 C1112.3562,187.395079 1211.86153,270.221278 1275.52876,338.795182 C1358.36897,427.81095 1417.10139,530.101714 1444.60692,596.232367 C1470.7992,659.349357 1479.76922,707.154373 1480.36412,750.5557 L1480.36412,759.982106 C1479.90858,793.656142 1474.67181,825.098292 1468.95742,859.614796 C1462.97092,895.367698 1456.25633,936.088544 1453.66757,986.256625 C1452.0496,1003.44082 1448.81365,1021.03223 1443.87884,1038.62363 C1392.75089,1225.04366 1177.8841,1391.59192 1048.85077,1445.6692 C994.135981,1468.52723 950.239106,1476.37682 910.343618,1476.5356 L907.860834,1476.5356 M209.206568,642.263244 C205.646904,689.253677 199.093885,728.100188 193.430782,762.304663 C178.706716,848.548803 168.189525,911.012689 217.782124,1030.32115 C283.635918,1188.63901 469.223882,1429.12904 658.695117,1442.3222 C716.78237,1443.95098 762.896205,1453.39793 803.508742,1461.78617 C882.064066,1477.8297 944.196392,1490.37134 1051.06723,1445.74264 C1184.47375,1389.95677 1395.38387,1218.28289 1444.00565,1041.23401 C1448.77884,1024.05033 1452.0149,1006.70378 1453.55203,989.682981 C1456.05997,939.516418 1462.9366,898.715366 1468.9233,862.719228 C1482.43385,781.768638 1493.19374,717.757406 1444.89557,601.625071 C1390.85339,471.566627 1212.06115,199.722492 1003.98258,189.624028 C948.48417,186.936534 903.82656,177.815341 864.508447,169.834296 C784.335094,153.465012 720.908344,140.516175 611.610463,186.203581 C482.815328,240.116348 268.830949,404.542145 218.995646,586.314496" id="path-4"></path>
        <linearGradient x1="107.432685%" y1="4.34979218%" x2="0.0838288193%" y2="100%" id="linearGradient-6">
            <stop stop-color="#4A72FF" stop-opacity="0.314084353" offset="0%"></stop>
            <stop stop-color="#303DFF" offset="100%"></stop>
        </linearGradient>
        <path d="M907.861228,1476.5356 C869.993233,1476.38527 835.631278,1469.38702 798.873963,1461.8761 C758.424641,1453.48761 712.474213,1444.20325 654.793481,1442.57442 C542.425267,1434.59313 443.162633,1352.01126 379.495402,1284.08889 C296.250699,1195.07312 237.599183,1093.51533 210.336341,1028.11765 C160.34098,907.746835 171.019601,844.792408 185.662255,757.894124 C191.486957,723.770055 198.039747,685.248135 201.518389,638.25628 C202.812767,619.769016 206.129611,600.548777 211.388023,581.409979 C261.62608,398.4105 476.735569,233.002426 606.335194,178.762259 C661.548517,155.714261 705.092212,147.447929 744.944905,147 L751.879226,147 C789.028663,147.414382 823.317508,154.402101 861.408613,162.148155 C900.644454,170.12944 945.057809,179.169468 1000.31158,181.857044 C1112.3562,187.395079 1211.86153,270.221278 1275.52876,338.795182 C1358.36897,427.81095 1417.10139,530.101714 1444.60692,596.232367 C1470.7992,659.349357 1479.76922,707.154373 1480.36412,750.5557 L1480.36412,759.982106 C1479.90858,793.656142 1474.67181,825.098292 1468.95742,859.614796 C1462.97092,895.367698 1456.25633,936.088544 1453.66757,986.256625 C1452.0496,1003.44082 1448.81365,1021.03223 1443.87884,1038.62363 C1392.75089,1225.04366 1177.8841,1391.59192 1048.85077,1445.6692 C994.135981,1468.52723 950.239106,1476.37682 910.343618,1476.5356 L907.860834,1476.5356 M209.206568,642.263244 C205.646904,689.253677 199.093885,728.100188 193.430782,762.304663 C178.706716,848.548803 168.189525,911.012689 217.782124,1030.32115 C283.635918,1188.63901 469.223882,1429.12904 658.695117,1442.3222 C716.78237,1443.95098 762.896205,1453.39793 803.508742,1461.78617 C882.064066,1477.8297 944.196392,1490.37134 1051.06723,1445.74264 C1184.47375,1389.95677 1395.38387,1218.28289 1444.00565,1041.23401 C1448.77884,1024.05033 1452.0149,1006.70378 1453.55203,989.682981 C1456.05997,939.516418 1462.9366,898.715366 1468.9233,862.719228 C1482.43385,781.768638 1493.19374,717.757406 1444.89557,601.625071 C1390.85339,471.566627 1212.06115,199.722492 1003.98258,189.624028 C948.48417,186.936534 903.82656,177.815341 864.508447,169.834296 C784.335094,153.465012 720.908344,140.516175 611.610463,186.203581 C482.815328,240.116348 268.830949,404.542145 218.995646,586.314496" id="path-7"></path>
        <path d="M893.133695,1483.19269 C855.233766,1483.04241 820.842833,1476.04698 784.054519,1468.53909 C743.571087,1460.15397 697.581908,1450.87336 639.852533,1449.24518 C527.389557,1441.26711 428.043214,1358.71851 364.322291,1290.8235 C281.007387,1201.84359 222.30641,1100.32672 195.020577,1034.95538 C144.983054,914.633055 155.67068,851.703989 170.325683,764.840712 C176.155297,730.73039 182.713613,692.223989 186.195188,645.251064 C187.490658,626.771248 190.8103,607.558752 196.073146,588.427665 C246.353569,405.501906 461.644463,240.160467 591.353381,185.942151 C646.613266,162.903438 690.193681,154.640436 730.079983,154.192687 L737.020151,154.192687 C774.200918,154.606903 808.518679,161.591807 846.641906,169.33474 C885.910835,177.31281 930.361644,186.349196 985.662013,189.035689 C1097.80112,194.571493 1197.39037,277.364326 1261.11129,345.910605 C1344.02136,434.890513 1402.8033,537.140069 1430.33204,603.244081 C1456.5464,666.335644 1465.52398,714.121401 1466.11939,757.505245 L1466.11939,766.927853 C1465.66346,800.588323 1460.42227,832.017807 1454.70306,866.520406 C1448.71151,902.258905 1441.99126,942.963346 1439.40032,993.111217 C1437.78099,1010.28849 1434.54231,1027.87281 1429.60333,1045.45713 C1378.43228,1231.80206 1163.38428,1398.28322 1034.24213,1452.33872 C979.481205,1475.18754 935.54731,1483.03396 895.618178,1483.19269 L893.133301,1483.19269 M193.889852,649.256414 C190.327185,696.227917 183.76864,735.058779 178.100762,769.249474 C163.364278,855.45887 152.838218,917.897593 202.472639,1037.15799 C268.381968,1195.41207 454.126441,1435.80522 643.757459,1448.99306 C701.893698,1450.62119 748.046422,1460.06433 788.693207,1468.4492 C867.314778,1484.48626 929.499501,1497.02285 1036.46046,1452.41213 C1169.97949,1396.64874 1381.06747,1225.04401 1429.73026,1048.06645 C1434.50747,1030.8897 1437.74626,1013.55013 1439.28468,996.536192 C1441.79474,946.389839 1448.67716,905.605224 1454.66892,869.623587 C1468.19086,788.705608 1478.95983,724.720164 1430.62092,608.634612 C1376.53317,478.628563 1197.59015,206.89394 989.336103,196.799545 C933.790895,194.113133 889.095625,184.995614 849.744355,177.017785 C769.50339,160.655095 706.023152,147.711475 596.633098,193.380475 C467.729349,247.271524 253.564514,411.631081 203.687184,593.330205" id="path-9"></path>
        <path d="M892.394981,1480.40053 C854.526986,1480.2502 820.165031,1473.25195 783.407715,1465.74103 C742.958394,1457.35254 697.007966,1448.06818 639.327234,1446.43935 C526.95902,1438.45806 427.696386,1355.87619 364.029154,1287.95382 C280.784452,1198.93805 222.132936,1097.38026 194.870094,1031.98258 C144.874733,911.611764 155.553354,848.657337 170.196008,761.759053 C176.02071,727.634984 182.5735,689.113065 186.052142,642.121209 C187.34652,623.633945 190.663364,604.413706 195.921776,585.274909 C246.159833,402.275429 461.269322,236.867355 590.868947,182.627189 C646.08227,159.57919 689.625965,151.312858 729.478658,150.864929 L736.412979,150.864929 C773.562416,151.279311 807.851261,158.26703 845.942366,166.013084 C885.178207,173.994369 929.591562,183.034397 984.845334,185.721973 C1096.88995,191.260008 1196.39528,274.086207 1260.06252,342.660111 C1342.90272,431.675879 1401.63514,533.966643 1429.14068,600.097296 C1455.33295,663.214286 1464.30297,711.019302 1464.89788,754.420629 L1464.89788,763.847035 C1464.44233,797.521071 1459.20556,828.963221 1453.49117,863.479725 C1447.50467,899.232627 1440.79008,939.953473 1438.20133,990.121554 C1436.58335,1007.30575 1433.34741,1024.89716 1428.41259,1042.48856 C1377.28465,1228.90859 1162.41785,1395.45685 1033.38452,1449.53413 C978.669734,1472.39216 934.772858,1480.24175 894.877371,1480.40053 L892.394587,1480.40053 M193.740321,646.128173 C190.180657,693.118606 183.627638,731.965117 177.964535,766.169592 C163.240468,852.413732 152.723278,914.877618 202.315877,1034.18608 C268.169671,1192.50394 453.757635,1432.99397 643.22887,1446.18713 C701.316122,1447.81591 747.429958,1457.26286 788.042495,1465.6511 C866.597819,1481.69463 928.730145,1494.23627 1035.60098,1449.60757 C1169.0075,1393.8217 1379.91762,1222.14782 1428.53941,1045.09894 C1433.31259,1027.91526 1436.54865,1010.56871 1438.08578,993.54791 C1440.59372,943.381347 1447.47035,902.580295 1453.45706,866.584157 C1466.9676,785.633567 1477.7275,721.622335 1429.42932,605.49 C1375.38714,475.431556 1196.5949,203.587421 988.516329,193.488957 C933.017923,190.801463 888.360313,181.68027 849.0422,173.699226 C768.868847,157.329941 705.442097,144.381104 596.144216,190.06851 C467.349081,243.981277 253.364702,408.407074 203.529399,590.179425" id="path-11"></path>
        <path d="M892.394981,1480.40053 C854.526986,1480.2502 820.165031,1473.25195 783.407715,1465.74103 C742.958394,1457.35254 697.007966,1448.06818 639.327234,1446.43935 C526.95902,1438.45806 427.696386,1355.87619 364.029154,1287.95382 C280.784452,1198.93805 222.132936,1097.38026 194.870094,1031.98258 C144.874733,911.611764 155.553354,848.657337 170.196008,761.759053 C176.02071,727.634984 182.5735,689.113065 186.052142,642.121209 C187.34652,623.633945 190.663364,604.413706 195.921776,585.274909 C246.159833,402.275429 461.269322,236.867355 590.868947,182.627189 C646.08227,159.57919 689.625965,151.312858 729.478658,150.864929 L736.412979,150.864929 C773.562416,151.279311 807.851261,158.26703 845.942366,166.013084 C885.178207,173.994369 929.591562,183.034397 984.845334,185.721973 C1096.88995,191.260008 1196.39528,274.086207 1260.06252,342.660111 C1342.90272,431.675879 1401.63514,533.966643 1429.14068,600.097296 C1455.33295,663.214286 1464.30297,711.019302 1464.89788,754.420629 L1464.89788,763.847035 C1464.44233,797.521071 1459.20556,828.963221 1453.49117,863.479725 C1447.50467,899.232627 1440.79008,939.953473 1438.20133,990.121554 C1436.58335,1007.30575 1433.34741,1024.89716 1428.41259,1042.48856 C1377.28465,1228.90859 1162.41785,1395.45685 1033.38452,1449.53413 C978.669734,1472.39216 934.772858,1480.24175 894.877371,1480.40053 L892.394587,1480.40053 M193.740321,646.128173 C190.180657,693.118606 183.627638,731.965117 177.964535,766.169592 C163.240468,852.413732 152.723278,914.877618 202.315877,1034.18608 C268.169671,1192.50394 453.757635,1432.99397 643.22887,1446.18713 C701.316122,1447.81591 747.429958,1457.26286 788.042495,1465.6511 C866.597819,1481.69463 928.730145,1494.23627 1035.60098,1449.60757 C1169.0075,1393.8217 1379.91762,1222.14782 1428.53941,1045.09894 C1433.31259,1027.91526 1436.54865,1010.56871 1438.08578,993.54791 C1440.59372,943.381347 1447.47035,902.580295 1453.45706,866.584157 C1466.9676,785.633567 1477.7275,721.622335 1429.42932,605.49 C1375.38714,475.431556 1196.5949,203.587421 988.516329,193.488957 C933.017923,190.801463 888.360313,181.68027 849.0422,173.699226 C768.868847,157.329941 705.442097,144.381104 596.144216,190.06851 C467.349081,243.981277 253.364702,408.407074 203.529399,590.179425" id="path-13"></path>
    </defs>
    <g id="Page-1" stroke="none" stroke-width="1" fill="none" fill-rule="evenodd">
        <g id="Group-38" transform="translate(-147.119390, -147.192687)">
            <mask id="mask-2" fill="white">
                <use xlink:href="#path-1"></use>
            </mask>
            <g id="Clip-2"></g>
            <path d="M208.889852,642.256414 C205.327185,689.227917 198.76864,728.058779 193.100762,762.249474 C178.364278,848.45887 167.838218,910.897593 217.472639,1030.15799 C283.381968,1188.41207 469.126441,1428.80522 658.757459,1441.99306 C716.893698,1443.62119 763.046422,1453.06433 803.693207,1461.4492 C882.314778,1477.48626 944.499501,1490.02285 1051.46046,1445.41213 C1184.97949,1389.64874 1396.06747,1218.04401 1444.73026,1041.06645 C1449.50747,1023.8897 1452.74626,1006.55013 1454.28468,989.536192 C1456.79474,939.389839 1463.67716,898.605224 1469.66892,862.623587 C1483.19086,781.705608 1493.95983,717.720164 1445.62092,601.634612 C1391.53317,471.628563 1212.59015,199.89394 1004.3361,189.799545 C948.790895,187.113133 904.095625,177.995614 864.744355,170.017785 C784.50339,153.655095 721.023152,140.711475 611.633098,186.380475 C482.729349,240.271524 268.564514,404.631081 218.687184,586.330205 C213.505124,605.135088 210.185367,624.021377 208.889852,642.256414 M1049.22061,1445.33676 C941.132503,1490.43654 875.227093,1477.0857 799.039145,1461.53686 C758.556707,1453.15189 712.568657,1443.87143 654.8407,1442.24328 C542.380487,1434.26534 443.036584,1351.71809 379.317226,1283.8242 C296.004369,1194.84576 237.304834,1093.33055 210.01967,1027.96029 C159.983377,907.639946 170.67074,844.711916 185.325383,757.850068 C191.154854,723.740308 197.713009,685.23454 201.194499,638.262388 C202.489937,619.782876 205.809497,600.570696 211.072214,581.439924 C261.351402,398.517176 476.637008,233.178458 606.342739,178.961035 C716.859796,132.884366 780.660118,145.909573 861.624994,162.353896 C900.892959,170.331835 945.342676,179.368072 1000.64169,182.054521 C1112.77804,187.590234 1212.36484,270.381705 1276.0842,338.926855 C1358.99223,427.905299 1417.77273,530.153172 1445.30079,596.256097 C1494.04164,713.564365 1483.19235,777.957731 1469.67121,859.528088 C1463.67981,895.266 1456.95973,935.969771 1454.36885,986.116817 C1452.74956,1003.29381 1449.51096,1020.87784 1444.5721,1038.46187 C1393.4023,1224.80373 1178.35959,1391.28215 1049.22061,1445.33676" id="Fill-1" fill="url(#linearGradient-3)"></path>
            <mask id="mask-5" fill="white">
                <use xlink:href="#path-4"></use>
            </mask>
            <g id="Clip-2" transform="translate(826.915186, 811.767802) rotate(-285.000000) translate(-826.915186, -811.767802) "></g>
            <path d="M209.206568,642.263244 C205.646904,689.253677 199.093885,728.100188 193.430782,762.304663 C178.706716,848.548803 168.189525,911.012689 217.782124,1030.32115 C283.635918,1188.63901 469.223882,1429.12904 658.695117,1442.3222 C716.78237,1443.95098 762.896205,1453.39793 803.508742,1461.78617 C882.064066,1477.8297 944.196392,1490.37134 1051.06723,1445.74264 C1184.47375,1389.95677 1395.38387,1218.28289 1444.00565,1041.23401 C1448.77884,1024.05033 1452.0149,1006.70378 1453.55203,989.682981 C1456.05997,939.516418 1462.9366,898.715366 1468.9233,862.719228 C1482.43385,781.768638 1493.19374,717.757406 1444.89557,601.625071 C1390.85339,471.566627 1212.06115,199.722492 1003.98258,189.624028 C948.48417,186.936534 903.82656,177.815341 864.508447,169.834296 C784.335094,153.465012 720.908344,140.516175 611.610463,186.203581 C482.815328,240.116348 268.830949,404.542145 218.995646,586.314496 C213.817952,605.126957 210.500992,624.020858 209.206568,642.263244 M1048.82927,1445.66724 C940.832231,1490.7852 874.982354,1477.42898 798.858601,1461.87387 C758.410274,1453.48552 712.460973,1444.20132 654.781658,1442.57251 C542.416204,1434.59136 443.156009,1352.01084 379.490341,1284.08959 C296.247683,1195.07529 237.597608,1093.51917 210.335435,1028.12257 C160.341302,907.753729 171.019661,844.800338 185.661955,757.903484 C191.486514,723.779977 198.039144,685.258691 201.5177,638.267609 C202.812046,619.780649 206.128809,600.560726 211.387092,581.422244 C261.623914,398.425776 476.72812,233.020424 606.324562,178.78115 C716.748496,132.685912 780.49506,145.716368 861.391715,162.167319 C900.626593,170.148473 945.038857,179.188352 1000.29127,181.875884 C1112.33314,187.413827 1211.83603,270.238664 1275.50169,338.811439 C1358.33987,427.825743 1417.07084,530.114823 1444.5757,596.244388 C1493.27549,713.599933 1482.43534,778.01925 1468.9256,859.622482 C1462.93924,895.374796 1456.22482,936.094971 1453.63613,986.262227 C1452.01819,1003.44614 1448.78233,1021.03726 1443.84763,1038.62837 C1392.72095,1225.04533 1177.85943,1391.59085 1048.82927,1445.66724" id="Fill-1" fill="url(#linearGradient-6)" transform="translate(826.915186, 811.767802) rotate(-285.000000) translate(-826.915186, -811.767802) "></path>
            <mask id="mask-8" fill="white">
                <use xlink:href="#path-7"></use>
            </mask>
            <g id="Clip-2" transform="translate(826.915186, 811.767802) rotate(-195.000000) translate(-826.915186, -811.767802) "></g>
            <path d="M209.206568,642.263244 C205.646904,689.253677 199.093885,728.100188 193.430782,762.304663 C178.706716,848.548803 168.189525,911.012689 217.782124,1030.32115 C283.635918,1188.63901 469.223882,1429.12904 658.695117,1442.3222 C716.78237,1443.95098 762.896205,1453.39793 803.508742,1461.78617 C882.064066,1477.8297 944.196392,1490.37134 1051.06723,1445.74264 C1184.47375,1389.95677 1395.38387,1218.28289 1444.00565,1041.23401 C1448.77884,1024.05033 1452.0149,1006.70378 1453.55203,989.682981 C1456.05997,939.516418 1462.9366,898.715366 1468.9233,862.719228 C1482.43385,781.768638 1493.19374,717.757406 1444.89557,601.625071 C1390.85339,471.566627 1212.06115,199.722492 1003.98258,189.624028 C948.48417,186.936534 903.82656,177.815341 864.508447,169.834296 C784.335094,153.465012 720.908344,140.516175 611.610463,186.203581 C482.815328,240.116348 268.830949,404.542145 218.995646,586.314496 C213.817952,605.126957 210.500992,624.020858 209.206568,642.263244 M1048.82927,1445.66724 C940.832231,1490.7852 874.982354,1477.42898 798.858601,1461.87387 C758.410274,1453.48552 712.460973,1444.20132 654.781658,1442.57251 C542.416204,1434.59136 443.156009,1352.01084 379.490341,1284.08959 C296.247683,1195.07529 237.597608,1093.51917 210.335435,1028.12257 C160.341302,907.753729 171.019661,844.800338 185.661955,757.903484 C191.486514,723.779977 198.039144,685.258691 201.5177,638.267609 C202.812046,619.780649 206.128809,600.560726 211.387092,581.422244 C261.623914,398.425776 476.72812,233.020424 606.324562,178.78115 C716.748496,132.685912 780.49506,145.716368 861.391715,162.167319 C900.626593,170.148473 945.038857,179.188352 1000.29127,181.875884 C1112.33314,187.413827 1211.83603,270.238664 1275.50169,338.811439 C1358.33987,427.825743 1417.07084,530.114823 1444.5757,596.244388 C1493.27549,713.599933 1482.43534,778.01925 1468.9256,859.622482 C1462.93924,895.374796 1456.22482,936.094971 1453.63613,986.262227 C1452.01819,1003.44614 1448.78233,1021.03726 1443.84763,1038.62837 C1392.72095,1225.04533 1177.85943,1391.59085 1048.82927,1445.66724" id="Fill-1" fill="url(#linearGradient-6)" transform="translate(826.915186, 811.767802) rotate(-195.000000) translate(-826.915186, -811.767802) "></path>
            <mask id="mask-10" fill="white">
                <use xlink:href="#path-9"></use>
            </mask>
            <g id="Clip-2" transform="translate(812.119390, 818.692687) rotate(-270.000000) translate(-812.119390, -818.692687) "></g>
            <path d="M193.889852,649.256414 C190.327185,696.227917 183.76864,735.058779 178.100762,769.249474 C163.364278,855.45887 152.838218,917.897593 202.472639,1037.15799 C268.381968,1195.41207 454.126441,1435.80522 643.757459,1448.99306 C701.893698,1450.62119 748.046422,1460.06433 788.693207,1468.4492 C867.314778,1484.48626 929.499501,1497.02285 1036.46046,1452.41213 C1169.97949,1396.64874 1381.06747,1225.04401 1429.73026,1048.06645 C1434.50747,1030.8897 1437.74626,1013.55013 1439.28468,996.536192 C1441.79474,946.389839 1448.67716,905.605224 1454.66892,869.623587 C1468.19086,788.705608 1478.95983,724.720164 1430.62092,608.634612 C1376.53317,478.628563 1197.59015,206.89394 989.336103,196.799545 C933.790895,194.113133 889.095625,184.995614 849.744355,177.017785 C769.50339,160.655095 706.023152,147.711475 596.633098,193.380475 C467.729349,247.271524 253.564514,411.631081 203.687184,593.330205 C198.505124,612.135088 195.185367,631.021377 193.889852,649.256414 M1034.22061,1452.33676 C926.132503,1497.43654 860.227093,1484.0857 784.039145,1468.53686 C743.556707,1460.15189 697.568657,1450.87143 639.8407,1449.24328 C527.380487,1441.26534 428.036584,1358.71809 364.317226,1290.8242 C281.004369,1201.84576 222.304834,1100.33055 195.01967,1034.96029 C144.983377,914.639946 155.67074,851.711916 170.325383,764.850068 C176.154854,730.740308 182.713009,692.23454 186.194499,645.262388 C187.489937,626.782876 190.809497,607.570696 196.072214,588.439924 C246.351402,405.517176 461.637008,240.178458 591.342739,185.961035 C701.859796,139.884366 765.660118,152.909573 846.624994,169.353896 C885.892959,177.331835 930.342676,186.368072 985.641687,189.054521 C1097.77804,194.590234 1197.36484,277.381705 1261.0842,345.926855 C1343.99223,434.905299 1402.77273,537.153172 1430.30079,603.256097 C1479.04164,720.564365 1468.19235,784.957731 1454.67121,866.528088 C1448.67981,902.266 1441.95973,942.969771 1439.36885,993.116817 C1437.74956,1010.29381 1434.51096,1027.87784 1429.5721,1045.46187 C1378.4023,1231.80373 1163.35959,1398.28215 1034.22061,1452.33676" id="Fill-1" fill="url(#linearGradient-3)" opacity="0.619117374" transform="translate(812.119390, 818.692687) rotate(-270.000000) translate(-812.119390, -818.692687) "></path>
            <mask id="mask-12" fill="white">
                <use xlink:href="#path-11"></use>
            </mask>
            <g id="Clip-2" transform="translate(811.448939, 815.632731) rotate(-555.000000) translate(-811.448939, -815.632731) "></g>
            <path d="M193.740321,646.128173 C190.180657,693.118606 183.627638,731.965117 177.964535,766.169592 C163.240468,852.413732 152.723278,914.877618 202.315877,1034.18608 C268.169671,1192.50394 453.757635,1432.99397 643.22887,1446.18713 C701.316122,1447.81591 747.429958,1457.26286 788.042495,1465.6511 C866.597819,1481.69463 928.730145,1494.23627 1035.60098,1449.60757 C1169.0075,1393.8217 1379.91762,1222.14782 1428.53941,1045.09894 C1433.31259,1027.91526 1436.54865,1010.56871 1438.08578,993.54791 C1440.59372,943.381347 1447.47035,902.580295 1453.45706,866.584157 C1466.9676,785.633567 1477.7275,721.622335 1429.42932,605.49 C1375.38714,475.431556 1196.5949,203.587421 988.516329,193.488957 C933.017923,190.801463 888.360313,181.68027 849.0422,173.699226 C768.868847,157.329941 705.442097,144.381104 596.144216,190.06851 C467.349081,243.981277 253.364702,408.407074 203.529399,590.179425 C198.351705,608.991886 195.034745,627.885787 193.740321,646.128173 M1033.36302,1449.53217 C925.365984,1494.65013 859.516106,1481.29391 783.392354,1465.7388 C742.944026,1457.35045 696.994726,1448.06625 639.315411,1446.43744 C526.949957,1438.45629 427.689761,1355.87577 364.024094,1287.95452 C280.781436,1198.94022 222.131361,1097.3841 194.869188,1031.9875 C144.875055,911.618658 155.553414,848.665267 170.195708,761.768413 C176.020267,727.644906 182.572896,689.12362 186.051453,642.132538 C187.345799,623.645578 190.662562,604.425655 195.920845,585.287173 C246.157667,402.290705 461.261873,236.885353 590.858315,182.646079 C701.282249,136.550841 765.028813,149.581297 845.925468,166.032248 C885.160346,174.013402 929.57261,183.053281 984.825025,185.740813 C1096.86689,191.278757 1196.36978,274.103593 1260.03545,342.676368 C1342.87362,431.690672 1401.60459,533.979752 1429.10946,600.109317 C1477.80924,717.464862 1466.96909,781.884179 1453.45935,863.487411 C1447.473,899.239725 1440.75857,939.9599 1438.16988,990.127156 C1436.55195,1007.31107 1433.31608,1024.90219 1428.38139,1042.4933 C1377.2547,1228.91026 1162.39318,1395.45578 1033.36302,1449.53217" id="Fill-1" fill="url(#linearGradient-6)" opacity="0.530831473" transform="translate(811.448939, 815.632731) rotate(-555.000000) translate(-811.448939, -815.632731) "></path>
            <mask id="mask-14" fill="white">
                <use xlink:href="#path-13"></use>
            </mask>
            <g id="Clip-2" opacity="0.689964658" transform="translate(811.448939, 815.632731) rotate(-465.000000) translate(-811.448939, -815.632731) "></g>
            <path d="M193.740321,646.128173 C190.180657,693.118606 183.627638,731.965117 177.964535,766.169592 C163.240468,852.413732 152.723278,914.877618 202.315877,1034.18608 C268.169671,1192.50394 453.757635,1432.99397 643.22887,1446.18713 C701.316122,1447.81591 747.429958,1457.26286 788.042495,1465.6511 C866.597819,1481.69463 928.730145,1494.23627 1035.60098,1449.60757 C1169.0075,1393.8217 1379.91762,1222.14782 1428.53941,1045.09894 C1433.31259,1027.91526 1436.54865,1010.56871 1438.08578,993.54791 C1440.59372,943.381347 1447.47035,902.580295 1453.45706,866.584157 C1466.9676,785.633567 1477.7275,721.622335 1429.42932,605.49 C1375.38714,475.431556 1196.5949,203.587421 988.516329,193.488957 C933.017923,190.801463 888.360313,181.68027 849.0422,173.699226 C768.868847,157.329941 705.442097,144.381104 596.144216,190.06851 C467.349081,243.981277 253.364702,408.407074 203.529399,590.179425 C198.351705,608.991886 195.034745,627.885787 193.740321,646.128173 M1033.36302,1449.53217 C925.365984,1494.65013 859.516106,1481.29391 783.392354,1465.7388 C742.944026,1457.35045 696.994726,1448.06625 639.315411,1446.43744 C526.949957,1438.45629 427.689761,1355.87577 364.024094,1287.95452 C280.781436,1198.94022 222.131361,1097.3841 194.869188,1031.9875 C144.875055,911.618658 155.553414,848.665267 170.195708,761.768413 C176.020267,727.644906 182.572896,689.12362 186.051453,642.132538 C187.345799,623.645578 190.662562,604.425655 195.920845,585.287173 C246.157667,402.290705 461.261873,236.885353 590.858315,182.646079 C701.282249,136.550841 765.028813,149.581297 845.925468,166.032248 C885.160346,174.013402 929.57261,183.053281 984.825025,185.740813 C1096.86689,191.278757 1196.36978,274.103593 1260.03545,342.676368 C1342.87362,431.690672 1401.60459,533.979752 1429.10946,600.109317 C1477.80924,717.464862 1466.96909,781.884179 1453.45935,863.487411 C1447.473,899.239725 1440.75857,939.9599 1438.16988,990.127156 C1436.55195,1007.31107 1433.31608,1024.90219 1428.38139,1042.4933 C1377.2547,1228.91026 1162.39318,1395.45578 1033.36302,1449.53217" id="Fill-1" fill="url(#linearGradient-6)" transform="translate(811.448939, 815.632731) rotate(-465.000000) translate(-811.448939, -815.632731) "></path>
        </g>
    </g>
</svg>