<?xml version="1.0" encoding="UTF-8"?>
<svg width="122px" height="33px" viewBox="0 0 122 33" version="1.1" xmlns="http://www.w3.org/2000/svg" xmlns:xlink="http://www.w3.org/1999/xlink">
    <!-- Generator: Sketch 55.2 (78181) - https://sketchapp.com -->
    <title>Group 23@2x</title>
    <desc>Created with Sketch.</desc>
    <defs>
        <polygon id="path-1" points="0 0.268984911 14.7105616 0.268984911 14.7105616 14.7368421 0 14.7368421"></polygon>
        <polygon id="path-3" points="0.810205612 0.268984911 15.5214063 0.268984911 15.5214063 14.7368421 0.810205612 14.7368421"></polygon>
        <polygon id="path-5" points="0.924983023 1.74078947 24.6254436 1.74078947 24.6254436 25.30385 0.924983023 25.30385"></polygon>
        <polygon id="path-7" points="0 33.2595789 121.910776 33.2595789 121.910776 1.84247368 0 1.84247368"></polygon>
    </defs>
    <g id="Page-1" stroke="none" stroke-width="1" fill="none" fill-rule="evenodd">
        <g id="team-page-copy" transform="translate(-424.000000, -10807.000000)">
            <g id="Group-23" transform="translate(424.000000, 10806.000000)">
                <g id="Group-22">
                    <g id="Group-3" transform="translate(0.000000, 18.522737)">
                        <mask id="mask-2" fill="white">
                            <use xlink:href="#path-1"></use>
                        </mask>
                        <g id="Clip-2"></g>
                        <path d="M14.2206478,11.2665 L14.2206478,11.2665 L14.217006,11.2628158 C14.1277821,11.1559737 14.0294537,11.0583421 13.9202,10.9699211 L3.74321493,0.963605263 L3.74139403,0.963605263 C3.34261791,0.532552632 2.76903582,0.261763158 2.12990149,0.269131579 C0.942677612,0.280184211 -0.0114716418,1.23992105 -0.000639164442,2.4115 L-0.000639164442,12.6351842 C0.0122,13.8067632 0.984558209,14.7480789 2.17178209,14.7371227 L12.5800209,14.7371227 C13.7672448,14.7259737 14.721394,13.7662368 14.7105616,12.5928158 C14.705006,12.0899211 14.5229164,11.6275526 14.2206478,11.2665" id="Fill-1" fill="#24BFDA" mask="url(#mask-2)"></path>
                    </g>
                    <g id="Group-6" transform="translate(20.029851, 18.522737)">
                        <mask id="mask-4" fill="white">
                            <use xlink:href="#path-3"></use>
                        </mask>
                        <g id="Clip-5"></g>
                        <path d="M1.3001194,11.2665 L1.3001194,11.2665 L1.30376119,11.2628158 C1.39298507,11.1559737 1.49131343,11.0583421 1.60056716,10.9699211 L11.7775522,0.963605263 L11.7793731,0.963605263 C12.1781493,0.532552632 12.7517313,0.261763158 13.3908657,0.269131579 C14.5780896,0.280184211 15.5322388,1.23992105 15.5214063,2.4115 L15.5214063,12.6351842 C15.5085672,13.8067632 14.536209,14.7480789 13.3489851,14.7371227 L2.94074627,14.7371227 C1.75352239,14.7259737 0.799373134,13.7662368 0.810205612,12.5928158 C0.815761194,12.0899211 0.999671642,11.6275526 1.3001194,11.2665" id="Fill-4" fill="#696CB2" mask="url(#mask-4)"></path>
                    </g>
                    <path d="M21.8166955,15.2036316 L10.3905761,3.89126316 L10.3905761,3.89126316 C10.304994,3.79363158 10.217591,3.69784211 10.1265463,3.60573684 L10.1265463,3.60573684 C9.44371045,2.91310526 8.58242687,2.37705263 7.58093433,2.08415789 C4.44899403,1.16494737 1.16409851,2.94994737 0.242725373,6.07047368 C-0.358170149,8.10415789 0.193561194,10.2041579 1.51735224,11.6723158 C1.66302388,11.8344211 1.8178,11.9891579 1.9816806,12.1346842 L13.5188746,23.5833684 C14.208994,24.3054737 15.0921284,24.8617895 16.1191134,25.1638947 C19.2510537,26.0831053 22.5359493,24.2981053 23.4591433,21.1775789 C24.1128448,18.9652105 23.4008746,16.6754737 21.8166955,15.2036316" id="Fill-7" fill="#FAB217"></path>
                    <g id="Group-11" transform="translate(10.925373, 0.101684)">
                        <mask id="mask-6" fill="white">
                            <use xlink:href="#path-5"></use>
                        </mask>
                        <g id="Clip-10"></g>
                        <path d="M23.1071642,11.5715526 C24.4309552,10.1015526 24.9845075,8.00339474 24.3836119,5.96786842 C23.4622388,2.84734211 20.1755224,1.06234211 17.0435821,1.98155263 C16.0439104,2.27628947 15.180806,2.8105 14.4979701,3.50313158 C14.4069254,3.59707895 14.3195224,3.69286842 14.2357612,3.7905 L2.8078209,15.1028684 C1.22364179,16.5747105 0.513492537,18.8644474 1.16719403,21.0749737 C2.08856716,24.1955 5.37528358,25.9805 8.50540299,25.0631316 C9.53420896,24.7610263 10.4173433,24.2028684 11.1074627,23.4826053 L22.6428358,12.0320789 C22.8067164,11.8865526 22.9614925,11.7336579 23.1071642,11.5715526" id="Fill-9" fill="#F05C5F" mask="url(#mask-6)"></path>
                    </g>
                    <path d="M52.0648657,19.4922368 L59.6088358,19.4922368 C59.2209851,17.5672368 57.6094925,16.6535526 55.9652239,16.6535526 C54.3209552,16.6535526 52.4836716,17.5027632 52.0648657,19.4922368 M56.0945075,12.9693421 C60.3171642,12.9693421 64.0245075,15.7085526 64.0245075,20.9917105 C64.0245075,21.3822368 64.0245075,21.8409211 63.9607761,22.5243421 L51.902806,22.5243421 C52.1613731,24.7109211 54.064209,25.9156579 56.1910149,25.9156579 C58.1903582,25.9156579 59.6416119,24.9706579 60.3499403,23.8617105 L63.6384776,26.3393421 C62.1544478,28.5259211 59.5432836,29.9922368 56.1582388,29.9922368 C51.3565373,29.9922368 47.6164179,26.6340789 47.6164179,21.4817105 C47.6164179,16.6535526 51.1944776,12.9693421 56.0945075,12.9693421" id="Fill-12" fill="#FFFFFF"></path>
                    <path d="M65.6207045,13.3274474 L70.038197,13.3274474 L70.038197,15.1879737 C70.875809,13.8819211 72.5510328,12.9700789 74.6468836,12.9700789 C78.5472418,12.9700789 80.8688836,15.8400789 80.8688836,20.0769211 L80.8688836,29.6337632 L76.4532119,29.6337632 L76.4532119,20.8285 C76.4532119,18.4798158 75.4535403,17.0448158 73.6162567,17.0448158 C71.5841373,17.0448158 70.038197,18.5461316 70.038197,21.6758684 L70.038197,29.6337632 L65.6207045,29.6337632 L65.6207045,13.3274474 Z" id="Fill-14" fill="#FFFFFF"></path>
                    <polygon id="Fill-16" fill="#FFFFFF" points="81.2044746 13.3274474 86.0717284 13.3274474 90.3271612 23.7629737 94.582594 13.3274474 99.5154 13.3274474 92.3592806 29.6337632 88.3296388 29.6337632"></polygon>
                    <path d="M103.468746,19.4922368 L111.012716,19.4922368 C110.624866,17.5672368 109.013373,16.6535526 107.369104,16.6535526 C105.724836,16.6535526 103.887552,17.5027632 103.468746,19.4922368 M107.498388,12.9693421 C111.721045,12.9693421 115.428388,15.7085526 115.428388,20.9917105 C115.428388,21.3822368 115.428388,21.8409211 115.364657,22.5243421 L103.306687,22.5243421 C103.565254,24.7109211 105.46809,25.9156579 107.594896,25.9156579 C109.594239,25.9156579 111.045493,24.9706579 111.753821,23.8617105 L115.042358,26.3393421 C113.558328,28.5259211 110.947164,29.9922368 107.562119,29.9922368 C102.760418,29.9922368 99.0202985,26.6340789 99.0202985,21.4817105 C99.0202985,16.6535526 102.598358,12.9693421 107.498388,12.9693421" id="Fill-18" fill="#FFFFFF"></path>
                    <mask id="mask-8" fill="white">
                        <use xlink:href="#path-7"></use>
                    </mask>
                    <g id="Clip-21"></g>
                    <polygon id="Fill-20" fill="#FFFFFF" mask="url(#mask-8)" points="117.493284 29.5698421 121.910776 29.5698421 121.910776 5.11036842 117.493284 5.11036842"></polygon>
                </g>
            </g>
        </g>
    </g>
</svg>