<?xml version="1.0" encoding="UTF-8"?>
<svg width="159px" height="40px" viewBox="0 0 159 40" version="1.1" xmlns="http://www.w3.org/2000/svg" xmlns:xlink="http://www.w3.org/1999/xlink">
    <!-- Generator: Sketch 55.2 (78181) - https://sketchapp.com -->
    <title>Group 35@2x</title>
    <desc>Created with Sketch.</desc>
    <defs>
        <path d="M34.4324581,0.035956044 C33.5250116,0.035956044 32.6023248,0.163604396 31.6884338,0.431120879 L31.6884338,0.431120879 C30.0816787,0.901714286 28.645614,1.76641758 27.4896212,2.9381978 L27.4896212,2.9381978 C27.3758856,3.05362637 27.2655464,3.17151648 27.1577327,3.29230769 L27.1577327,3.29230769 L22.0973683,8.29116484 L17.0368298,3.29221978 C16.9291903,3.17134066 16.8190253,3.0538022 16.7061605,2.93925275 L16.7061605,2.93925275 C16.6974518,2.93046154 16.688656,2.92158242 16.6799473,2.91296703 L16.6799473,2.91296703 C15.5283088,1.75393407 14.1013883,0.898285714 12.5063028,0.431296703 L12.5063028,0.431296703 C7.35702269,-1.0763956 1.94160467,1.85898901 0.412705294,7.02312088 L0.412705294,7.02312088 C-0.563801239,10.3210549 0.271798527,13.8327912 2.5302257,16.3337143 L2.5302257,16.3337143 C2.74715942,16.573978 2.97593697,16.8031648 3.21568748,17.0205714 L3.21568748,17.0205714 L4.0917827,17.8884396 C1.71404634,18.6408791 -0.015501486,20.8723516 0.0099919077,23.5202637 L0.0099919077,23.5202637 L0.0099919077,34.0877363 C0.0418888471,37.3723956 2.70352883,39.9433846 5.91190101,39.9133205 L5.91190101,39.9133205 L16.6969293,39.9133205 C19.1446836,39.8901978 21.2334653,38.3906813 22.0973683,36.2594286 L22.0973683,36.2594286 C22.9612714,38.3906813 25.0498789,39.8901978 27.4978074,39.9133205 L27.4978074,39.9133205 L38.2828357,39.9133205 C41.4911207,39.9433846 44.1528478,37.3723956 44.1846596,34.0877363 L44.1846596,34.0877363 L44.1846596,23.5202637 C44.2102382,20.8723516 42.4806903,18.6408791 40.1027798,17.8884396 L40.1027798,17.8884396 L40.9792234,17.0203077 C41.2195835,16.8024615 41.448361,16.5731868 41.6649464,16.3332747 L41.6649464,16.3332747 C43.9229381,13.8321758 44.7584508,10.3207033 43.7818572,7.02294505 L43.7818572,7.02294505 C42.524408,2.77582418 38.6379764,0.035956044 34.4328936,0.035956044 L34.4328936,0.035956044 C34.4326323,0.035956044 34.4328065,0.035956044 34.4324581,0.035956044 L34.4324581,0.035956044 Z M28.7874788,14.900044 L27.2594503,13.3905934 L32.299175,8.41213187 C32.3673641,8.34479121 32.4329406,8.27472527 32.4956432,8.20202198 L32.4956432,8.20202198 C32.534397,8.15727473 32.5714089,8.11701099 32.6070275,8.08087912 L32.6070275,8.08087912 C32.9046038,7.77925275 33.2744623,7.55648352 33.7000564,7.43191209 L33.7000564,7.43191209 C35.0600941,7.03367033 36.4756933,7.80105495 36.8634046,9.11041758 L36.8634046,9.11041758 C37.1051582,9.92659341 36.8996328,10.7901538 36.3281679,11.4231209 L36.3281679,11.4231209 L36.3270358,11.4241758 C36.2670329,11.4908132 36.2015434,11.5554286 36.1309159,11.6181978 L36.1309159,11.6181978 C36.081015,11.6624176 36.0324205,11.7078681 35.9851322,11.7548132 L35.9851322,11.7548132 L30.5567383,17.1315165 C30.0849009,16.3150769 29.4916643,15.5616703 28.7874788,14.900044 L28.7874788,14.900044 Z M8.20934316,11.7547253 C8.16161948,11.7073407 8.11241533,11.6612747 8.06207904,11.6167912 L8.06207904,11.6167912 C7.9933674,11.5557802 7.92805215,11.4910769 7.86648164,11.4229451 L7.86648164,11.4229451 C7.29510383,10.7901538 7.08957851,9.92659341 7.33115785,9.11059341 L7.33115785,9.11059341 C7.71895626,7.80105495 9.13446836,7.03367033 10.4946802,7.432 L10.4946802,7.432 C10.9201873,7.55648352 11.2899587,7.77907692 11.5883188,8.08167033 L11.5883188,8.08167033 C11.5920635,8.08545055 11.5959824,8.08940659 11.5997272,8.09318681 L11.5997272,8.09318681 C11.6314268,8.12597802 11.664607,8.16210989 11.6989193,8.20184615 L11.6989193,8.20184615 C11.7589222,8.27147253 11.8216248,8.33881319 11.8869401,8.40369231 L11.8869401,8.40369231 L16.9352864,13.3905934 L15.4071708,14.9002198 C14.7030724,15.5618462 14.1099229,16.3150769 13.6381726,17.1315165 L13.6381726,17.1315165 L8.20934316,11.7547253 Z M21.3819486,24.3710769 C20.9456428,24.2433407 20.5677723,24.012044 20.2650578,23.6967033 L20.2650578,23.6967033 L20.2007876,23.6313846 L20.0528268,23.485011 C19.8746468,23.2527473 19.7360043,22.9864615 19.6490044,22.6927473 L19.6490044,22.6927473 C19.3860017,21.804044 19.6560585,20.858022 20.339256,20.2243516 L20.339256,20.2243516 C20.3670367,20.1984176 20.3945562,20.1721319 20.4216403,20.1454066 L20.4216403,20.1454066 L22.0973683,18.4899341 L23.7601204,20.1324835 C23.7777991,20.1501538 23.795739,20.1675604 23.8140273,20.1850549 L23.8140273,20.1850549 C23.8304867,20.2007912 23.8468591,20.2162637 23.8635798,20.2315604 L23.8635798,20.2315604 C24.5408554,20.8654066 24.80769,21.8073846 24.5453839,22.6927473 L24.5453839,22.6927473 C24.4585582,22.9866374 24.3197415,23.2530989 24.1416486,23.4850989 L24.1416486,23.4850989 L23.993949,23.6313846 L23.9296788,23.6967033 C23.6269644,24.012044 23.2489197,24.2433407 22.8129622,24.3709011 L22.8129622,24.3709011 C22.5730375,24.4413187 22.3316324,24.4752527 22.0942332,24.4764835 L22.0942332,24.4764835 C21.8590112,24.4747253 21.619609,24.4406154 21.3819486,24.3710769 L21.3819486,24.3710769 Z M36.9637289,26.789978 L36.963903,32.6239121 L31.0176027,32.6239121 L36.9637289,26.789978 Z M7.23083362,26.789978 L13.1769598,32.6239121 L7.23083362,32.6239121 L7.23083362,26.789978 Z M22.1437852,31.767033 C22.1695954,31.767033 22.1955659,31.767033 22.221376,31.767033 L22.221376,31.767033 C22.1923596,31.8242444 22.1638242,31.8814559 22.1362506,31.939076 L22.1362506,31.939076 C22.108677,31.8815921 22.0801415,31.8242444 22.0511251,31.767033 L22.0511251,31.767033 C22.0663547,31.7673054 22.081905,31.7673054 22.0974552,31.7673054 L22.0974552,31.7673054 C22.1126848,31.7673054 22.128235,31.7673054 22.1437852,31.767033 L22.1437852,31.767033 Z" id="path-1"></path>
    </defs>
    <g id="Page-1" stroke="none" stroke-width="1" fill="none" fill-rule="evenodd">
        <g id="team-page-copy" transform="translate(-377.000000, -42.000000)">
            <g id="Group-35" transform="translate(377.000000, 42.000000)">
                <path d="M69.6992936,21.4673048 C69.608119,19.1483723 68.1488965,16.8761663 64.682373,16.8761663 C61.535433,16.8761663 59.8021713,19.3375965 59.6654524,21.4673048 L69.6992936,21.4673048 Z M75.3549516,29.0869218 C74.2147971,33.1099419 70.657099,36.4705882 65.1386754,36.4705882 C58.9811706,36.4705882 53.5539216,31.8794497 53.5539216,24.022812 C53.5539216,16.59233 58.8443658,11.7647059 64.5911984,11.7647059 C71.5237299,11.7647059 75.6740196,16.3558444 75.6740196,23.8335879 C75.6740196,24.7328931 75.5828451,25.6794599 75.5828451,25.774072 L59.5286476,25.774072 C59.6654524,28.8504362 62.1736549,31.0747565 65.1843057,31.0747565 C68.0116621,31.0747565 69.5625747,29.6078679 70.2924008,27.5254211 L75.3549516,29.0869218 Z" id="Fill-1" fill="#FFFFFF"></path>
                <path d="M85.3744914,35.2941176 L79.1666667,35.2941176 L79.1666667,12.3706014 L85.1873642,12.3706014 L85.1873642,15.2128327 C86.587829,12.8363035 89.3416252,11.7647059 91.8150822,11.7647059 C97.5091863,11.7647059 100.122549,15.8182015 100.122549,20.8501543 L100.122549,35.2941176 L93.9152519,35.2941176 L93.9152519,21.9222787 C93.9152519,19.3594687 92.6552204,17.3560279 89.6682186,17.3560279 C86.9610284,17.3560279 85.3744914,19.4526091 85.3744914,22.1085595 L85.3744914,35.2941176 Z" id="Fill-3" fill="#FFFFFF"></path>
                <polygon id="Fill-5" fill="#FFFFFF" points="116.8407 35.2941176 110.647255 35.2941176 101.286765 11.7647059 108.085788 11.7647059 113.767273 27.5464625 119.215985 11.7647059 125.735294 11.7647059"></polygon>
                <path d="M141.880666,21.4673048 C141.789492,19.1483723 140.330269,16.8761663 136.863746,16.8761663 C133.716806,16.8761663 131.983544,19.3375965 131.846825,21.4673048 L141.880666,21.4673048 Z M147.536324,29.0869218 C146.39617,33.1099419 142.838472,36.4705882 137.320048,36.4705882 C131.162543,36.4705882 125.735294,31.8794497 125.735294,24.022812 C125.735294,16.59233 131.025738,11.7647059 136.772571,11.7647059 C143.705102,11.7647059 147.855392,16.3558444 147.855392,23.8335879 C147.855392,24.7328931 147.764218,25.6794599 147.764218,25.774072 L131.71002,25.774072 C131.846825,28.8504362 134.355027,31.0747565 137.365678,31.0747565 C140.193035,31.0747565 141.743861,29.6078679 142.473773,27.5254211 L147.536324,29.0869218 Z" id="Fill-7" fill="#FFFFFF"></path>
                <polygon id="Fill-9" fill="#FFFFFF" points="152.512255 35.2941176 158.333333 35.2941176 158.333333 4.70588235 152.512255 4.70588235"></polygon>
                <g id="Group-14">
                    <mask id="mask-2" fill="white">
                        <use xlink:href="#path-1"></use>
                    </mask>
                    <g id="Clip-13"></g>
                    <polygon id="Fill-12" fill="#FFFFFF" mask="url(#mask-2)" points="-2.11377567 42.0571429 46.3085123 42.0571429 46.3085123 -2.10795604 -2.11377567 -2.10795604"></polygon>
                </g>
                <g id="Group-23" transform="translate(3.492647, 3.529412)">
                    <path d="M14.9282491,29.2761341 L14.9285115,29.2756028 L14.9252757,29.2724149 C14.8318761,29.1606629 14.7277198,29.057766 14.6140311,28.9661151 L3.99131179,18.5118077 L3.98921292,18.5126047 C3.57354966,18.0616116 2.97432293,17.7792207 2.3083697,17.7853194 C1.06802633,17.7971967 0.0723759551,18.7997774 0.0841640828,20.0246224 L0.0841640828,30.705179 C0.0961631225,31.930024 1.11122802,32.9134775 2.35139648,32.9018049 L13.2156605,32.9018049 C14.455829,32.8900114 15.4514793,31.8874307 15.4396912,30.6624972 C15.4345135,30.1355269 15.2428169,29.6537179 14.9282491,29.2761341" id="Fill-15" fill="#1FBFDB"></path>
                    <path d="M22.3491807,29.2761341 L22.3489183,29.2756028 L22.3521541,29.2724149 C22.4455537,29.1606629 22.54971,29.057766 22.6633987,28.9661151 L33.286118,18.5118077 L33.2882169,18.5126047 C33.7038801,18.0616116 34.3031069,17.7792207 34.9690601,17.7853194 C36.2094035,17.7971967 37.2050539,18.7997774 37.1932657,20.0246224 L37.1932657,30.705179 C37.1812667,31.930024 36.1662018,32.9134775 34.9260333,32.9018049 L24.0617693,32.9018049 C22.8216008,32.8900114 21.8259505,31.8874307 21.8377386,30.6624972 C21.8429163,30.1355269 22.0346129,29.6537179 22.3491807,29.2761341" id="Fill-17" fill="#696CB1"></path>
                    <path d="M22.8572729,14.0372979 L10.9298449,2.21885389 L10.92967,2.21867679 C10.8414301,2.11622264 10.7499544,2.01624794 10.6548932,1.91954965 L10.6547183,1.91954965 C9.94276489,1.19546363 9.04208828,0.636437698 7.99728942,0.329518027 C4.72900258,-0.63029222 1.29919037,1.23451486 0.336859523,4.49480582 C-0.290527018,6.61995446 0.286311792,8.81311069 1.66885345,10.3487717 C1.820759,10.5174624 1.98237181,10.6781834 2.15325463,10.8300493 L14.1949834,22.7931866 C14.915857,23.5464061 15.8369976,24.1282783 16.910481,24.4435218 C20.1789427,25.4034206 23.6086675,23.5387906 24.5709109,20.2784997 C25.2531304,17.9671271 24.5110932,15.5759696 22.8572729,14.0372979" id="Fill-19" fill="#FCB315"></path>
                    <path d="M35.6085851,10.3487451 C36.9911268,8.81308412 37.5679656,6.61992789 36.940579,4.49477925 C35.9782482,1.2344883 32.548436,-0.630318786 29.2799742,0.329580013 C28.2353503,0.636411132 27.3346737,1.19552562 26.6225453,1.91952309 C26.5273092,2.01639848 26.435921,2.11637318 26.3476811,2.21882732 L14.4201657,14.0374485 C12.7664328,15.5761202 12.0243082,17.9672777 12.7064402,20.2784731 C13.6688585,23.5387641 17.0984958,25.4033941 20.367045,24.4435838 C21.4403535,24.1284288 22.361669,23.5463795 23.0824551,22.79316 L35.124009,10.8301999 C35.2948918,10.6781569 35.4566796,10.5176129 35.6085851,10.3487451" id="Fill-21" fill="#F05A5F"></path>
                </g>
            </g>
        </g>
    </g>
</svg>