<?xml version="1.0" encoding="UTF-8"?>
<svg width="387px" height="306px" viewBox="0 0 387 306" version="1.1" xmlns="http://www.w3.org/2000/svg" xmlns:xlink="http://www.w3.org/1999/xlink">
    <!-- Generator: Sketch 55.2 (78181) - https://sketchapp.com -->
    <title>emergency copy@2x</title>
    <desc>Created with Sketch.</desc>
    <defs>
        <rect id="path-1" x="1" y="225" width="349" height="60" rx="8"></rect>
        <filter x="-3.0%" y="-17.5%" width="106.0%" height="135.0%" filterUnits="objectBoundingBox" id="filter-2">
            <feOffset dx="0" dy="0" in="SourceAlpha" result="shadowOffsetOuter1"></feOffset>
            <feGaussianBlur stdDeviation="3.5" in="shadowOffsetOuter1" result="shadowBlurOuter1"></feGaussianBlur>
            <feColorMatrix values="0 0 0 0 0.830649546   0 0 0 0 0.831827233   0 0 0 0 0.832801871  0 0 0 0.5 0" type="matrix" in="shadowBlurOuter1"></feColorMatrix>
        </filter>
        <rect id="path-3" x="0" y="0" width="355" height="166" rx="8"></rect>
        <filter x="-7.0%" y="-13.9%" width="114.1%" height="130.1%" filterUnits="objectBoundingBox" id="filter-4">
            <feOffset dx="0" dy="2" in="SourceAlpha" result="shadowOffsetOuter1"></feOffset>
            <feGaussianBlur stdDeviation="8" in="shadowOffsetOuter1" result="shadowBlurOuter1"></feGaussianBlur>
            <feColorMatrix values="0 0 0 0 0.606797406   0 0 0 0 0.606797406   0 0 0 0 0.606797406  0 0 0 0.5 0" type="matrix" in="shadowBlurOuter1"></feColorMatrix>
        </filter>
    </defs>
    <g id="break-the-vault" stroke="none" stroke-width="1" fill="none" fill-rule="evenodd">
        <g id="emergency-copy" transform="translate(16.000000, 14.000000)">
            <g id="Rectangle-Copy-14">
                <use fill="black" fill-opacity="1" filter="url(#filter-2)" xlink:href="#path-1"></use>
                <use fill="#FFFFFF" fill-rule="evenodd" xlink:href="#path-1"></use>
            </g>
            <path d="M83.112,271.034 C83.2800008,271.034 83.4106662,271.076 83.504,271.16 C83.5973338,271.244 83.644,271.360666 83.644,271.51 C83.644,271.836668 83.4666684,272 83.112,272 L77.624,272 C77.4653325,272 77.3346672,271.951 77.232,271.853 C77.1293328,271.755 77.078,271.636001 77.078,271.496 C77.078,271.318666 77.1433327,271.164667 77.274,271.034 L80.648,267.324 C81.114669,266.801331 81.452999,266.332335 81.663,265.917 C81.873001,265.501665 81.978,265.084002 81.978,264.664 C81.978,264.122664 81.8216682,263.707335 81.509,263.418 C81.1963318,263.128665 80.7553362,262.984 80.186,262.984 C79.7379978,262.984 79.3086687,263.065666 78.898,263.229 C78.4873313,263.392334 78.0766687,263.641998 77.666,263.978 C77.5259993,264.090001 77.3953339,264.146 77.274,264.146 C77.1713328,264.146 77.082667,264.097 77.008,263.999 C76.933333,263.901 76.896,263.782001 76.896,263.642 C76.896,263.445999 76.9706659,263.287334 77.12,263.166 C77.5026686,262.811332 77.9693306,262.531334 78.52,262.326 C79.0706694,262.120666 79.6353304,262.018 80.214,262.018 C81.1006711,262.018 81.807664,262.251331 82.335,262.718 C82.862336,263.184669 83.126,263.814663 83.126,264.608 C83.126,265.177336 82.997668,265.723331 82.741,266.246 C82.484332,266.768669 82.0620029,267.351997 81.474,267.996 L78.674,271.034 L83.112,271.034 Z M91.9786667,271.034 C92.1466675,271.034 92.2773329,271.076 92.3706667,271.16 C92.4640005,271.244 92.5106667,271.360666 92.5106667,271.51 C92.5106667,271.836668 92.3333351,272 91.9786667,272 L86.4906667,272 C86.3319992,272 86.2013339,271.951 86.0986667,271.853 C85.9959995,271.755 85.9446667,271.636001 85.9446667,271.496 C85.9446667,271.318666 86.0099994,271.164667 86.1406667,271.034 L89.5146667,267.324 C89.9813357,266.801331 90.3196656,266.332335 90.5296667,265.917 C90.7396677,265.501665 90.8446667,265.084002 90.8446667,264.664 C90.8446667,264.122664 90.6883349,263.707335 90.3756667,263.418 C90.0629984,263.128665 89.6220029,262.984 89.0526667,262.984 C88.6046644,262.984 88.1753354,263.065666 87.7646667,263.229 C87.353998,263.392334 86.9433354,263.641998 86.5326667,263.978 C86.392666,264.090001 86.2620006,264.146 86.1406667,264.146 C86.0379995,264.146 85.9493337,264.097 85.8746667,263.999 C85.7999996,263.901 85.7626667,263.782001 85.7626667,263.642 C85.7626667,263.445999 85.8373326,263.287334 85.9866667,263.166 C86.3693353,262.811332 86.8359973,262.531334 87.3866667,262.326 C87.9373361,262.120666 88.5019971,262.018 89.0806667,262.018 C89.9673378,262.018 90.6743307,262.251331 91.2016667,262.718 C91.7290026,263.184669 91.9926667,263.814663 91.9926667,264.608 C91.9926667,265.177336 91.8643346,265.723331 91.6076667,266.246 C91.3509987,266.768669 90.9286696,267.351997 90.3406667,267.996 L87.5406667,271.034 L91.9786667,271.034 Z M95.3433333,266.61 C95.1193322,266.61 94.9326674,266.537667 94.7833333,266.393 C94.6339993,266.248333 94.5593333,266.059335 94.5593333,265.826 C94.5593333,265.592665 94.6339993,265.403667 94.7833333,265.259 C94.9326674,265.114333 95.1193322,265.042 95.3433333,265.042 C95.5580011,265.042 95.737666,265.114333 95.8823333,265.259 C96.0270007,265.403667 96.0993333,265.592665 96.0993333,265.826 C96.0993333,266.059335 96.0270007,266.248333 95.8823333,266.393 C95.737666,266.537667 95.5580011,266.61 95.3433333,266.61 Z M95.3433333,272.07 C95.1193322,272.07 94.9326674,271.997667 94.7833333,271.853 C94.6339993,271.708333 94.5593333,271.519334 94.5593333,271.286 C94.5593333,271.052665 94.6339993,270.861334 94.7833333,270.712 C94.9326674,270.562666 95.1193322,270.488 95.3433333,270.488 C95.5580011,270.488 95.737666,270.562666 95.8823333,270.712 C96.0270007,270.861334 96.0993333,271.052665 96.0993333,271.286 C96.0993333,271.519334 96.0270007,271.708333 95.8823333,271.853 C95.737666,271.997667 95.5580011,272.07 95.3433333,272.07 Z M102.922,266.932 C103.519336,267.100001 103.974332,267.389331 104.287,267.8 C104.599668,268.210669 104.756,268.71933 104.756,269.326 C104.756,270.184671 104.46667,270.861331 103.888,271.356 C103.30933,271.850669 102.520672,272.098 101.522,272.098 C100.91533,272.098 100.334336,271.995334 99.779,271.79 C99.2236639,271.584666 98.7546686,271.304668 98.372,270.95 C98.2226659,270.809999 98.148,270.651334 98.148,270.474 C98.148,270.333999 98.185333,270.217334 98.26,270.124 C98.3346671,270.030666 98.4233328,269.984 98.526,269.984 C98.6566673,269.984 98.7873327,270.035333 98.918,270.138 C99.3473355,270.483335 99.7673313,270.735333 100.178,270.894 C100.588669,271.052667 101.031998,271.132 101.508,271.132 C102.19867,271.132 102.723665,270.973335 103.083,270.656 C103.442335,270.338665 103.622,269.881336 103.622,269.284 C103.622,268.079994 102.866008,267.478 101.354,267.478 L100.612,267.478 C100.462666,267.478 100.343667,267.429 100.255,267.331 C100.166333,267.233 100.122,267.118667 100.122,266.988 C100.122,266.857333 100.166333,266.745334 100.255,266.652 C100.343667,266.558666 100.462666,266.512 100.612,266.512 L101.13,266.512 C101.858004,266.512 102.417998,266.351002 102.81,266.029 C103.202002,265.706998 103.398,265.24267 103.398,264.636 C103.398,264.103997 103.239335,263.695668 102.922,263.411 C102.604665,263.126332 102.15667,262.984 101.578,262.984 C101.139331,262.984 100.714669,263.065666 100.304,263.229 C99.8933313,263.392334 99.4826687,263.641998 99.072,263.978 C98.9413327,264.080667 98.8106673,264.132 98.68,264.132 C98.5773328,264.132 98.4886671,264.085334 98.414,263.992 C98.339333,263.898666 98.302,263.782001 98.302,263.642 C98.302,263.464666 98.3766659,263.306001 98.526,263.166 C98.9086686,262.811332 99.3729973,262.531334 99.919,262.326 C100.465003,262.120666 101.02733,262.018 101.606,262.018 C102.502005,262.018 103.213664,262.244331 103.741,262.697 C104.268336,263.149669 104.532,263.758663 104.532,264.524 C104.532,265.093336 104.389668,265.590331 104.105,266.015 C103.820332,266.439669 103.426003,266.745332 102.922,266.932 Z M110.850667,265.812 C111.476003,265.812 112.024331,265.942665 112.495667,266.204 C112.967002,266.465335 113.330999,266.831664 113.587667,267.303 C113.844335,267.774336 113.972667,268.317997 113.972667,268.934 C113.972667,269.550003 113.832668,270.098331 113.552667,270.579 C113.272665,271.059669 112.883003,271.432999 112.383667,271.699 C111.884331,271.965001 111.308003,272.098 110.654667,272.098 C110.075997,272.098 109.511336,271.995334 108.960667,271.79 C108.409997,271.584666 107.943335,271.304668 107.560667,270.95 C107.411333,270.809999 107.336667,270.651334 107.336667,270.474 C107.336667,270.333999 107.374,270.217334 107.448667,270.124 C107.523334,270.030666 107.612,269.984 107.714667,269.984 C107.845334,269.984 107.975999,270.035333 108.106667,270.138 C108.517335,270.474002 108.927998,270.723666 109.338667,270.887 C109.749335,271.050334 110.178664,271.132 110.626667,271.132 C111.317337,271.132 111.858665,270.936002 112.250667,270.544 C112.642669,270.151998 112.838667,269.620003 112.838667,268.948 C112.838667,268.294663 112.642669,267.767335 112.250667,267.366 C111.858665,266.964665 111.331337,266.764 110.668667,266.764 C109.819329,266.764 109.128669,267.090663 108.596667,267.744 C108.465999,267.884001 108.307334,267.954 108.120667,267.954 C107.989999,267.954 107.880334,267.914334 107.791667,267.835 C107.703,267.755666 107.658667,267.646001 107.658667,267.506 L107.658667,262.676 C107.658667,262.517333 107.707666,262.386667 107.805667,262.284 C107.903667,262.181333 108.041332,262.13 108.218667,262.13 L113.146667,262.13 C113.314668,262.13 113.447666,262.172 113.545667,262.256 C113.643667,262.34 113.692667,262.456666 113.692667,262.606 C113.692667,262.755334 113.643667,262.872 113.545667,262.956 C113.447666,263.04 113.314668,263.082 113.146667,263.082 L108.792667,263.082 L108.792667,266.596 C109.054001,266.343999 109.359665,266.150334 109.709667,266.015 C110.059668,265.879666 110.439998,265.812 110.850667,265.812 Z" id="22:35" fill="#000000" fill-rule="nonzero" opacity="0.3"></path>
            <path d="M86.096,239.64 C86.2986677,239.64 86.4559994,239.701333 86.568,239.824 C86.6800006,239.946667 86.736,240.109332 86.736,240.312 L86.736,250.408 C86.736,250.610668 86.6800006,250.773333 86.568,250.896 C86.4559994,251.018667 86.2986677,251.08 86.096,251.08 C85.8933323,251.08 85.7333339,251.018667 85.616,250.896 C85.4986661,250.773333 85.44,250.610668 85.44,250.408 L85.44,245.832 L78.688,245.832 L78.688,250.408 C78.688,250.610668 78.6293339,250.773333 78.512,250.896 C78.3946661,251.018667 78.2346677,251.08 78.032,251.08 C77.8293323,251.08 77.6720006,251.018667 77.56,250.896 C77.4479994,250.773333 77.392,250.610668 77.392,250.408 L77.392,240.312 C77.392,240.109332 77.4479994,239.946667 77.56,239.824 C77.6720006,239.701333 77.8293323,239.64 78.032,239.64 C78.2346677,239.64 78.3946661,239.701333 78.512,239.824 C78.6293339,239.946667 78.688,240.109332 78.688,240.312 L78.688,244.712 L85.44,244.712 L85.44,240.312 C85.44,240.109332 85.4986661,239.946667 85.616,239.824 C85.7333339,239.701333 85.8933323,239.64 86.096,239.64 Z M93.0044444,251.112 C92.2684407,251.112 91.6204472,250.946668 91.0604444,250.616 C90.5004416,250.285332 90.0684459,249.813336 89.7644444,249.2 C89.4604429,248.586664 89.3084444,247.874671 89.3084444,247.064 C89.3084444,246.253329 89.4604429,245.541336 89.7644444,244.928 C90.0684459,244.314664 90.5004416,243.842668 91.0604444,243.512 C91.6204472,243.181332 92.2684407,243.016 93.0044444,243.016 C93.7404481,243.016 94.3911082,243.181332 94.9564444,243.512 C95.5217806,243.842668 95.9564429,244.314664 96.2604444,244.928 C96.5644459,245.541336 96.7164444,246.253329 96.7164444,247.064 C96.7164444,247.874671 96.5644459,248.586664 96.2604444,249.2 C95.9564429,249.813336 95.5217806,250.285332 94.9564444,250.616 C94.3911082,250.946668 93.7404481,251.112 93.0044444,251.112 Z M93.0044444,250.04 C93.7724482,250.04 94.3617757,249.786669 94.7724444,249.28 C95.1831131,248.773331 95.3884444,248.034672 95.3884444,247.064 C95.3884444,246.114662 95.1804465,245.381336 94.7644444,244.864 C94.3484423,244.346664 93.7617815,244.088 93.0044444,244.088 C92.2471073,244.088 91.6604465,244.346664 91.2444444,244.864 C90.8284423,245.381336 90.6204444,246.114662 90.6204444,247.064 C90.6204444,248.024005 90.8257757,248.759997 91.2364444,249.272 C91.6471131,249.784003 92.2364406,250.04 93.0044444,250.04 Z M101.720889,251.112 C101.23022,251.112 100.763558,251.053334 100.320889,250.936 C99.8782199,250.818666 99.4862238,250.653334 99.1448888,250.44 C98.9528878,250.311999 98.8168892,250.192001 98.7368888,250.08 C98.6568884,249.967999 98.6168888,249.832001 98.6168888,249.672 C98.6168888,249.533333 98.6568884,249.418667 98.7368888,249.328 C98.8168892,249.237333 98.9208882,249.192 99.0488888,249.192 C99.1768894,249.192 99.3635542,249.271999 99.6088888,249.432 C99.9288904,249.624001 100.246221,249.775999 100.560889,249.888 C100.875557,250.000001 101.267553,250.056 101.736889,250.056 C102.312892,250.056 102.760887,249.954668 103.080889,249.752 C103.40089,249.549332 103.560889,249.256002 103.560889,248.872 C103.560889,248.637332 103.502223,248.448001 103.384889,248.304 C103.267555,248.159999 103.06489,248.032001 102.776889,247.92 C102.488887,247.807999 102.067558,247.693334 101.512889,247.576 C100.574217,247.373332 99.9022242,247.101335 99.4968888,246.76 C99.0915534,246.418665 98.8888888,245.95467 98.8888888,245.368 C98.8888888,244.909331 99.0168875,244.504002 99.2728888,244.152 C99.5288901,243.799998 99.8835532,243.522668 100.336889,243.32 C100.790224,243.117332 101.304886,243.016 101.880889,243.016 C102.296891,243.016 102.699554,243.071999 103.088889,243.184 C103.478224,243.296001 103.822221,243.453332 104.120889,243.656 C104.483557,243.912001 104.664889,244.178665 104.664889,244.456 C104.664889,244.594667 104.622223,244.712 104.536889,244.808 C104.451555,244.904 104.350223,244.952 104.232889,244.952 C104.104888,244.952 103.91289,244.861334 103.656889,244.68 C103.358221,244.487999 103.075557,244.338667 102.808889,244.232 C102.542221,244.125333 102.211557,244.072 101.816889,244.072 C101.315553,244.072 100.91289,244.183999 100.608889,244.408 C100.304887,244.632001 100.152889,244.930665 100.152889,245.304 C100.152889,245.538668 100.208888,245.727999 100.320889,245.872 C100.432889,246.016 100.619554,246.143999 100.880889,246.256 C101.142223,246.368001 101.51822,246.477333 102.008889,246.584 C102.734226,246.744001 103.296887,246.919999 103.696889,247.112 C104.096891,247.304001 104.382221,247.538665 104.552889,247.816 C104.723556,248.093335 104.808889,248.445331 104.808889,248.872 C104.808889,249.544003 104.526225,250.085331 103.960889,250.496 C103.395553,250.906669 102.648893,251.112 101.720889,251.112 Z M111.141333,243.016 C111.824003,243.016 112.426664,243.186665 112.949333,243.528 C113.472002,243.869335 113.877332,244.346664 114.165333,244.96 C114.453335,245.573336 114.597333,246.285329 114.597333,247.096 C114.597333,247.906671 114.453335,248.61333 114.165333,249.216 C113.877332,249.81867 113.474669,250.285332 112.957333,250.616 C112.439997,250.946668 111.83467,251.112 111.141333,251.112 C110.53333,251.112 110.002669,250.978668 109.549333,250.712 C109.095998,250.445332 108.752001,250.066669 108.517333,249.576 L108.517333,253.336 C108.517333,253.528001 108.461334,253.679999 108.349333,253.792 C108.237333,253.904001 108.080001,253.96 107.877333,253.96 C107.674666,253.96 107.514667,253.901334 107.397333,253.784 C107.279999,253.666666 107.221333,253.517334 107.221333,253.336 L107.221333,243.688 C107.221333,243.495999 107.279999,243.341334 107.397333,243.224 C107.514667,243.106666 107.674666,243.048 107.877333,243.048 C108.080001,243.048 108.237333,243.106666 108.349333,243.224 C108.461334,243.341334 108.517333,243.495999 108.517333,243.688 L108.517333,244.552 C108.752001,244.061331 109.095998,243.682668 109.549333,243.416 C110.002669,243.149332 110.53333,243.016 111.141333,243.016 Z M110.885333,250.04 C111.64267,250.04 112.229331,249.784003 112.645333,249.272 C113.061335,248.759997 113.269333,248.034671 113.269333,247.096 C113.269333,246.157329 113.061335,245.424003 112.645333,244.896 C112.229331,244.367997 111.64267,244.104 110.885333,244.104 C110.127996,244.104 109.544002,244.359997 109.133333,244.872 C108.722664,245.384003 108.517333,246.114662 108.517333,247.064 C108.517333,248.013338 108.722664,248.746664 109.133333,249.264 C109.544002,249.781336 110.127996,250.04 110.885333,250.04 Z M117.633778,251.08 C117.441777,251.08 117.284445,251.024001 117.161778,250.912 C117.03911,250.799999 116.977778,250.642668 116.977778,250.44 L116.977778,243.688 C116.977778,243.485332 117.03911,243.328001 117.161778,243.216 C117.284445,243.103999 117.441777,243.048 117.633778,243.048 C117.825779,243.048 117.980444,243.103999 118.097778,243.216 C118.215112,243.328001 118.273778,243.485332 118.273778,243.688 L118.273778,250.44 C118.273778,250.653334 118.215112,250.813333 118.097778,250.92 C117.980444,251.026667 117.825779,251.08 117.633778,251.08 Z M117.633778,241.368 C117.377776,241.368 117.169778,241.293334 117.009778,241.144 C116.849777,240.994666 116.769778,240.797335 116.769778,240.552 C116.769778,240.317332 116.849777,240.125334 117.009778,239.976 C117.169778,239.826666 117.377776,239.752 117.633778,239.752 C117.889779,239.752 118.097777,239.826666 118.257778,239.976 C118.417778,240.125334 118.497778,240.317332 118.497778,240.552 C118.497778,240.797335 118.417778,240.994666 118.257778,241.144 C118.097777,241.293334 117.889779,241.368 117.633778,241.368 Z M124.734222,250.056 C125.107557,250.088 125.294222,250.258665 125.294222,250.568 C125.294222,250.749334 125.227556,250.885333 125.094222,250.976 C124.960888,251.066667 124.76089,251.101333 124.494222,251.08 L124.062222,251.048 C123.208884,250.984 122.579557,250.728002 122.174222,250.28 C121.768887,249.831998 121.566222,249.154671 121.566222,248.248 L121.566222,244.232 L120.494222,244.232 C120.312888,244.232 120.171556,244.186667 120.070222,244.096 C119.968888,244.005333 119.918222,243.885334 119.918222,243.736 C119.918222,243.575999 119.968888,243.448 120.070222,243.352 C120.171556,243.256 120.312888,243.208 120.494222,243.208 L121.566222,243.208 L121.566222,241.4 C121.566222,241.197332 121.624888,241.040001 121.742222,240.928 C121.859556,240.815999 122.019554,240.76 122.222222,240.76 C122.414223,240.76 122.568888,240.815999 122.686222,240.928 C122.803556,241.040001 122.862222,241.197332 122.862222,241.4 L122.862222,243.208 L124.638222,243.208 C124.80889,243.208 124.944888,243.256 125.046222,243.352 C125.147556,243.448 125.198222,243.575999 125.198222,243.736 C125.198222,243.885334 125.147556,244.005333 125.046222,244.096 C124.944888,244.186667 124.80889,244.232 124.638222,244.232 L122.862222,244.232 L122.862222,248.312 C122.862222,248.89867 122.982221,249.322665 123.222222,249.584 C123.462223,249.845335 123.82222,249.992 124.302222,250.024 L124.734222,250.056 Z M130.202666,243.016 C132.154676,243.016 133.130666,244.03999 133.130666,246.088 L133.130666,250.44 C133.130666,250.632001 133.074667,250.786666 132.962666,250.904 C132.850666,251.021334 132.698667,251.08 132.506666,251.08 C132.314665,251.08 132.16,251.021334 132.042666,250.904 C131.925332,250.786666 131.866666,250.632001 131.866666,250.44 L131.866666,249.672 C131.663999,250.130669 131.354668,250.485332 130.938666,250.736 C130.522664,250.986668 130.042669,251.112 129.498666,251.112 C128.997331,251.112 128.536002,251.010668 128.114666,250.808 C127.693331,250.605332 127.360001,250.322668 127.114666,249.96 C126.869332,249.597332 126.746666,249.197336 126.746666,248.76 C126.746666,248.17333 126.895998,247.717335 127.194666,247.392 C127.493335,247.066665 127.983996,246.832001 128.666666,246.688 C129.349336,246.543999 130.29866,246.472 131.514666,246.472 L131.866666,246.472 L131.866666,245.944 C131.866666,245.303997 131.736001,244.834668 131.474666,244.536 C131.213332,244.237332 130.789336,244.088 130.202666,244.088 C129.477329,244.088 128.741337,244.285331 127.994666,244.68 C127.706665,244.861334 127.504,244.952 127.386666,244.952 C127.258666,244.952 127.152,244.904 127.066666,244.808 C126.981333,244.712 126.938666,244.589334 126.938666,244.44 C126.938666,244.290666 126.983999,244.160001 127.074666,244.048 C127.165334,243.935999 127.311999,243.821334 127.514666,243.704 C127.888002,243.490666 128.311997,243.322667 128.786666,243.2 C129.261335,243.077333 129.733331,243.016 130.202666,243.016 Z M129.674666,250.088 C130.31467,250.088 130.839998,249.872002 131.250666,249.44 C131.661335,249.007998 131.866666,248.45067 131.866666,247.768 L131.866666,247.304 L131.578666,247.304 C130.639995,247.304 129.925336,247.344 129.434666,247.424 C128.943997,247.504 128.594667,247.637332 128.386666,247.824 C128.178665,248.010668 128.074666,248.285332 128.074666,248.648 C128.074666,249.064002 128.226665,249.407999 128.530666,249.68 C128.834668,249.952001 129.215997,250.088 129.674666,250.088 Z M136.599111,251.08 C136.40711,251.08 136.249778,251.024001 136.127111,250.912 C136.004444,250.799999 135.943111,250.642668 135.943111,250.44 L135.943111,240.28 C135.943111,240.077332 136.004444,239.920001 136.127111,239.808 C136.249778,239.695999 136.40711,239.64 136.599111,239.64 C136.780445,239.64 136.932444,239.695999 137.055111,239.808 C137.177778,239.920001 137.239111,240.077332 137.239111,240.28 L137.239111,250.44 C137.239111,250.642668 137.177778,250.799999 137.055111,250.912 C136.932444,251.024001 136.780445,251.08 136.599111,251.08 Z M148.112,240.744 C147.546663,240.786667 147.120001,240.965332 146.832,241.28 C146.543998,241.594668 146.4,242.066664 146.4,242.696 L146.4,243.208 L148.176,243.208 C148.357334,243.208 148.495999,243.256 148.592,243.352 C148.688,243.448 148.736,243.575999 148.736,243.736 C148.736,243.896001 148.688,244.018666 148.592,244.104 C148.495999,244.189334 148.357334,244.232 148.176,244.232 L146.4,244.232 L146.4,250.44 C146.4,250.642668 146.338667,250.799999 146.216,250.912 C146.093332,251.024001 145.941334,251.08 145.76,251.08 C145.567999,251.08 145.410667,251.024001 145.288,250.912 C145.165332,250.799999 145.104,250.642668 145.104,250.44 L145.104,244.232 L144.032,244.232 C143.850665,244.232 143.709333,244.186667 143.608,244.096 C143.506666,244.005333 143.456,243.885334 143.456,243.736 C143.456,243.575999 143.506666,243.448 143.608,243.352 C143.709333,243.256 143.850665,243.208 144.032,243.208 L145.104,243.208 L145.104,242.92 C145.104,241.959995 145.343997,241.205336 145.824,240.656 C146.304002,240.106664 146.991995,239.8 147.888,239.736 L148.304,239.704 C148.581334,239.682667 148.781332,239.709333 148.904,239.784 C149.026667,239.858667 149.088,239.991999 149.088,240.184 C149.088,240.493335 148.901335,240.669333 148.528,240.712 L148.112,240.744 Z M156.316444,249.192 C156.433778,249.192 156.53511,249.24 156.620444,249.336 C156.705778,249.432 156.748444,249.554666 156.748444,249.704 C156.748444,249.970668 156.561779,250.215999 156.188444,250.44 C155.804442,250.664001 155.399113,250.831999 154.972444,250.944 C154.545775,251.056001 154.129779,251.112 153.724444,251.112 C152.519105,251.112 151.567114,250.75467 150.868444,250.04 C150.169774,249.32533 149.820444,248.338673 149.820444,247.08 C149.820444,246.279996 149.975109,245.573336 150.284444,244.96 C150.593779,244.346664 151.028441,243.869335 151.588444,243.528 C152.148447,243.186665 152.785774,243.016 153.500444,243.016 C154.513782,243.016 155.319108,243.346663 155.916444,244.008 C156.51378,244.669337 156.812444,245.565328 156.812444,246.696 C156.812444,246.909334 156.769778,247.064 156.684444,247.16 C156.59911,247.256 156.460445,247.304 156.268444,247.304 L151.116444,247.304 C151.212444,249.138676 152.081769,250.056 153.724444,250.056 C154.140446,250.056 154.497776,250.000001 154.796444,249.888 C155.095112,249.775999 155.415109,249.624001 155.756444,249.432 C156.033779,249.271999 156.220444,249.192 156.316444,249.192 Z M153.516444,244.024 C152.833774,244.024 152.287113,244.237331 151.876444,244.664 C151.465775,245.090669 151.223111,245.693329 151.148444,246.472 L155.676444,246.472 C155.655111,245.682663 155.457779,245.077335 155.084444,244.656 C154.711109,244.234665 154.188447,244.024 153.516444,244.024 Z M165.192888,249.192 C165.310222,249.192 165.411555,249.24 165.496888,249.336 C165.582222,249.432 165.624888,249.554666 165.624888,249.704 C165.624888,249.970668 165.438224,250.215999 165.064888,250.44 C164.680886,250.664001 164.275557,250.831999 163.848888,250.944 C163.42222,251.056001 163.006224,251.112 162.600888,251.112 C161.395549,251.112 160.443559,250.75467 159.744888,250.04 C159.046218,249.32533 158.696888,248.338673 158.696888,247.08 C158.696888,246.279996 158.851554,245.573336 159.160888,244.96 C159.470223,244.346664 159.904886,243.869335 160.464888,243.528 C161.024891,243.186665 161.662218,243.016 162.376888,243.016 C163.390227,243.016 164.195552,243.346663 164.792888,244.008 C165.390225,244.669337 165.688888,245.565328 165.688888,246.696 C165.688888,246.909334 165.646222,247.064 165.560888,247.16 C165.475555,247.256 165.336889,247.304 165.144888,247.304 L159.992888,247.304 C160.088889,249.138676 160.958214,250.056 162.600888,250.056 C163.01689,250.056 163.37422,250.000001 163.672888,249.888 C163.971557,249.775999 164.291553,249.624001 164.632888,249.432 C164.910223,249.271999 165.096888,249.192 165.192888,249.192 Z M162.392888,244.024 C161.710218,244.024 161.163557,244.237331 160.752888,244.664 C160.34222,245.090669 160.099555,245.693329 160.024888,246.472 L164.552888,246.472 C164.531555,245.682663 164.334224,245.077335 163.960888,244.656 C163.587553,244.234665 163.064892,244.024 162.392888,244.024 Z" id="Hospitalfee" fill="#000000" fill-rule="nonzero"></path>
            <path d="M260.3,254.68 C260.473334,254.68 260.623333,254.739999 260.75,254.86 C260.876667,254.980001 260.94,255.126666 260.94,255.3 C260.94,255.473334 260.880001,255.623333 260.76,255.75 C260.639999,255.876667 260.486668,255.94 260.3,255.94 L256.68,255.94 L256.68,259.54 C256.68,259.726668 256.620001,259.879999 256.5,260 C256.379999,260.120001 256.233334,260.18 256.06,260.18 C255.886666,260.18 255.740001,260.116667 255.62,259.99 C255.499999,259.863333 255.44,259.713334 255.44,259.54 L255.44,255.94 L251.82,255.94 C251.646666,255.94 251.496667,255.876667 251.37,255.75 C251.243333,255.623333 251.18,255.473334 251.18,255.3 C251.18,255.126666 251.243333,254.980001 251.37,254.86 C251.496667,254.739999 251.646666,254.68 251.82,254.68 L255.44,254.68 L255.44,251.08 C255.44,250.893332 255.499999,250.736667 255.62,250.61 C255.740001,250.483333 255.886666,250.42 256.06,250.42 C256.233334,250.42 256.379999,250.483333 256.5,250.61 C256.620001,250.736667 256.68,250.893332 256.68,251.08 L256.68,254.68 L260.3,254.68 Z M278.54,257.2 C278.54,258.240005 278.163337,259.116663 277.41,259.83 C276.656663,260.543337 275.660006,260.973333 274.42,261.12 L274.42,262.66 C274.42,262.886668 274.356667,263.066666 274.23,263.2 C274.103333,263.333334 273.933334,263.4 273.72,263.4 C273.506666,263.4 273.336667,263.333334 273.21,263.2 C273.083333,263.066666 273.02,262.886668 273.02,262.66 L273.02,261.14 C272.206663,261.086666 271.420004,260.926668 270.66,260.66 C269.9,260.393332 269.253336,260.013336 268.72,259.52 C268.506666,259.346666 268.4,259.120001 268.4,258.84 C268.4,258.653332 268.453333,258.490001 268.56,258.35 C268.666667,258.209999 268.793333,258.14 268.94,258.14 C269.100001,258.14 269.293332,258.213333 269.52,258.36 C270.85334,259.293338 272.193327,259.76 273.54,259.76 C274.593339,259.76 275.41333,259.540002 276,259.1 C276.58667,258.659998 276.88,258.033337 276.88,257.22 C276.88,256.739998 276.730002,256.350001 276.43,256.05 C276.129999,255.749998 275.750002,255.516667 275.29,255.35 C274.829998,255.183332 274.206671,255.006668 273.42,254.82 C272.406662,254.566665 271.590003,254.313335 270.97,254.06 C270.349997,253.806665 269.820002,253.420003 269.38,252.9 C268.939998,252.379997 268.72,251.680004 268.72,250.8 C268.72,250.079996 268.9,249.430003 269.26,248.85 C269.620002,248.269997 270.12333,247.800002 270.77,247.44 C271.41667,247.079998 272.159996,246.86 273,246.78 L273,245.24 C273,245.026666 273.066666,244.850001 273.2,244.71 C273.333334,244.569999 273.499999,244.5 273.7,244.5 C273.913334,244.5 274.083333,244.566666 274.21,244.7 C274.336667,244.833334 274.4,245.013332 274.4,245.24 L274.4,246.78 C275.10667,246.846667 275.786663,247.013332 276.44,247.28 C277.093337,247.546668 277.646664,247.913331 278.1,248.38 C278.326668,248.566668 278.44,248.793332 278.44,249.06 C278.44,249.246668 278.383334,249.409999 278.27,249.55 C278.156666,249.690001 278.026667,249.76 277.88,249.76 C277.706666,249.76 277.520001,249.686667 277.32,249.54 C276.73333,249.059998 276.163336,248.706668 275.61,248.48 C275.056664,248.253332 274.413337,248.14 273.68,248.14 C272.666662,248.14 271.863336,248.373331 271.27,248.84 C270.676664,249.306669 270.38,249.939996 270.38,250.74 C270.38,251.300003 270.543332,251.746665 270.87,252.08 C271.196668,252.413335 271.599998,252.669999 272.08,252.85 C272.560002,253.030001 273.219996,253.226666 274.06,253.44 C275.033338,253.680001 275.816664,253.919999 276.41,254.16 C277.003336,254.400001 277.506665,254.763331 277.92,255.25 C278.333335,255.736669 278.54,256.386663 278.54,257.2 Z M289.51,259.62 C289.750001,259.62 289.936666,259.679999 290.07,259.8 C290.203334,259.920001 290.27,260.086666 290.27,260.3 C290.27,260.526668 290.206667,260.699999 290.08,260.82 C289.953333,260.940001 289.763335,261 289.51,261 L282.89,261 C282.636665,261 282.446667,260.940001 282.32,260.82 C282.193333,260.699999 282.13,260.526668 282.13,260.3 C282.13,260.086666 282.196666,259.920001 282.33,259.8 C282.463334,259.679999 282.649999,259.62 282.89,259.62 L285.37,259.62 L285.37,248.9 L283.19,250.32 C283.083333,250.386667 282.976667,250.42 282.87,250.42 C282.683332,250.42 282.520001,250.333334 282.38,250.16 C282.239999,249.986666 282.17,249.8 282.17,249.6 C282.17,249.319999 282.276666,249.120001 282.49,249 L285.53,247.02 C285.756668,246.873333 285.989999,246.8 286.23,246.8 C286.456668,246.8 286.643333,246.873333 286.79,247.02 C286.936667,247.166667 287.01,247.373332 287.01,247.64 L287.01,259.62 L289.51,259.62 Z M294.08,258.84 C294.413335,258.84 294.683332,258.969999 294.89,259.23 C295.096668,259.490001 295.2,259.879997 295.2,260.4 C295.2,261.453339 294.860003,262.34 294.18,263.06 C294.046666,263.206667 293.893334,263.28 293.72,263.28 C293.586666,263.28 293.466667,263.23 293.36,263.13 C293.253333,263.029999 293.2,262.913334 293.2,262.78 C293.2,262.633333 293.253333,262.506667 293.36,262.4 C293.706668,262.039998 293.926666,261.593336 294.02,261.06 C293.726665,261.033333 293.483334,260.923334 293.29,260.73 C293.096666,260.536666 293,260.286668 293,259.98 C293,259.646665 293.103332,259.373334 293.31,259.16 C293.516668,258.946666 293.773332,258.84 294.08,258.84 Z M306.39,259.62 C306.630001,259.62 306.816666,259.679999 306.95,259.8 C307.083334,259.920001 307.15,260.086666 307.15,260.3 C307.15,260.526668 307.086667,260.699999 306.96,260.82 C306.833333,260.940001 306.643335,261 306.39,261 L299.77,261 C299.516665,261 299.326667,260.940001 299.2,260.82 C299.073333,260.699999 299.01,260.526668 299.01,260.3 C299.01,260.086666 299.076666,259.920001 299.21,259.8 C299.343334,259.679999 299.529999,259.62 299.77,259.62 L302.25,259.62 L302.25,248.9 L300.07,250.32 C299.963333,250.386667 299.856667,250.42 299.75,250.42 C299.563332,250.42 299.400001,250.333334 299.26,250.16 C299.119999,249.986666 299.05,249.8 299.05,249.6 C299.05,249.319999 299.156666,249.120001 299.37,249 L302.41,247.02 C302.636668,246.873333 302.869999,246.8 303.11,246.8 C303.336668,246.8 303.523333,246.873333 303.67,247.02 C303.816667,247.166667 303.89,247.373332 303.89,247.64 L303.89,259.62 L306.39,259.62 Z M314.7,261.16 C313.086659,261.16 311.860004,260.546673 311.02,259.32 C310.179996,258.093327 309.76,256.306678 309.76,253.96 C309.76,251.599988 310.179996,249.806673 311.02,248.58 C311.860004,247.353327 313.086659,246.74 314.7,246.74 C316.313341,246.74 317.539996,247.349994 318.38,248.57 C319.220004,249.790006 319.64,251.579988 319.64,253.94 C319.64,256.300012 319.220004,258.093327 318.38,259.32 C317.539996,260.546673 316.313341,261.16 314.7,261.16 Z M314.7,259.78 C315.820006,259.78 316.646664,259.306671 317.18,258.36 C317.713336,257.413329 317.98,255.94001 317.98,253.94 C317.98,251.926657 317.716669,250.453338 317.19,249.52 C316.663331,248.586662 315.833339,248.12 314.7,248.12 C313.579994,248.12 312.753336,248.589995 312.22,249.53 C311.686664,250.470005 311.42,251.93999 311.42,253.94 C311.42,255.94001 311.686664,257.413329 312.22,258.36 C312.753336,259.306671 313.579994,259.78 314.7,259.78 Z M326.85,261.16 C325.236659,261.16 324.010004,260.546673 323.17,259.32 C322.329996,258.093327 321.91,256.306678 321.91,253.96 C321.91,251.599988 322.329996,249.806673 323.17,248.58 C324.010004,247.353327 325.236659,246.74 326.85,246.74 C328.463341,246.74 329.689996,247.349994 330.53,248.57 C331.370004,249.790006 331.79,251.579988 331.79,253.94 C331.79,256.300012 331.370004,258.093327 330.53,259.32 C329.689996,260.546673 328.463341,261.16 326.85,261.16 Z M326.85,259.78 C327.970006,259.78 328.796664,259.306671 329.33,258.36 C329.863336,257.413329 330.13,255.94001 330.13,253.94 C330.13,251.926657 329.866669,250.453338 329.34,249.52 C328.813331,248.586662 327.983339,248.12 326.85,248.12 C325.729994,248.12 324.903336,248.589995 324.37,249.53 C323.836664,250.470005 323.57,251.93999 323.57,253.94 C323.57,255.94001 323.836664,257.413329 324.37,258.36 C324.903336,259.306671 325.729994,259.78 326.85,259.78 Z" id="+$1,100" fill="#25B999" fill-rule="nonzero"></path>
            <path d="M10.982,197.06 C11.1593342,197.06 11.2969995,197.113666 11.395,197.221 C11.4930005,197.328334 11.542,197.470666 11.542,197.648 L11.542,206.51 C11.542,206.678001 11.4953338,206.813333 11.402,206.916 C11.3086662,207.018667 11.1780008,207.07 11.01,207.07 C10.8419992,207.07 10.7160004,207.018667 10.632,206.916 C10.5479996,206.813333 10.506,206.678001 10.506,206.51 L10.506,199.356 L7.468,205.18 C7.33733268,205.450668 7.14600126,205.586 6.894,205.586 C6.65133212,205.586 6.4600007,205.450668 6.32,205.18 L3.268,199.426 L3.268,206.51 C3.268,206.678001 3.22366711,206.813333 3.135,206.916 C3.04633289,207.018667 2.91800084,207.07 2.75,207.07 C2.58199916,207.07 2.4513338,207.018667 2.358,206.916 C2.2646662,206.813333 2.218,206.678001 2.218,206.51 L2.218,197.648 C2.218,197.470666 2.26933282,197.328334 2.372,197.221 C2.47466718,197.113666 2.61466578,197.06 2.792,197.06 C3.0253345,197.06 3.2119993,197.195332 3.352,197.466 L6.908,204.284 L10.422,197.466 C10.496667,197.316666 10.5783329,197.211667 10.667,197.151 C10.7556671,197.090333 10.8606661,197.06 10.982,197.06 Z M17.1186667,207.098 C16.4746635,207.098 15.9076691,206.953335 15.4176667,206.664 C14.9276642,206.374665 14.549668,205.961669 14.2836667,205.425 C14.0176653,204.888331 13.8846667,204.265337 13.8846667,203.556 C13.8846667,202.846663 14.0176653,202.223669 14.2836667,201.687 C14.549668,201.150331 14.9276642,200.737335 15.4176667,200.448 C15.9076691,200.158665 16.4746635,200.014 17.1186667,200.014 C17.7626699,200.014 18.3319975,200.158665 18.8266667,200.448 C19.3213358,200.737335 19.7016653,201.150331 19.9676667,201.687 C20.233668,202.223669 20.3666667,202.846663 20.3666667,203.556 C20.3666667,204.265337 20.233668,204.888331 19.9676667,205.425 C19.7016653,205.961669 19.3213358,206.374665 18.8266667,206.664 C18.3319975,206.953335 17.7626699,207.098 17.1186667,207.098 Z M17.1186667,206.16 C17.79067,206.16 18.3063315,205.938336 18.6656667,205.495 C19.0250018,205.051664 19.2046667,204.405338 19.2046667,203.556 C19.2046667,202.725329 19.0226685,202.083669 18.6586667,201.631 C18.2946649,201.178331 17.7813367,200.952 17.1186667,200.952 C16.4559967,200.952 15.9426685,201.178331 15.5786667,201.631 C15.2146649,202.083669 15.0326667,202.725329 15.0326667,203.556 C15.0326667,204.396004 15.2123315,205.039998 15.5716667,205.488 C15.9310018,205.936002 16.4466633,206.16 17.1186667,206.16 Z M25.9573333,200.014 C27.5906748,200.014 28.4073333,200.914658 28.4073333,202.716 L28.4073333,206.51 C28.4073333,206.687334 28.3583338,206.825 28.2603333,206.923 C28.1623329,207.021 28.0246676,207.07 27.8473333,207.07 C27.6699991,207.07 27.5300005,207.021 27.4273333,206.923 C27.3246662,206.825 27.2733333,206.687334 27.2733333,206.51 L27.2733333,202.786 C27.2733333,202.15133 27.1496679,201.689335 26.9023333,201.4 C26.6549988,201.110665 26.2606694,200.966 25.7193333,200.966 C25.0939969,200.966 24.5946685,201.157331 24.2213333,201.54 C23.8479981,201.922669 23.6613333,202.440663 23.6613333,203.094 L23.6613333,206.51 C23.6613333,206.687334 23.6123338,206.825 23.5143333,206.923 C23.4163329,207.021 23.2786676,207.07 23.1013333,207.07 C22.9239991,207.07 22.7840005,207.021 22.6813333,206.923 C22.5786662,206.825 22.5273333,206.687334 22.5273333,206.51 L22.5273333,200.602 C22.5273333,200.433999 22.5786662,200.298667 22.6813333,200.196 C22.7840005,200.093333 22.9239991,200.042 23.1013333,200.042 C23.2693342,200.042 23.4023329,200.093333 23.5003333,200.196 C23.5983338,200.298667 23.6473333,200.429333 23.6473333,200.588 L23.6473333,201.302 C23.8713345,200.881998 24.183998,200.562334 24.5853333,200.343 C24.9866687,200.123666 25.4439974,200.014 25.9573333,200.014 Z M36.42,197.06 C36.5973342,197.06 36.7373328,197.111333 36.84,197.214 C36.9426672,197.316667 36.994,197.447333 36.994,197.606 L36.994,206.51 C36.994,206.678001 36.9426672,206.813333 36.84,206.916 C36.7373328,207.018667 36.5973342,207.07 36.42,207.07 C36.2426658,207.07 36.1050005,207.018667 36.007,206.916 C35.9089995,206.813333 35.86,206.678001 35.86,206.51 L35.86,205.754 C35.6546657,206.183335 35.3536687,206.514665 34.957,206.748 C34.5603314,206.981334 34.0960027,207.098 33.564,207.098 C32.9666637,207.098 32.4393356,206.948668 31.982,206.65 C31.5246644,206.351332 31.1700013,205.933669 30.918,205.397 C30.6659988,204.860331 30.54,204.237337 30.54,203.528 C30.54,202.827997 30.6659988,202.212003 30.918,201.68 C31.1700013,201.147997 31.5246644,200.737335 31.982,200.448 C32.4393356,200.158665 32.9666637,200.014 33.564,200.014 C34.0960027,200.014 34.5603314,200.130665 34.957,200.364 C35.3536687,200.597335 35.6546657,200.928665 35.86,201.358 L35.86,197.606 C35.86,197.437999 35.9089995,197.305 36.007,197.207 C36.1050005,197.109 36.2426658,197.06 36.42,197.06 Z M33.788,206.16 C34.45067,206.16 34.9616649,205.933669 35.321,205.481 C35.6803352,205.028331 35.86,204.386671 35.86,203.556 C35.86,202.725329 35.6803352,202.086002 35.321,201.638 C34.9616649,201.189998 34.45067,200.966 33.788,200.966 C33.12533,200.966 32.6096685,201.189998 32.241,201.638 C31.8723315,202.086002 31.688,202.715996 31.688,203.528 C31.688,204.358671 31.8723315,205.004998 32.241,205.467 C32.6096685,205.929002 33.12533,206.16 33.788,206.16 Z M42.3466667,200.014 C44.0546752,200.014 44.9086667,200.909991 44.9086667,202.702 L44.9086667,206.51 C44.9086667,206.678001 44.8596672,206.813333 44.7616667,206.916 C44.6636662,207.018667 44.5306675,207.07 44.3626667,207.07 C44.1946659,207.07 44.0593339,207.018667 43.9566667,206.916 C43.8539995,206.813333 43.8026667,206.678001 43.8026667,206.51 L43.8026667,205.838 C43.6253325,206.239335 43.3546685,206.549666 42.9906667,206.769 C42.6266649,206.988334 42.2066691,207.098 41.7306667,207.098 C41.2919978,207.098 40.8883352,207.009334 40.5196667,206.832 C40.1509982,206.654666 39.8593344,206.407335 39.6446667,206.09 C39.429999,205.772665 39.3226667,205.422669 39.3226667,205.04 C39.3226667,204.526664 39.4533321,204.127668 39.7146667,203.843 C39.9760013,203.558332 40.4053304,203.353001 41.0026667,203.227 C41.600003,203.100999 42.4306614,203.038 43.4946667,203.038 L43.8026667,203.038 L43.8026667,202.576 C43.8026667,202.015997 43.6883345,201.605335 43.4596667,201.344 C43.2309989,201.082665 42.8600026,200.952 42.3466667,200.952 C41.7119969,200.952 41.0680033,201.124665 40.4146667,201.47 C40.1626654,201.628667 39.9853339,201.708 39.8826667,201.708 C39.7706661,201.708 39.6773337,201.666 39.6026667,201.582 C39.5279997,201.498 39.4906667,201.390667 39.4906667,201.26 C39.4906667,201.129333 39.530333,201.015 39.6096667,200.917 C39.6890004,200.819 39.8173325,200.718667 39.9946667,200.616 C40.321335,200.429332 40.6923313,200.282334 41.1076667,200.175 C41.5230021,200.067666 41.935998,200.014 42.3466667,200.014 Z M41.8846667,206.202 C42.4446695,206.202 42.9043316,206.013002 43.2636667,205.635 C43.6230018,205.256998 43.8026667,204.769336 43.8026667,204.172 L43.8026667,203.766 L43.5506667,203.766 C42.7293293,203.766 42.1040022,203.801 41.6746667,203.871 C41.2453312,203.941 40.9396676,204.057666 40.7576667,204.221 C40.5756658,204.384334 40.4846667,204.624665 40.4846667,204.942 C40.4846667,205.306002 40.6176654,205.606999 40.8836667,205.845 C41.149668,206.083001 41.4833314,206.202 41.8846667,206.202 Z M52.3613334,200.392 C52.4640005,200.167999 52.6273322,200.056 52.8513334,200.056 C52.9913341,200.056 53.1173328,200.102666 53.2293334,200.196 C53.3413339,200.289334 53.3973334,200.405999 53.3973334,200.546 C53.3973334,200.63 53.3786669,200.704666 53.3413334,200.77 L49.4073334,209.254 C49.3606665,209.356667 49.2930005,209.436 49.2043334,209.492 C49.1156663,209.548 49.0246672,209.576 48.9313334,209.576 C48.7913327,209.576 48.6676672,209.531667 48.5603334,209.443 C48.4529995,209.354333 48.3993334,209.240001 48.3993334,209.1 C48.3993334,209.025333 48.4179998,208.950667 48.4553334,208.876 L49.4353334,206.762 L46.6633334,200.77 C46.6259998,200.704666 46.6073334,200.634667 46.6073334,200.56 C46.6073334,200.419999 46.6703327,200.298667 46.7963334,200.196 C46.922334,200.093333 47.0599993,200.042 47.2093334,200.042 C47.3026672,200.042 47.3936663,200.07 47.4823334,200.126 C47.5710005,200.182 47.6386665,200.261333 47.6853334,200.364 L50.0233334,205.614 L52.3613334,200.392 Z M62.3386667,207.112 C61.2093277,207.112 60.3506697,206.682671 59.7626667,205.824 C59.1746638,204.965329 58.8806667,203.714675 58.8806667,202.072 C58.8806667,200.419992 59.1746638,199.164671 59.7626667,198.306 C60.3506697,197.447329 61.2093277,197.018 62.3386667,197.018 C63.4680057,197.018 64.3266638,197.444996 64.9146667,198.299 C65.5026697,199.153004 65.7966667,200.405992 65.7966667,202.058 C65.7966667,203.710008 65.5026697,204.965329 64.9146667,205.824 C64.3266638,206.682671 63.4680057,207.112 62.3386667,207.112 Z M62.3386667,206.146 C63.1226706,206.146 63.7013315,205.81467 64.0746667,205.152 C64.4480019,204.48933 64.6346667,203.458007 64.6346667,202.058 C64.6346667,200.64866 64.4503352,199.617337 64.0816667,198.964 C63.7129982,198.310663 63.132004,197.984 62.3386667,197.984 C61.5546628,197.984 60.9760019,198.312997 60.6026667,198.971 C60.2293315,199.629003 60.0426667,200.657993 60.0426667,202.058 C60.0426667,203.458007 60.2293315,204.48933 60.6026667,205.152 C60.9760019,205.81467 61.5546628,206.146 62.3386667,206.146 Z M72.5213334,201.932 C73.1186697,202.100001 73.5736652,202.389331 73.8863334,202.8 C74.1990016,203.210669 74.3553334,203.71933 74.3553334,204.326 C74.3553334,205.184671 74.0660029,205.861331 73.4873334,206.356 C72.9086638,206.850669 72.120005,207.098 71.1213334,207.098 C70.5146637,207.098 69.9336695,206.995334 69.3783334,206.79 C68.8229973,206.584666 68.354002,206.304668 67.9713334,205.95 C67.8219993,205.809999 67.7473334,205.651334 67.7473334,205.474 C67.7473334,205.333999 67.7846663,205.217334 67.8593334,205.124 C67.9340004,205.030666 68.0226662,204.984 68.1253334,204.984 C68.2560007,204.984 68.3866661,205.035333 68.5173334,205.138 C68.9466689,205.483335 69.3666647,205.735333 69.7773334,205.894 C70.1880021,206.052667 70.631331,206.132 71.1073334,206.132 C71.7980035,206.132 72.3229983,205.973335 72.6823334,205.656 C73.0416685,205.338665 73.2213334,204.881336 73.2213334,204.284 C73.2213334,203.079994 72.4653409,202.478 70.9533334,202.478 L70.2113334,202.478 C70.0619993,202.478 69.9430005,202.429 69.8543334,202.331 C69.7656663,202.233 69.7213334,202.118667 69.7213334,201.988 C69.7213334,201.857333 69.7656663,201.745334 69.8543334,201.652 C69.9430005,201.558666 70.0619993,201.512 70.2113334,201.512 L70.7293334,201.512 C71.457337,201.512 72.0173314,201.351002 72.4093334,201.029 C72.8013353,200.706998 72.9973334,200.24267 72.9973334,199.636 C72.9973334,199.103997 72.8386683,198.695668 72.5213334,198.411 C72.2039985,198.126332 71.7560029,197.984 71.1773334,197.984 C70.7386645,197.984 70.3140021,198.065666 69.9033334,198.229 C69.4926647,198.392334 69.0820021,198.641998 68.6713334,198.978 C68.5406661,199.080667 68.4100007,199.132 68.2793334,199.132 C68.1766662,199.132 68.0880004,199.085334 68.0133334,198.992 C67.9386663,198.898666 67.9013334,198.782001 67.9013334,198.642 C67.9013334,198.464666 67.9759993,198.306001 68.1253334,198.166 C68.508002,197.811332 68.9723307,197.531334 69.5183334,197.326 C70.0643361,197.120666 70.6266638,197.018 71.2053334,197.018 C72.1013379,197.018 72.8129974,197.244331 73.3403334,197.697 C73.8676694,198.149669 74.1313334,198.758663 74.1313334,199.524 C74.1313334,200.093336 73.9890015,200.590331 73.7043334,201.015 C73.4196653,201.439669 73.0253359,201.745332 72.5213334,201.932 Z M76.6560001,207.504 C76.6186665,207.625334 76.5580005,207.718666 76.4740001,207.784 C76.3899996,207.849334 76.2966672,207.882 76.1940001,207.882 C76.0633327,207.882 75.9466672,207.835334 75.8440001,207.742 C75.7413329,207.648666 75.6900001,207.532001 75.6900001,207.392 C75.6900001,207.336 75.7039999,207.270667 75.7320001,207.196 L79.0360001,196.864 C79.0733336,196.742666 79.1339996,196.649334 79.2180001,196.584 C79.3020005,196.518666 79.3953329,196.486 79.4980001,196.486 C79.6286674,196.486 79.7453329,196.532666 79.8480001,196.626 C79.9506672,196.719334 80.0020001,196.840666 80.0020001,196.99 C80.0020001,197.018 79.9926668,197.078666 79.9740001,197.172 L76.6560001,207.504 Z M84.5006667,207.112 C83.3713278,207.112 82.5126697,206.682671 81.9246667,205.824 C81.3366638,204.965329 81.0426667,203.714675 81.0426667,202.072 C81.0426667,200.419992 81.3366638,199.164671 81.9246667,198.306 C82.5126697,197.447329 83.3713278,197.018 84.5006667,197.018 C85.6300057,197.018 86.4886638,197.444996 87.0766667,198.299 C87.6646697,199.153004 87.9586667,200.405992 87.9586667,202.058 C87.9586667,203.710008 87.6646697,204.965329 87.0766667,205.824 C86.4886638,206.682671 85.6300057,207.112 84.5006667,207.112 Z M84.5006667,206.146 C85.2846707,206.146 85.8633315,205.81467 86.2366667,205.152 C86.6100019,204.48933 86.7966667,203.458007 86.7966667,202.058 C86.7966667,200.64866 86.6123352,199.617337 86.2436667,198.964 C85.8749982,198.310663 85.294004,197.984 84.5006667,197.984 C83.7166628,197.984 83.1380019,198.312997 82.7646667,198.971 C82.3913315,199.629003 82.2046667,200.657993 82.2046667,202.058 C82.2046667,203.458007 82.3913315,204.48933 82.7646667,205.152 C83.1380019,205.81467 83.7166628,206.146 84.5006667,206.146 Z M96.2793334,206.034 C96.4473342,206.034 96.5779996,206.076 96.6713334,206.16 C96.7646672,206.244 96.8113334,206.360666 96.8113334,206.51 C96.8113334,206.836668 96.6340018,207 96.2793334,207 L90.7913334,207 C90.6326659,207 90.5020006,206.951 90.3993334,206.853 C90.2966662,206.755 90.2453334,206.636001 90.2453334,206.496 C90.2453334,206.318666 90.3106661,206.164667 90.4413334,206.034 L93.8153334,202.324 C94.2820024,201.801331 94.6203324,201.332335 94.8303334,200.917 C95.0403345,200.501665 95.1453334,200.084002 95.1453334,199.664 C95.1453334,199.122664 94.9890016,198.707335 94.6763334,198.418 C94.3636652,198.128665 93.9226696,197.984 93.3533334,197.984 C92.9053312,197.984 92.4760021,198.065666 92.0653334,198.229 C91.6546647,198.392334 91.2440021,198.641998 90.8333334,198.978 C90.6933327,199.090001 90.5626673,199.146 90.4413334,199.146 C90.3386662,199.146 90.2500004,199.097 90.1753334,198.999 C90.1006664,198.901 90.0633334,198.782001 90.0633334,198.642 C90.0633334,198.445999 90.1379993,198.287334 90.2873334,198.166 C90.670002,197.811332 91.136664,197.531334 91.6873334,197.326 C92.2380028,197.120666 92.8026638,197.018 93.3813334,197.018 C94.2680045,197.018 94.9749974,197.251331 95.5023334,197.718 C96.0296694,198.184669 96.2933334,198.814663 96.2933334,199.608 C96.2933334,200.177336 96.1650014,200.723331 95.9083334,201.246 C95.6516655,201.768669 95.2293363,202.351997 94.6413334,202.996 L91.8413334,206.034 L96.2793334,206.034 Z M98.8180001,207.504 C98.7806666,207.625334 98.7200005,207.718666 98.6360001,207.784 C98.5519997,207.849334 98.4586673,207.882 98.3560001,207.882 C98.2253328,207.882 98.1086673,207.835334 98.0060001,207.742 C97.9033329,207.648666 97.8520001,207.532001 97.8520001,207.392 C97.8520001,207.336 97.8659999,207.270667 97.8940001,207.196 L101.198,196.864 C101.235334,196.742666 101.296,196.649334 101.38,196.584 C101.464001,196.518666 101.557333,196.486 101.66,196.486 C101.790667,196.486 101.907333,196.532666 102.01,196.626 C102.112667,196.719334 102.164,196.840666 102.164,196.99 C102.164,197.018 102.154667,197.078666 102.136,197.172 L98.8180001,207.504 Z M109.574667,206.034 C109.742668,206.034 109.873333,206.076 109.966667,206.16 C110.060001,206.244 110.106667,206.360666 110.106667,206.51 C110.106667,206.836668 109.929335,207 109.574667,207 L104.086667,207 C103.927999,207 103.797334,206.951 103.694667,206.853 C103.592,206.755 103.540667,206.636001 103.540667,206.496 C103.540667,206.318666 103.605999,206.164667 103.736667,206.034 L107.110667,202.324 C107.577336,201.801331 107.915666,201.332335 108.125667,200.917 C108.335668,200.501665 108.440667,200.084002 108.440667,199.664 C108.440667,199.122664 108.284335,198.707335 107.971667,198.418 C107.658999,198.128665 107.218003,197.984 106.648667,197.984 C106.200665,197.984 105.771335,198.065666 105.360667,198.229 C104.949998,198.392334 104.539335,198.641998 104.128667,198.978 C103.988666,199.090001 103.858001,199.146 103.736667,199.146 C103.634,199.146 103.545334,199.097 103.470667,198.999 C103.396,198.901 103.358667,198.782001 103.358667,198.642 C103.358667,198.445999 103.433333,198.287334 103.582667,198.166 C103.965335,197.811332 104.431997,197.531334 104.982667,197.326 C105.533336,197.120666 106.097997,197.018 106.676667,197.018 C107.563338,197.018 108.270331,197.251331 108.797667,197.718 C109.325003,198.184669 109.588667,198.814663 109.588667,199.608 C109.588667,200.177336 109.460335,200.723331 109.203667,201.246 C108.946999,201.768669 108.52467,202.351997 107.936667,202.996 L105.136667,206.034 L109.574667,206.034 Z M115.529333,207.112 C114.399994,207.112 113.541336,206.682671 112.953333,205.824 C112.36533,204.965329 112.071333,203.714675 112.071333,202.072 C112.071333,200.419992 112.36533,199.164671 112.953333,198.306 C113.541336,197.447329 114.399994,197.018 115.529333,197.018 C116.658672,197.018 117.51733,197.444996 118.105333,198.299 C118.693336,199.153004 118.987333,200.405992 118.987333,202.058 C118.987333,203.710008 118.693336,204.965329 118.105333,205.824 C117.51733,206.682671 116.658672,207.112 115.529333,207.112 Z M115.529333,206.146 C116.313337,206.146 116.891998,205.81467 117.265333,205.152 C117.638669,204.48933 117.825333,203.458007 117.825333,202.058 C117.825333,200.64866 117.641002,199.617337 117.272333,198.964 C116.903665,198.310663 116.322671,197.984 115.529333,197.984 C114.74533,197.984 114.166669,198.312997 113.793333,198.971 C113.419998,199.629003 113.233333,200.657993 113.233333,202.058 C113.233333,203.458007 113.419998,204.48933 113.793333,205.152 C114.166669,205.81467 114.74533,206.146 115.529333,206.146 Z M127.084,206.034 C127.252001,206.034 127.382666,206.076 127.476,206.16 C127.569334,206.244 127.616,206.360666 127.616,206.51 C127.616,206.668667 127.571667,206.79 127.483,206.874 C127.394333,206.958 127.261334,207 127.084,207 L122.45,207 C122.272666,207 122.139667,206.958 122.051,206.874 C121.962333,206.79 121.918,206.668667 121.918,206.51 C121.918,206.360666 121.964666,206.244 122.058,206.16 C122.151334,206.076 122.281999,206.034 122.45,206.034 L124.186,206.034 L124.186,198.53 L122.66,199.524 C122.585333,199.570667 122.510667,199.594 122.436,199.594 C122.305333,199.594 122.191001,199.533334 122.093,199.412 C121.995,199.290666 121.946,199.160001 121.946,199.02 C121.946,198.823999 122.020666,198.684 122.17,198.6 L124.298,197.214 C124.456668,197.111333 124.619999,197.06 124.788,197.06 C124.946668,197.06 125.077333,197.111333 125.18,197.214 C125.282667,197.316667 125.334,197.461332 125.334,197.648 L125.334,206.034 L127.084,206.034 Z M132.954667,197.018 C134.149339,197.018 135.070997,197.433329 135.719667,198.264 C136.368337,199.094671 136.692667,200.279992 136.692667,201.82 C136.692667,202.921339 136.543335,203.868663 136.244667,204.662 C135.945999,205.455337 135.512003,206.061998 134.942667,206.482 C134.373331,206.902002 133.696671,207.112 132.912667,207.112 C132.380664,207.112 131.851003,207.009334 131.323667,206.804 C130.796331,206.598666 130.346002,206.318668 129.972667,205.964 C129.813999,205.814666 129.734667,205.656001 129.734667,205.488 C129.734667,205.347999 129.772,205.231334 129.846667,205.138 C129.921334,205.044666 130.01,204.998 130.112667,204.998 C130.243334,204.998 130.378666,205.049333 130.518667,205.152 C131.330671,205.81467 132.11933,206.146 132.884667,206.146 C133.715338,206.146 134.363998,205.768004 134.830667,205.012 C135.297336,204.255996 135.530667,203.196673 135.530667,201.834 L135.530667,201.652 C135.315999,202.174669 134.968336,202.585332 134.487667,202.884 C134.006998,203.182668 133.463336,203.332 132.856667,203.332 C132.25933,203.332 131.727336,203.201335 131.260667,202.94 C130.793998,202.678665 130.430001,202.310002 130.168667,201.834 C129.907332,201.357998 129.776667,200.812003 129.776667,200.196 C129.776667,199.58933 129.911999,199.043336 130.182667,198.558 C130.453335,198.072664 130.831331,197.694668 131.316667,197.424 C131.802003,197.153332 132.347997,197.018 132.954667,197.018 Z M133.024667,202.366 C133.66867,202.366 134.193665,202.163002 134.599667,201.757 C135.005669,201.350998 135.208667,200.826003 135.208667,200.182 C135.208667,199.528663 135.005669,198.999002 134.599667,198.593 C134.193665,198.186998 133.664003,197.984 133.010667,197.984 C132.375997,197.984 131.867335,198.184665 131.484667,198.586 C131.101998,198.987335 130.910667,199.51933 130.910667,200.182 C130.910667,200.84467 131.104332,201.374331 131.491667,201.771 C131.879002,202.167669 132.389997,202.366 133.024667,202.366 Z" id="Monday03/02/2019" fill="#FFFFFF" fill-rule="nonzero"></path>
            <g id="emergency">
                <g id="Rectangle-Copy-9">
                    <use fill="black" fill-opacity="1" filter="url(#filter-4)" xlink:href="#path-3"></use>
                    <use fill="#EEAC2B" fill-rule="evenodd" xlink:href="#path-3"></use>
                </g>
                <path d="M22.58,38 C22.3266654,38 22.1233341,37.9266674 21.97,37.78 C21.8166659,37.6333326 21.74,37.4400012 21.74,37.2 L21.74,24.7 C21.74,24.4599988 21.8166659,24.2666674 21.97,24.12 C22.1233341,23.9733326 22.3266654,23.9 22.58,23.9 L30.06,23.9 C30.3000012,23.9 30.486666,23.9599994 30.62,24.08 C30.753334,24.2000006 30.82,24.3666656 30.82,24.58 C30.82,24.7933344 30.753334,24.9599994 30.62,25.08 C30.486666,25.2000006 30.3000012,25.26 30.06,25.26 L23.36,25.26 L23.36,30.16 L29.66,30.16 C29.9000012,30.16 30.086666,30.2199994 30.22,30.34 C30.353334,30.4600006 30.42,30.6266656 30.42,30.84 C30.42,31.0533344 30.353334,31.2199994 30.22,31.34 C30.086666,31.4600006 29.9000012,31.52 29.66,31.52 L23.36,31.52 L23.36,36.64 L30.06,36.64 C30.3000012,36.64 30.486666,36.6966661 30.62,36.81 C30.753334,36.9233339 30.82,37.0933322 30.82,37.32 C30.82,37.5333344 30.753334,37.6999994 30.62,37.82 C30.486666,37.9400006 30.3000012,38 30.06,38 L22.58,38 Z M44.13,28.02 C46.2900108,28.02 47.37,29.3066538 47.37,31.88 L47.37,37.3 C47.37,37.5533346 47.2966674,37.7499993 47.15,37.89 C47.0033326,38.0300007 46.8100012,38.1 46.57,38.1 C46.3299988,38.1 46.1333341,38.0300007 45.98,37.89 C45.8266659,37.7499993 45.75,37.5533346 45.75,37.3 L45.75,31.92 C45.75,31.0266622 45.5900016,30.380002 45.27,29.98 C44.9499984,29.579998 44.4500034,29.38 43.77,29.38 C42.9566626,29.38 42.316669,29.6533306 41.85,30.2 C41.383331,30.7466694 41.15,31.486662 41.15,32.42 L41.15,37.3 C41.15,37.5533346 41.0733341,37.7499993 40.92,37.89 C40.7666659,38.0300007 40.5700012,38.1 40.33,38.1 C40.0899988,38.1 39.8966674,38.0300007 39.75,37.89 C39.6033326,37.7499993 39.53,37.5533346 39.53,37.3 L39.53,31.92 C39.53,31.0266622 39.3700016,30.380002 39.05,29.98 C38.7299984,29.579998 38.2233368,29.38 37.53,29.38 C36.729996,29.38 36.0933357,29.6533306 35.62,30.2 C35.1466643,30.7466694 34.91,31.486662 34.91,32.42 L34.91,37.3 C34.91,37.5533346 34.8366674,37.7499993 34.69,37.89 C34.5433326,38.0300007 34.3500012,38.1 34.11,38.1 C33.8699988,38.1 33.6733341,38.0300007 33.52,37.89 C33.3666659,37.7499993 33.29,37.5533346 33.29,37.3 L33.29,28.86 C33.29,28.6199988 33.3666659,28.4266674 33.52,28.28 C33.6733341,28.1333326 33.8699988,28.06 34.11,28.06 C34.3366678,28.06 34.5233326,28.1299993 34.67,28.27 C34.8166674,28.4100007 34.89,28.5999988 34.89,28.84 L34.89,29.8 C35.1833348,29.2266638 35.5899974,28.7866682 36.11,28.48 C36.6300026,28.1733318 37.2299966,28.02 37.91,28.02 C39.4300076,28.02 40.423331,28.6599936 40.89,29.94 C41.1700014,29.3533304 41.5966638,28.8866684 42.17,28.54 C42.7433362,28.1933316 43.396663,28.02 44.13,28.02 Z M58.02,35.74 C58.1666674,35.74 58.2933328,35.7999994 58.4,35.92 C58.5066672,36.0400006 58.56,36.1933324 58.56,36.38 C58.56,36.713335 58.326669,37.02 57.86,37.3 C57.3799976,37.5800014 56.873336,37.7899993 56.34,37.93 C55.806664,38.0700007 55.2866692,38.14 54.78,38.14 C53.2733258,38.14 52.0833377,37.6933378 51.21,36.8 C50.3366623,35.9066622 49.9,34.6733412 49.9,33.1 C49.9,32.099995 50.0933314,31.2166705 50.48,30.45 C50.8666686,29.6833295 51.4099965,29.0866688 52.11,28.66 C52.8100035,28.2333312 53.6066622,28.02 54.5,28.02 C55.766673,28.02 56.7733296,28.4333292 57.52,29.26 C58.2666704,30.0866708 58.64,31.2066596 58.64,32.62 C58.64,32.886668 58.5866672,33.0799994 58.48,33.2 C58.3733328,33.3200006 58.2000012,33.38 57.96,33.38 L51.52,33.38 C51.6400006,35.6733448 52.7266564,36.82 54.78,36.82 C55.3000026,36.82 55.7466648,36.7500007 56.12,36.61 C56.4933352,36.4699993 56.8933312,36.2800012 57.32,36.04 C57.6666684,35.839999 57.9,35.74 58.02,35.74 Z M54.52,29.28 C53.6666624,29.28 52.9833359,29.546664 52.47,30.08 C51.9566641,30.613336 51.6533338,31.3666618 51.56,32.34 L57.22,32.34 C57.1933332,31.3533284 56.946669,30.5966693 56.48,30.07 C56.013331,29.5433307 55.3600042,29.28 54.52,29.28 Z M65.99,28.06 C66.5500028,28.0199998 66.83,28.2466642 66.83,28.74 C66.83,28.9533344 66.7700006,29.1233327 66.65,29.25 C66.5299994,29.3766673 66.3233348,29.4533332 66.03,29.48 L65.43,29.54 C64.5366622,29.6200004 63.8733355,29.9366639 63.44,30.49 C63.0066645,31.0433361 62.79,31.6933296 62.79,32.44 L62.79,37.3 C62.79,37.566668 62.7166674,37.766666 62.57,37.9 C62.4233326,38.033334 62.2300012,38.1 61.99,38.1 C61.7499988,38.1 61.5533341,38.0300007 61.4,37.89 C61.2466659,37.7499993 61.17,37.5533346 61.17,37.3 L61.17,28.86 C61.17,28.6066654 61.2499992,28.4100007 61.41,28.27 C61.5700008,28.1299993 61.7633322,28.06 61.99,28.06 C62.2033344,28.06 62.3833326,28.1299993 62.53,28.27 C62.6766674,28.4100007 62.75,28.5999988 62.75,28.84 L62.75,29.96 C63.0300014,29.3733304 63.4266641,28.9266682 63.94,28.62 C64.4533359,28.3133318 65.04333,28.1333336 65.71,28.08 L65.99,28.06 Z M76.08,28.06 C76.3333346,28.06 76.5333326,28.1333326 76.68,28.28 C76.8266674,28.4266674 76.9,28.6199988 76.9,28.86 L76.9,37.34 C76.9,38.7933406 76.5266704,39.8899963 75.78,40.63 C75.0333296,41.3700037 73.926674,41.74 72.46,41.74 C71.0333262,41.74 69.8466714,41.4600028 68.9,40.9 C68.4199976,40.633332 68.18,40.3266684 68.18,39.98 C68.18,39.7933324 68.2299995,39.6400006 68.33,39.52 C68.4300005,39.3999994 68.5599992,39.34 68.72,39.34 C68.853334,39.34 69.0933316,39.4333324 69.44,39.62 C69.906669,39.8600012 70.3666644,40.0533326 70.82,40.2 C71.2733356,40.3466674 71.8133302,40.42 72.44,40.42 C73.3866714,40.42 74.1,40.1700025 74.58,39.67 C75.0600024,39.1699975 75.3,38.4400048 75.3,37.48 L75.3,35.76 C75.0199986,36.3866698 74.5900029,36.866665 74.01,37.2 C73.4299971,37.533335 72.7466706,37.7 71.96,37.7 C71.1066624,37.7 70.3500033,37.500002 69.69,37.1 C69.0299967,36.699998 68.5166685,36.133337 68.15,35.4 C67.7833315,34.666663 67.6,33.8200048 67.6,32.86 C67.6,31.8999952 67.7833315,31.053337 68.15,30.32 C68.5166685,29.586663 69.0299967,29.02 69.69,28.62 C70.3500033,28.219998 71.1066624,28.02 71.96,28.02 C72.7333372,28.02 73.4066638,28.186665 73.98,28.52 C74.5533362,28.853335 74.9866652,29.3266636 75.28,29.94 L75.28,28.86 C75.28,28.6199988 75.3499993,28.4266674 75.49,28.28 C75.6300007,28.1333326 75.8266654,28.06 76.08,28.06 Z M72.28,36.36 C73.213338,36.36 73.946664,36.0500031 74.48,35.43 C75.013336,34.8099969 75.28,33.9533388 75.28,32.86 C75.28,31.7799946 75.0166693,30.9300031 74.49,30.31 C73.9633307,29.6899969 73.2266714,29.38 72.28,29.38 C71.3333286,29.38 70.5900027,29.6899969 70.05,30.31 C69.5099973,30.9300031 69.24,31.7799946 69.24,32.86 C69.24,33.9533388 69.5099973,34.8099969 70.05,35.43 C70.5900027,36.0500031 71.3333286,36.36 72.28,36.36 Z M87.59,35.74 C87.7366674,35.74 87.8633328,35.7999994 87.97,35.92 C88.0766672,36.0400006 88.13,36.1933324 88.13,36.38 C88.13,36.713335 87.896669,37.02 87.43,37.3 C86.9499976,37.5800014 86.443336,37.7899993 85.91,37.93 C85.376664,38.0700007 84.8566692,38.14 84.35,38.14 C82.8433258,38.14 81.6533377,37.6933378 80.78,36.8 C79.9066623,35.9066622 79.47,34.6733412 79.47,33.1 C79.47,32.099995 79.6633314,31.2166705 80.05,30.45 C80.4366686,29.6833295 80.9799965,29.0866688 81.68,28.66 C82.3800035,28.2333312 83.1766622,28.02 84.07,28.02 C85.336673,28.02 86.3433296,28.4333292 87.09,29.26 C87.8366704,30.0866708 88.21,31.2066596 88.21,32.62 C88.21,32.886668 88.1566672,33.0799994 88.05,33.2 C87.9433328,33.3200006 87.7700012,33.38 87.53,33.38 L81.09,33.38 C81.2100006,35.6733448 82.2966564,36.82 84.35,36.82 C84.8700026,36.82 85.3166648,36.7500007 85.69,36.61 C86.0633352,36.4699993 86.4633312,36.2800012 86.89,36.04 C87.2366684,35.839999 87.47,35.74 87.59,35.74 Z M84.09,29.28 C83.2366624,29.28 82.5533359,29.546664 82.04,30.08 C81.5266641,30.613336 81.2233338,31.3666618 81.13,32.34 L86.79,32.34 C86.7633332,31.3533284 86.516669,30.5966693 86.05,30.07 C85.583331,29.5433307 84.9300042,29.28 84.09,29.28 Z M95.64,28.02 C97.973345,28.02 99.14,29.3066538 99.14,31.88 L99.14,37.3 C99.14,37.5533346 99.0700007,37.7499993 98.93,37.89 C98.7899993,38.0300007 98.5933346,38.1 98.34,38.1 C98.0866654,38.1 97.8866674,38.0300007 97.74,37.89 C97.5933326,37.7499993 97.52,37.5533346 97.52,37.3 L97.52,31.98 C97.52,31.0733288 97.3433351,30.4133354 96.99,30 C96.6366649,29.5866646 96.0733372,29.38 95.3,29.38 C94.4066622,29.38 93.693336,29.6533306 93.16,30.2 C92.626664,30.7466694 92.36,31.486662 92.36,32.42 L92.36,37.3 C92.36,37.5533346 92.2900007,37.7499993 92.15,37.89 C92.0099993,38.0300007 91.8133346,38.1 91.56,38.1 C91.3066654,38.1 91.1066674,38.0300007 90.96,37.89 C90.8133326,37.7499993 90.74,37.5533346 90.74,37.3 L90.74,28.86 C90.74,28.6199988 90.8133326,28.4266674 90.96,28.28 C91.1066674,28.1333326 91.3066654,28.06 91.56,28.06 C91.8000012,28.06 91.9899993,28.1333326 92.13,28.28 C92.2700007,28.4266674 92.34,28.6133322 92.34,28.84 L92.34,29.86 C92.6600016,29.259997 93.1066638,28.8033349 93.68,28.49 C94.2533362,28.1766651 94.906663,28.02 95.64,28.02 Z M106.27,38.14 C105.363329,38.14 104.560003,37.9333354 103.86,37.52 C103.159997,37.1066646 102.620002,36.52 102.24,35.76 C101.859998,34.9999962 101.67,34.120005 101.67,33.12 C101.67,32.119995 101.866665,31.2333372 102.26,30.46 C102.653335,29.6866628 103.20333,29.0866688 103.91,28.66 C104.61667,28.2333312 105.429995,28.02 106.35,28.02 C106.856669,28.02 107.359997,28.0899993 107.86,28.23 C108.360003,28.3700007 108.796665,28.573332 109.17,28.84 C109.410001,29.0000008 109.58,29.1566659 109.68,29.31 C109.78,29.4633341 109.83,29.6333324 109.83,29.82 C109.83,30.0066676 109.78,30.1599994 109.68,30.28 C109.58,30.4000006 109.450001,30.46 109.29,30.46 C109.196666,30.46 109.096667,30.4333336 108.99,30.38 C108.883333,30.3266664 108.793334,30.2733336 108.72,30.22 C108.646666,30.1666664 108.596667,30.1333334 108.57,30.12 C108.223332,29.8933322 107.893335,29.713334 107.58,29.58 C107.266665,29.446666 106.883336,29.38 106.43,29.38 C105.456662,29.38 104.700003,29.7099967 104.16,30.37 C103.619997,31.0300033 103.35,31.9466608 103.35,33.12 C103.35,34.2933392 103.619997,35.1999968 104.16,35.84 C104.700003,36.4800032 105.456662,36.8 106.43,36.8 C106.883336,36.8 107.273332,36.733334 107.6,36.6 C107.926668,36.466666 108.256665,36.2866678 108.59,36.06 C108.736667,35.9666662 108.876666,35.886667 109.01,35.82 C109.143334,35.753333 109.256666,35.72 109.35,35.72 C109.496667,35.72 109.619999,35.7799994 109.72,35.9 C109.820001,36.02 109.87,36.1733324 109.87,36.36 C109.87,36.5333342 109.823334,36.6899993 109.73,36.83 C109.636666,36.9700007 109.463335,37.1266658 109.21,37.3 C108.836665,37.5533346 108.386669,37.7566659 107.86,37.91 C107.333331,38.0633341 106.803336,38.14 106.27,38.14 Z M119,28.56 C119.146667,28.2399984 119.379998,28.08 119.7,28.08 C119.900001,28.08 120.079999,28.146666 120.24,28.28 C120.400001,28.413334 120.48,28.579999 120.48,28.78 C120.48,28.9000006 120.453334,29.0066662 120.4,29.1 L114.78,41.22 C114.713333,41.3666674 114.616667,41.4799996 114.49,41.56 C114.363333,41.6400004 114.233334,41.68 114.1,41.68 C113.899999,41.68 113.723334,41.6166673 113.57,41.49 C113.416666,41.3633327 113.34,41.200001 113.34,41 C113.34,40.8933328 113.366666,40.7866672 113.42,40.68 L114.82,37.66 L110.86,29.1 C110.806666,29.0066662 110.78,28.9066672 110.78,28.8 C110.78,28.599999 110.869999,28.4266674 111.05,28.28 C111.230001,28.1333326 111.426666,28.06 111.64,28.06 C111.773334,28.06 111.903333,28.0999996 112.03,28.18 C112.156667,28.2600004 112.253333,28.3733326 112.32,28.52 L115.66,36.02 L119,28.56 Z" id="Emergency" fill="#FFFFFF" fill-rule="nonzero"></path>
                <path d="M232.985,70.1 C233.365002,70.1 233.679999,70.2249987 233.93,70.475 C234.180001,70.7250013 234.305,71.0399981 234.305,71.42 C234.305,71.8000019 234.180001,72.1149987 233.93,72.365 C233.679999,72.6150013 233.365002,72.74 232.985,72.74 L228.305,72.74 L228.305,77.39 C228.305,77.7700019 228.180001,78.0899987 227.93,78.35 C227.679999,78.6100013 227.365002,78.74 226.985,78.74 C226.604998,78.74 226.290001,78.6100013 226.04,78.35 C225.789999,78.0899987 225.665,77.7700019 225.665,77.39 L225.665,72.74 L220.985,72.74 C220.604998,72.74 220.290001,72.6150013 220.04,72.365 C219.789999,72.1149987 219.665,71.8000019 219.665,71.42 C219.665,71.0399981 219.789999,70.7250013 220.04,70.475 C220.290001,70.2249987 220.604998,70.1 220.985,70.1 L225.665,70.1 L225.665,65.42 C225.665,65.0399981 225.789999,64.7250012 226.04,64.475 C226.290001,64.2249987 226.604998,64.1 226.985,64.1 C227.365002,64.1 227.679999,64.2249987 227.93,64.475 C228.180001,64.7250012 228.305,65.0399981 228.305,65.42 L228.305,70.1 L232.985,70.1 Z M253.19,74.03 C253.19,75.630008 252.635006,76.9799945 251.525,78.08 C250.414994,79.1800055 248.920009,79.8699986 247.04,80.15 L247.04,82.04 C247.04,82.5000023 246.900001,82.8749986 246.62,83.165 C246.339999,83.4550014 245.970002,83.6 245.51,83.6 C245.049998,83.6 244.680001,83.4550014 244.4,83.165 C244.119999,82.8749986 243.98,82.5000023 243.98,82.04 L243.98,80.21 C242.839994,80.1099995 241.730005,79.8700019 240.65,79.49 C239.569995,79.1099981 238.640004,78.6100031 237.86,77.99 C237.599999,77.8099991 237.420001,77.6100011 237.32,77.39 C237.22,77.1699989 237.17,76.9000016 237.17,76.58 C237.17,76.1599979 237.294999,75.7900016 237.545,75.47 C237.795001,75.1499984 238.079998,74.99 238.4,74.99 C238.600001,74.99 238.784999,75.0249996 238.955,75.095 C239.125001,75.1650003 239.349999,75.2799992 239.63,75.44 C240.550005,76.040003 241.454996,76.4799986 242.345,76.76 C243.235004,77.0400014 244.17,77.18 245.15,77.18 C246.490007,77.18 247.524996,76.9200026 248.255,76.4 C248.985004,75.8799974 249.35,75.1300049 249.35,74.15 C249.35,73.5699971 249.150002,73.1000018 248.75,72.74 C248.349998,72.3799982 247.850003,72.0950011 247.25,71.885 C246.649997,71.674999 245.810005,71.4300014 244.73,71.15 C243.229993,70.7699981 242.010005,70.385002 241.07,69.995 C240.129995,69.6049981 239.320003,69.010004 238.64,68.21 C237.959997,67.409996 237.62,66.3300068 237.62,64.97 C237.62,63.3499919 238.199994,61.9700057 239.36,60.83 C240.520006,59.6899943 242.039991,58.9800014 243.92,58.7 L243.92,56.81 C243.92,56.3499977 244.059999,55.9750015 244.34,55.685 C244.620001,55.3949985 244.989998,55.25 245.45,55.25 C245.910002,55.25 246.279999,55.3949985 246.56,55.685 C246.840001,55.9750015 246.98,56.3499977 246.98,56.81 L246.98,58.67 C249.00001,58.9300013 250.739993,59.659994 252.2,60.86 C252.680002,61.2200018 252.92,61.6899971 252.92,62.27 C252.92,62.6900021 252.795001,63.0599984 252.545,63.38 C252.294999,63.7000016 252.000002,63.86 251.66,63.86 C251.479999,63.86 251.305001,63.8300003 251.135,63.77 C250.964999,63.7099997 250.740001,63.5900009 250.46,63.41 C249.639996,62.8299971 248.865004,62.3950014 248.135,62.105 C247.404996,61.8149985 246.540005,61.67 245.54,61.67 C244.299994,61.67 243.310004,61.9449973 242.57,62.495 C241.829996,63.0450028 241.46,63.7999952 241.46,64.76 C241.46,65.4200033 241.67,65.954998 242.09,66.365 C242.510002,66.775002 243.039997,67.0899989 243.68,67.31 C244.320003,67.5300011 245.189995,67.7799986 246.29,68.06 C247.750007,68.4200018 248.939995,68.7899981 249.86,69.17 C250.780005,69.5500019 251.564997,70.1249962 252.215,70.895 C252.865003,71.6650039 253.19,72.7099934 253.19,74.03 Z M269.465,76.88 C270.665006,76.88 271.265,77.3899949 271.265,78.41 C271.265,79.4700053 270.665006,80 269.465,80 L259.325,80 C258.104994,80 257.495,79.4700053 257.495,78.41 C257.495,77.3899949 258.104994,76.88 259.325,76.88 L262.445,76.88 L262.445,63.2 L259.565,64.97 C259.284999,65.1300008 259.035001,65.21 258.815,65.21 C258.394998,65.21 258.040001,65.0300018 257.75,64.67 C257.459999,64.3099982 257.315,63.9100022 257.315,63.47 C257.315,62.8899971 257.574997,62.4400016 258.095,62.12 L262.745,59.24 C263.345003,58.8799982 263.914997,58.7 264.455,58.7 C265.015003,58.7 265.464998,58.8699983 265.805,59.21 C266.145002,59.5500017 266.315,60.019997 266.315,60.62 L266.315,76.88 L269.465,76.88 Z M276.32,75.68 C277.000003,75.68 277.549998,75.9299975 277.97,76.43 C278.390002,76.9300025 278.6,77.6599952 278.6,78.62 C278.6,80.5200095 277.940007,82.1599931 276.62,83.54 C276.359999,83.8000013 276.080002,83.93 275.78,83.93 C275.479999,83.93 275.220001,83.830001 275,83.63 C274.779999,83.429999 274.67,83.1900014 274.67,82.91 C274.67,82.6699988 274.769999,82.4400011 274.97,82.22 C275.570003,81.5799968 275.959999,80.860004 276.14,80.06 C275.559997,79.9999997 275.085002,79.775002 274.715,79.385 C274.344998,78.994998 274.16,78.5100029 274.16,77.93 C274.16,77.2899968 274.364998,76.7550021 274.775,76.325 C275.185002,75.8949978 275.699997,75.68 276.32,75.68 Z M295.355,76.88 C296.555006,76.88 297.155,77.3899949 297.155,78.41 C297.155,79.4700053 296.555006,80 295.355,80 L285.215,80 C283.994994,80 283.385,79.4700053 283.385,78.41 C283.385,77.3899949 283.994994,76.88 285.215,76.88 L288.335,76.88 L288.335,63.2 L285.455,64.97 C285.174999,65.1300008 284.925001,65.21 284.705,65.21 C284.284998,65.21 283.930001,65.0300018 283.64,64.67 C283.349999,64.3099982 283.205,63.9100022 283.205,63.47 C283.205,62.8899971 283.464997,62.4400016 283.985,62.12 L288.635,59.24 C289.235003,58.8799982 289.804997,58.7 290.345,58.7 C290.905003,58.7 291.354998,58.8699983 291.695,59.21 C292.035002,59.5500017 292.205,60.019997 292.205,60.62 L292.205,76.88 L295.355,76.88 Z M307.55,80.27 C305.049988,80.27 303.140007,79.3450093 301.82,77.495 C300.499993,75.6449908 299.84,72.9500177 299.84,69.41 C299.84,65.8899824 300.499993,63.2050093 301.82,61.355 C303.140007,59.5049908 305.049988,58.58 307.55,58.58 C310.050012,58.58 311.959993,59.5049908 313.28,61.355 C314.600007,63.2050093 315.26,65.8899824 315.26,69.41 C315.26,72.9300176 314.600007,75.6199907 313.28,77.48 C311.959993,79.3400093 310.050012,80.27 307.55,80.27 Z M307.55,77.24 C308.910007,77.24 309.899997,76.6150062 310.52,75.365 C311.140003,74.1149937 311.45,72.1300136 311.45,69.41 C311.45,66.6699863 311.140003,64.6850061 310.52,63.455 C309.899997,62.2249939 308.910007,61.61 307.55,61.61 C306.189993,61.61 305.200003,62.2299938 304.58,63.47 C303.959997,64.7100062 303.65,66.6899864 303.65,69.41 C303.65,72.1300136 303.959997,74.1149937 304.58,75.365 C305.200003,76.6150062 306.189993,77.24 307.55,77.24 Z M325.775,80.27 C323.274988,80.27 321.365007,79.3450093 320.045,77.495 C318.724993,75.6449908 318.065,72.9500177 318.065,69.41 C318.065,65.8899824 318.724993,63.2050093 320.045,61.355 C321.365007,59.5049908 323.274988,58.58 325.775,58.58 C328.275013,58.58 330.184993,59.5049908 331.505,61.355 C332.825007,63.2050093 333.485,65.8899824 333.485,69.41 C333.485,72.9300176 332.825007,75.6199907 331.505,77.48 C330.184993,79.3400093 328.275013,80.27 325.775,80.27 Z M325.775,77.24 C327.135007,77.24 328.124997,76.6150062 328.745,75.365 C329.365003,74.1149937 329.675,72.1300136 329.675,69.41 C329.675,66.6699863 329.365003,64.6850061 328.745,63.455 C328.124997,62.2249939 327.135007,61.61 325.775,61.61 C324.414993,61.61 323.425003,62.2299938 322.805,63.47 C322.184997,64.7100062 321.875,66.6899864 321.875,69.41 C321.875,72.1300136 322.184997,74.1149937 322.805,75.365 C323.425003,76.6150062 324.414993,77.24 325.775,77.24 Z" id="+$1,100" fill="#FFFFFF" fill-rule="nonzero"></path>
                <path d="M79.8361123,106.492899 L352,106.492899" id="Line-2-Copy-8" stroke="#FFFFFF" opacity="0.192987351" stroke-linecap="square"></path>
                <path d="M215.832,140.08 C215.586665,140.08 215.386667,140.002667 215.232,139.848 C215.077333,139.693333 215,139.493335 215,139.248 L215,130.096 L211.8,130.096 C211.287997,130.096 211.032,129.866669 211.032,129.408 C211.032,129.183999 211.098666,129.013334 211.232,128.896 C211.365334,128.778666 211.554665,128.72 211.8,128.72 L219.864,128.72 C220.109335,128.72 220.298666,128.778666 220.432,128.896 C220.565334,129.013334 220.632,129.183999 220.632,129.408 C220.632,129.866669 220.376003,130.096 219.864,130.096 L216.664,130.096 L216.664,139.248 C216.664,139.493335 216.589334,139.693333 216.44,139.848 C216.290666,140.002667 216.088001,140.08 215.832,140.08 Z M226.024,132 C227.880009,132 228.808,133.050656 228.808,135.152 L228.808,139.312 C228.808,139.546668 228.733334,139.733333 228.584,139.872 C228.434666,140.010667 228.237335,140.08 227.992,140.08 C227.746665,140.08 227.552001,140.010667 227.408,139.872 C227.263999,139.733333 227.192,139.546668 227.192,139.312 L227.192,135.168 C227.192,134.527997 227.061335,134.058668 226.8,133.76 C226.538665,133.461332 226.130669,133.312 225.576,133.312 C224.92533,133.312 224.402669,133.514665 224.008,133.92 C223.613331,134.325335 223.416,134.86933 223.416,135.552 L223.416,139.312 C223.416,139.546668 223.344001,139.733333 223.2,139.872 C223.055999,140.010667 222.861335,140.08 222.616,140.08 C222.370665,140.08 222.173334,140.010667 222.024,139.872 C221.874666,139.733333 221.8,139.546668 221.8,139.312 L221.8,129.408 C221.8,129.173332 221.877333,128.986667 222.032,128.848 C222.186667,128.709333 222.386665,128.64 222.632,128.64 C222.866668,128.64 223.055999,128.706666 223.2,128.84 C223.344001,128.973334 223.416,129.151999 223.416,129.376 L223.416,133.376 C223.682668,132.927998 224.039998,132.586668 224.488,132.352 C224.936002,132.117332 225.447997,132 226.024,132 Z M231.832,140.08 C231.597332,140.08 231.402667,140.016001 231.248,139.888 C231.093333,139.759999 231.016,139.568001 231.016,139.312 L231.016,132.816 C231.016,132.559999 231.093333,132.365334 231.248,132.232 C231.402667,132.098666 231.597332,132.032 231.832,132.032 C232.066668,132.032 232.258666,132.098666 232.408,132.232 C232.557334,132.365334 232.632,132.559999 232.632,132.816 L232.632,139.312 C232.632,139.568001 232.557334,139.759999 232.408,139.888 C232.258666,140.016001 232.066668,140.08 231.832,140.08 Z M231.832,130.464 C231.522665,130.464 231.277334,130.378668 231.096,130.208 C230.914666,130.037332 230.824,129.813335 230.824,129.536 C230.824,129.258665 230.914666,129.037334 231.096,128.872 C231.277334,128.706666 231.522665,128.624 231.832,128.624 C232.130668,128.624 232.373332,128.706666 232.56,128.872 C232.746668,129.037334 232.84,129.258665 232.84,129.536 C232.84,129.813335 232.749334,130.037332 232.568,130.208 C232.386666,130.378668 232.141335,130.464 231.832,130.464 Z M237.608,140.112 C236.519995,140.112 235.629337,139.888002 234.936,139.44 C234.743999,139.322666 234.608,139.200001 234.528,139.072 C234.448,138.943999 234.408,138.800001 234.408,138.64 C234.408,138.469332 234.456,138.325334 234.552,138.208 C234.648,138.090666 234.770666,138.032 234.92,138.032 C235.058667,138.032 235.277332,138.117332 235.576,138.288 C235.896002,138.458668 236.207998,138.597333 236.512,138.704 C236.816002,138.810667 237.197331,138.864 237.656,138.864 C238.168003,138.864 238.567999,138.773334 238.856,138.592 C239.144001,138.410666 239.288,138.154668 239.288,137.824 C239.288,137.610666 239.232001,137.440001 239.12,137.312 C239.007999,137.183999 238.813335,137.069334 238.536,136.968 C238.258665,136.866666 237.848003,136.757334 237.304,136.64 C236.365329,136.437332 235.690669,136.162668 235.28,135.816 C234.869331,135.469332 234.664,134.997336 234.664,134.4 C234.664,133.941331 234.797332,133.528002 235.064,133.16 C235.330668,132.791998 235.698664,132.506668 236.168,132.304 C236.637336,132.101332 237.170664,132 237.768,132 C238.194669,132 238.610665,132.055999 239.016,132.168 C239.421335,132.280001 239.778665,132.442666 240.088,132.656 C240.440002,132.890668 240.616,133.162665 240.616,133.472 C240.616,133.642668 240.565334,133.786666 240.464,133.904 C240.362666,134.021334 240.242667,134.08 240.104,134.08 C240.008,134.08 239.912,134.058667 239.816,134.016 C239.72,133.973333 239.592001,133.904 239.432,133.808 C239.143999,133.637332 238.874668,133.504 238.624,133.408 C238.373332,133.312 238.061335,133.264 237.688,133.264 C237.239998,133.264 236.880001,133.359999 236.608,133.552 C236.335999,133.744001 236.2,134.005332 236.2,134.336 C236.2,134.634668 236.325332,134.866666 236.576,135.032 C236.826668,135.197334 237.298663,135.354666 237.992,135.504 C238.70667,135.653334 239.266665,135.823999 239.672,136.016 C240.077335,136.208001 240.367999,136.445332 240.544,136.728 C240.720001,137.010668 240.808,137.370664 240.808,137.808 C240.808,138.501337 240.517336,139.058665 239.936,139.48 C239.354664,139.901335 238.578672,140.112 237.608,140.112 Z M255.784,132 C257.533342,132 258.408,133.050656 258.408,135.152 L258.408,139.312 C258.408,139.557335 258.333334,139.746666 258.184,139.88 C258.034666,140.013334 257.837335,140.08 257.592,140.08 C257.357332,140.08 257.165334,140.013334 257.016,139.88 C256.866666,139.746666 256.792,139.557335 256.792,139.312 L256.792,135.168 C256.792,134.51733 256.674668,134.045335 256.44,133.752 C256.205332,133.458665 255.837336,133.312 255.336,133.312 C254.74933,133.312 254.285335,133.511998 253.944,133.912 C253.602665,134.312002 253.432,134.858663 253.432,135.552 L253.432,139.312 C253.432,139.557335 253.357334,139.746666 253.208,139.88 C253.058666,140.013334 252.861335,140.08 252.616,140.08 C252.381332,140.08 252.189334,140.013334 252.04,139.88 C251.890666,139.746666 251.816,139.557335 251.816,139.312 L251.816,135.168 C251.816,134.51733 251.698668,134.045335 251.464,133.752 C251.229332,133.458665 250.861336,133.312 250.36,133.312 C249.77333,133.312 249.306668,133.511998 248.96,133.912 C248.613332,134.312002 248.44,134.858663 248.44,135.552 L248.44,139.312 C248.44,139.557335 248.365334,139.746666 248.216,139.88 C248.066666,140.013334 247.874668,140.08 247.64,140.08 C247.405332,140.08 247.210667,140.013334 247.056,139.88 C246.901333,139.746666 246.824,139.557335 246.824,139.312 L246.824,132.8 C246.824,132.565332 246.903999,132.378667 247.064,132.24 C247.224001,132.101333 247.415999,132.032 247.64,132.032 C247.864001,132.032 248.047999,132.098666 248.192,132.232 C248.336001,132.365334 248.408,132.549332 248.408,132.784 L248.408,133.376 C248.642668,132.927998 248.967998,132.586668 249.384,132.352 C249.800002,132.117332 250.279997,132 250.824,132 C251.421336,132 251.914665,132.122665 252.304,132.368 C252.693335,132.613335 252.983999,132.991997 253.176,133.504 C253.410668,133.045331 253.757331,132.680001 254.216,132.408 C254.674669,132.135999 255.19733,132 255.784,132 Z M264.008,140.112 C263.239996,140.112 262.565336,139.946668 261.984,139.616 C261.402664,139.285332 260.954668,138.813336 260.64,138.2 C260.325332,137.586664 260.168,136.874671 260.168,136.064 C260.168,135.242663 260.325332,134.525336 260.64,133.912 C260.954668,133.298664 261.402664,132.826668 261.984,132.496 C262.565336,132.165332 263.239996,132 264.008,132 C264.776004,132 265.450664,132.165332 266.032,132.496 C266.613336,132.826668 267.061332,133.298664 267.376,133.912 C267.690668,134.525336 267.848,135.242663 267.848,136.064 C267.848,136.874671 267.690668,137.586664 267.376,138.2 C267.061332,138.813336 266.613336,139.285332 266.032,139.616 C265.450664,139.946668 264.776004,140.112 264.008,140.112 Z M264.008,138.832 C264.72267,138.832 265.269331,138.597336 265.648,138.128 C266.026669,137.658664 266.216,136.970671 266.216,136.064 C266.216,135.167996 266.024002,134.482669 265.64,134.008 C265.255998,133.533331 264.712004,133.296 264.008,133.296 C263.303996,133.296 262.760002,133.533331 262.376,134.008 C261.991998,134.482669 261.8,135.167996 261.8,136.064 C261.8,136.970671 261.989331,137.658664 262.368,138.128 C262.746669,138.597336 263.29333,138.832 264.008,138.832 Z M273.848,132 C275.714676,132 276.648,133.050656 276.648,135.152 L276.648,139.312 C276.648,139.557335 276.576001,139.746666 276.432,139.88 C276.287999,140.013334 276.088001,140.08 275.832,140.08 C275.586665,140.08 275.392001,140.010667 275.248,139.872 C275.103999,139.733333 275.032,139.546668 275.032,139.312 L275.032,135.232 C275.032,134.570663 274.901335,134.085335 274.64,133.776 C274.378665,133.466665 273.970669,133.312 273.416,133.312 C272.76533,133.312 272.242669,133.514665 271.848,133.92 C271.453331,134.325335 271.256,134.86933 271.256,135.552 L271.256,139.312 C271.256,139.546668 271.184001,139.733333 271.04,139.872 C270.895999,140.010667 270.701335,140.08 270.456,140.08 C270.210665,140.08 270.013334,140.010667 269.864,139.872 C269.714666,139.733333 269.64,139.546668 269.64,139.312 L269.64,132.8 C269.64,132.575999 269.717333,132.392001 269.872,132.248 C270.026667,132.103999 270.221332,132.032 270.456,132.032 C270.690668,132.032 270.877333,132.101333 271.016,132.24 C271.154667,132.378667 271.224,132.559999 271.224,132.784 L271.224,133.44 C271.480001,132.970664 271.837331,132.613335 272.296,132.368 C272.754669,132.122665 273.271997,132 273.848,132 Z M282.68,138.848 C282.914668,138.869333 283.082666,138.930666 283.184,139.032 C283.285334,139.133334 283.336,139.274666 283.336,139.456 C283.336,139.669334 283.253334,139.831999 283.088,139.944 C282.922666,140.056001 282.680002,140.101333 282.36,140.08 L281.928,140.048 C281.063996,139.984 280.418669,139.720002 279.992,139.256 C279.565331,138.791998 279.352,138.106671 279.352,137.2 L279.352,133.44 L278.392,133.44 C277.922664,133.44 277.688,133.232002 277.688,132.816 C277.688,132.623999 277.749333,132.472001 277.872,132.36 C277.994667,132.247999 278.167999,132.192 278.392,132.192 L279.352,132.192 L279.352,130.544 C279.352,130.298665 279.423999,130.106667 279.568,129.968 C279.712001,129.829333 279.906665,129.76 280.152,129.76 C280.397335,129.76 280.594666,129.829333 280.744,129.968 C280.893334,130.106667 280.968,130.298665 280.968,130.544 L280.968,132.192 L282.552,132.192 C282.776001,132.192 282.949333,132.247999 283.072,132.36 C283.194667,132.472001 283.256,132.623999 283.256,132.816 C283.256,133.018668 283.194667,133.173333 283.072,133.28 C282.949333,133.386667 282.776001,133.44 282.552,133.44 L280.968,133.44 L280.968,137.312 C280.968,137.813336 281.071999,138.181332 281.28,138.416 C281.488001,138.650668 281.805331,138.784 282.232,138.816 L282.68,138.848 Z M288.728,132 C290.584009,132 291.512,133.050656 291.512,135.152 L291.512,139.312 C291.512,139.546668 291.437334,139.733333 291.288,139.872 C291.138666,140.010667 290.941335,140.08 290.696,140.08 C290.450665,140.08 290.256001,140.010667 290.112,139.872 C289.967999,139.733333 289.896,139.546668 289.896,139.312 L289.896,135.168 C289.896,134.527997 289.765335,134.058668 289.504,133.76 C289.242665,133.461332 288.834669,133.312 288.28,133.312 C287.62933,133.312 287.106669,133.514665 286.712,133.92 C286.317331,134.325335 286.12,134.86933 286.12,135.552 L286.12,139.312 C286.12,139.546668 286.048001,139.733333 285.904,139.872 C285.759999,140.010667 285.565335,140.08 285.32,140.08 C285.074665,140.08 284.877334,140.010667 284.728,139.872 C284.578666,139.733333 284.504,139.546668 284.504,139.312 L284.504,129.408 C284.504,129.173332 284.581333,128.986667 284.736,128.848 C284.890667,128.709333 285.090665,128.64 285.336,128.64 C285.570668,128.64 285.759999,128.706666 285.904,128.84 C286.048001,128.973334 286.12,129.151999 286.12,129.376 L286.12,133.376 C286.386668,132.927998 286.743998,132.586668 287.192,132.352 C287.640002,132.117332 288.151997,132 288.728,132 Z" id="Thismonth" fill="#FFFFFF" fill-rule="nonzero"></path>
                <path d="M314.296,134.848 C314.466668,134.848 314.610666,134.903999 314.728,135.016 C314.845334,135.128001 314.904,135.269332 314.904,135.44 C314.904,135.610668 314.845334,135.751999 314.728,135.864 C314.610666,135.976001 314.466668,136.032 314.296,136.032 L311.592,136.032 L311.592,138.736 C311.592,138.906668 311.536001,139.050666 311.424,139.168 C311.311999,139.285334 311.170668,139.344 311,139.344 C310.829332,139.344 310.688001,139.285334 310.576,139.168 C310.463999,139.050666 310.408,138.906668 310.408,138.736 L310.408,136.032 L307.704,136.032 C307.533332,136.032 307.389334,135.973334 307.272,135.856 C307.154666,135.738666 307.096,135.600001 307.096,135.44 C307.096,135.269332 307.154666,135.128001 307.272,135.016 C307.389334,134.903999 307.533332,134.848 307.704,134.848 L310.408,134.848 L310.408,132.144 C310.408,131.973332 310.463999,131.829334 310.576,131.712 C310.688001,131.594666 310.829332,131.536 311,131.536 C311.170668,131.536 311.311999,131.594666 311.424,131.712 C311.536001,131.829334 311.592,131.973332 311.592,132.144 L311.592,134.848 L314.296,134.848 Z M324.728,136.896 C324.728,137.738671 324.42667,138.447997 323.824,139.024 C323.22133,139.600003 322.424,139.951999 321.432,140.08 L321.432,141.216 C321.432,141.429334 321.370667,141.599999 321.248,141.728 C321.125333,141.856001 320.962668,141.92 320.76,141.92 C320.557332,141.92 320.394667,141.856001 320.272,141.728 C320.149333,141.599999 320.088,141.429334 320.088,141.216 L320.088,140.112 C319.447997,140.058666 318.832003,139.928001 318.24,139.72 C317.647997,139.511999 317.144002,139.226668 316.728,138.864 C316.525332,138.714666 316.424,138.501335 316.424,138.224 C316.424,138.031999 316.474666,137.869334 316.576,137.736 C316.677334,137.602666 316.802666,137.536 316.952,137.536 C317.101334,137.536 317.282666,137.605333 317.496,137.744 C318.520005,138.437337 319.554661,138.784 320.6,138.784 C321.389337,138.784 321.999998,138.624002 322.432,138.304 C322.864002,137.983998 323.08,137.53067 323.08,136.944 C323.08,136.591998 322.965334,136.306668 322.736,136.088 C322.506666,135.869332 322.218668,135.696001 321.872,135.568 C321.525332,135.439999 321.048003,135.301334 320.44,135.152 C319.639996,134.949332 318.989336,134.746668 318.488,134.544 C317.986664,134.341332 317.557335,134.026669 317.2,133.6 C316.842665,133.173331 316.664,132.608004 316.664,131.904 C316.664,131.039996 316.975997,130.30667 317.6,129.704 C318.224003,129.10133 319.047995,128.741334 320.072,128.624 L320.072,127.504 C320.072,127.290666 320.133333,127.120001 320.256,126.992 C320.378667,126.863999 320.541332,126.8 320.744,126.8 C320.946668,126.8 321.109333,126.863999 321.232,126.992 C321.354667,127.120001 321.416,127.290666 321.416,127.504 L321.416,128.624 C321.960003,128.677334 322.479998,128.807999 322.976,129.016 C323.472002,129.224001 323.911998,129.503998 324.296,129.856 C324.509334,130.026668 324.616,130.239999 324.616,130.496 C324.616,130.677334 324.562667,130.837333 324.456,130.976 C324.349333,131.114667 324.221334,131.184 324.072,131.184 C323.922666,131.184 323.741334,131.114667 323.528,130.976 C323.069331,130.623998 322.632002,130.362668 322.216,130.192 C321.799998,130.021332 321.309336,129.936 320.744,129.936 C320.007996,129.936 319.421336,130.106665 318.984,130.448 C318.546664,130.789335 318.328,131.25333 318.328,131.84 C318.328,132.234669 318.450665,132.554665 318.696,132.8 C318.941335,133.045335 319.245332,133.234666 319.608,133.368 C319.970668,133.501334 320.466664,133.642666 321.096,133.792 C321.874671,133.984001 322.503998,134.178666 322.984,134.376 C323.464002,134.573334 323.874665,134.871998 324.216,135.272 C324.557335,135.672002 324.728,136.21333 324.728,136.896 Z M330.2,140.128 C328.887993,140.128 327.888003,139.637338 327.2,138.656 C326.511997,137.674662 326.168,136.245343 326.168,134.368 C326.168,132.479991 326.511997,131.045338 327.2,130.064 C327.888003,129.082662 328.887993,128.592 330.2,128.592 C331.512007,128.592 332.511997,129.079995 333.2,130.056 C333.888003,131.032005 334.232,132.463991 334.232,134.352 C334.232,136.240009 333.888003,137.674662 333.2,138.656 C332.511997,139.637338 331.512007,140.128 330.2,140.128 Z M330.2,138.8 C331.021337,138.8 331.623998,138.44267 332.008,137.728 C332.392002,137.01333 332.584,135.888008 332.584,134.352 C332.584,132.815992 332.392002,131.693337 332.008,130.984 C331.623998,130.274663 331.021337,129.92 330.2,129.92 C329.378663,129.92 328.776002,130.274663 328.392,130.984 C328.007998,131.693337 327.816,132.815992 327.816,134.352 C327.816,135.877341 328.007998,136.999996 328.392,137.72 C328.776002,138.440004 329.378663,138.8 330.2,138.8 Z" id="+$0" fill="#FFFFFF" fill-rule="nonzero"></path>
                <g id="Group-19-Copy-2" transform="translate(14.000000, 58.000000)" fill-rule="nonzero">
                    <ellipse id="Oval" fill="#0E0E0E" opacity="0.118210565" cx="51.4948454" cy="81.185567" rx="51.4948454" ry="8.81443299"></ellipse>
                    <path d="M14.5037192,80.7216495 L91.2882712,80.7216495 C92.7979732,80.7134396 94.1929273,79.9062717 94.9638556,78.5948313 C95.734784,77.2833909 95.7688453,75.6596346 95.0536041,74.3163726 L56.6801548,2.28434983 C55.9308682,0.877452134 54.4773172,0 52.8959952,0 C51.3146731,0 49.8611221,0.877452134 49.1118356,2.28434983 L10.7195596,74.3163726 C10.0027583,75.6626158 10.0386823,77.2903327 10.8141653,78.6029579 C11.5896483,79.9155832 12.9906584,80.7201 14.5037192,80.7216495 L14.5037192,80.7216495 Z M57.7815147,67.5592096 L48.0104757,67.5592096 L48.0104757,57.692135 L57.7815147,57.692135 L57.7815147,67.5592096 Z M57.7815147,51.110915 L48.0104757,51.110915 L48.0104757,31.3720105 L57.7815147,31.3720105 L57.7815147,51.110915 Z" id="Shape" fill="#CACACA"></path>
                    <path d="M14.5037192,82.5773196 L91.2882712,82.5773196 C92.7979732,82.5691097 94.1929273,81.7619418 94.9638556,80.4505014 C95.734784,79.139061 95.7688453,77.5153047 95.0536041,76.1720427 L56.6801548,4.14001993 C55.9308682,2.73312224 54.4773172,1.8556701 52.8959952,1.8556701 C51.3146731,1.8556701 49.8611221,2.73312224 49.1118356,4.14001993 L10.7195596,76.1720427 C10.0027583,77.5182859 10.0386823,79.1460028 10.8141653,80.458628 C11.5896483,81.7712533 12.9906584,82.5757701 14.5037192,82.5773196 L14.5037192,82.5773196 Z M57.7815147,69.4148797 L48.0104757,69.4148797 L48.0104757,59.5478051 L57.7815147,59.5478051 L57.7815147,69.4148797 Z M57.7815147,52.9665851 L48.0104757,52.9665851 L48.0104757,33.2276806 L57.7815147,33.2276806 L57.7815147,52.9665851 Z" id="Shape" fill="#FFFFFF"></path>
                </g>
            </g>
            <g id="Group-28" transform="translate(12.000000, 234.000000)" fill="#E65B5B">
                <circle id="Oval-Copy-3" fill-opacity="0.145104895" cx="20.5" cy="20.5" r="20.5"></circle>
                <path d="M28.8449032,13.1293092 C30.8147238,13.1293092 32.4115789,14.6926383 32.4115789,16.6211023 L32.4115789,26.7187332 C32.4115789,28.6471973 30.8147238,30.2105263 28.8449032,30.2105263 L12.1982547,30.2105263 C10.2284341,30.2105263 8.63157895,28.6471973 8.63157895,26.7187332 L8.63157895,16.617928 C8.63157895,14.6894639 10.2284341,13.1261349 12.1982547,13.1261349 L15.9821734,13.1261349 L15.9821734,11.9325765 C15.9821734,10.7053721 16.998354,9.71052632 18.2518762,9.71052632 L22.7912817,9.71052632 C24.0448039,9.71052632 25.0609845,10.7053721 25.0609845,11.9325765 L25.0609845,13.1293092 L28.8449032,13.1293092 Z M17.9276329,11.9325765 L17.9276329,13.1261349 L23.115525,13.1261349 L23.115525,11.9325765 C23.115525,11.7572616 22.9703563,11.6151407 22.7912817,11.6151407 L18.2518762,11.6151407 C18.0728016,11.6151407 17.9276329,11.7572616 17.9276329,11.9325765 Z M30.4661194,26.7187332 L30.4661194,16.6211023 C30.4661194,15.7445278 29.7402762,15.0339237 28.8449032,15.0339237 L12.1982547,15.0339237 C11.3028817,15.0339237 10.5770385,15.7445278 10.5770385,16.6211023 L10.5770385,26.7187332 C10.5770385,27.5953078 11.3028817,28.3059119 12.1982547,28.3059119 L28.8449032,28.3059119 C29.7402762,28.3059119 30.4661194,27.5953078 30.4661194,26.7187332 Z M23.2702524,20.6591998 C23.7901327,20.6591998 24.2115789,21.080646 24.2115789,21.6005263 C24.2115789,22.1204066 23.7901327,22.5418529 23.2702524,22.5418529 L21.4629055,22.5418529 L21.4629055,24.3491998 C21.4629055,24.8690801 21.0414592,25.2905263 20.5215789,25.2905263 C20.0016987,25.2905263 19.5802524,24.8690801 19.5802524,24.3491998 L19.5802524,22.5418529 L17.7729055,22.5418529 C17.2530252,22.5418529 16.8315789,22.1204066 16.8315789,21.6005263 C16.8315789,21.080646 17.2530252,20.6591998 17.7729055,20.6591998 L19.5802524,20.6591998 L19.5802524,18.8518528 C19.5802524,18.3319725 20.0016987,17.9105263 20.5215789,17.9105263 C21.0414592,17.9105263 21.4629055,18.3319725 21.4629055,18.8518528 L21.4629055,20.6591998 L23.2702524,20.6591998 Z" id="Combined-Shape" fill-rule="nonzero"></path>
            </g>
        </g>
    </g>
</svg>